Samaano-Thin.ufo
<glyph name=".notdef" format="2">
  <advance width="1024"/>
  <unicode hex="0000"/>
  <outline>
    <contour>
      <point x="22" y="-100" type="line"/>
      <point x="1020" y="-100" type="line"/>
      <point x="1020" y="1540" type="line"/>
      <point x="22" y="1540" type="line"/>
    </contour>
    <contour>
      <point x="96" y="-20" type="line"/>
      <point x="96" y="1462" type="line"/>
      <point x="489" y="743" type="line"/>
    </contour>
    <contour>
      <point x="188" y="-20" type="line"/>
      <point x="527" y="666" type="line"/>
      <point x="868" y="-20" type="line"/>
    </contour>
    <contour>
      <point x="216" y="1474" type="line"/>
      <point x="847" y="1474" type="line"/>
      <point x="529" y="825" type="line"/>
    </contour>
    <contour>
      <point x="567" y="748" type="line"/>
      <point x="943" y="1475" type="line"/>
      <point x="943" y="-20" type="line"/>
    </contour>
  </outline>
</glyph>
<glyph name="exclam" format="2">
  <advance width="1200"/>
  <unicode hex="0021"/>
  <outline>
    <contour>
      <point x="571" y="9" type="line"/>
      <point x="638" y="9" type="line"/>
      <point x="638" y="107" type="line"/>
      <point x="571" y="107" type="line"/>
    </contour>
    <contour>
      <point x="569" y="344" type="line"/>
      <point x="641" y="344" type="line"/>
      <point x="641" y="1362" type="line"/>
      <point x="569" y="1362" type="line"/>
    </contour>
  </outline>
</glyph>
<glyph name="quotedbl" format="2">
  <advance width="1200"/>
  <unicode hex="0022"/>
  <outline>
    <contour>
      <point x="359" y="1326" type="line"/>
      <point x="424" y="1326" type="line"/>
      <point x="424" y="1574" type="line"/>
      <point x="359" y="1574" type="line"/>
    </contour>
    <contour>
      <point x="762" y="1326" type="line"/>
      <point x="822" y="1326" type="line"/>
      <point x="822" y="1574" type="line"/>
      <point x="762" y="1574" type="line"/>
    </contour>
  </outline>
</glyph>
<glyph name="numbersign" format="2">
  <advance width="1024"/>
  <unicode hex="0023"/>
  <outline>
    <contour>
      <point x="229.0" y="1184.0" type="line"/>
      <point x="229.0" y="99.0" type="line"/>
      <point x="288.0" y="99.0" type="line"/>
      <point x="288.0" y="1184.0" type="line"/>
    </contour>
    <contour>
      <point x="724.0" y="1192.0" type="line"/>
      <point x="724.0" y="95.0" type="line"/>
      <point x="795.0" y="95.0" type="line"/>
      <point x="795.0" y="1192.0" type="line"/>
    </contour>
    <contour>
      <point x="105.0" y="995.0" type="line"/>
      <point x="105.0" y="937.0" type="line"/>
      <point x="906.0" y="937.0" type="line"/>
      <point x="906.0" y="995.0" type="line"/>
    </contour>
    <contour>
      <point x="109.0" y="493.0" type="line"/>
      <point x="109.0" y="417.0" type="line"/>
      <point x="919.0" y="417.0" type="line"/>
      <point x="919.0" y="493.0" type="line"/>
    </contour>
  </outline>
</glyph>
<glyph name="dollar" format="2">
  <advance width="1024"/>
  <unicode hex="0024"/>
  <outline>
    <contour>
      <point x="126" y="1539" type="line"/>
      <point x="126" y="1457" type="line"/>
      <point x="724" y="1457" type="line"/>
      <point x="724" y="1539" type="line"/>
    </contour>
    <contour>
      <point x="126" y="1542" type="line"/>
      <point x="126" y="1028" type="line"/>
      <point x="210" y="1028" type="line"/>
      <point x="210" y="1542" type="line"/>
    </contour>
    <contour>
      <point x="154" y="69" type="line"/>
      <point x="154" y="0" type="line"/>
      <point x="862" y="0" type="line"/>
      <point x="862" y="69" type="line"/>
    </contour>
    <contour>
      <point x="818" y="0" type="line"/>
      <point x="898" y="0" type="line"/>
      <point x="898" y="355" type="line"/>
      <point x="818" y="355" type="line"/>
    </contour>
    <contour>
      <point x="126" y="1028" type="line"/>
      <point x="817" y="355" type="line"/>
      <point x="898" y="355" type="line"/>
      <point x="210" y="1028" type="line"/>
    </contour>
    <contour>
      <point x="421" y="1636" type="line"/>
      <point x="421" y="-215" type="line"/>
      <point x="491" y="-215" type="line"/>
      <point x="491" y="1636" type="line"/>
    </contour>
  </outline>
</glyph>
<glyph name="percent" format="2">
  <advance width="1024"/>
  <unicode hex="0025"/>
  <outline>
    <contour>
      <point x="122.0" y="444.0" type="line"/>
      <point x="151.0" y="417.0" type="line"/>
      <point x="898.0" y="775.0" type="line"/>
      <point x="879.0" y="801.0" type="line"/>
    </contour>
    <contour>
      <point x="228.0" y="1148.0" type="line"/>
      <point x="228.0" y="803.0" type="line"/>
      <point x="259.0" y="803.0" type="line"/>
      <point x="259.0" y="1148.0" type="line"/>
    </contour>
    <contour>
      <point x="228.0" y="1152.0" type="line"/>
      <point x="228.0" y="1126.0" type="line"/>
      <point x="575.0" y="1126.0" type="line"/>
      <point x="575.0" y="1152.0" type="line"/>
    </contour>
    <contour>
      <point x="228.0" y="826.0" type="line"/>
      <point x="228.0" y="789.0" type="line"/>
      <point x="572.0" y="789.0" type="line"/>
      <point x="572.0" y="826.0" type="line"/>
    </contour>
    <contour>
      <point x="539.0" y="1152.0" type="line"/>
      <point x="539.0" y="791.0" type="line"/>
      <point x="575.0" y="791.0" type="line"/>
      <point x="575.0" y="1152.0" type="line"/>
    </contour>
    <contour>
      <point x="555.0" y="436.0" type="line"/>
      <point x="555.0" y="94.0" type="line"/>
      <point x="598.0" y="94.0" type="line"/>
      <point x="598.0" y="436.0" type="line"/>
    </contour>
    <contour>
      <point x="555.0" y="440.0" type="line"/>
      <point x="555.0" y="397.0" type="line"/>
      <point x="902.0" y="397.0" type="line"/>
      <point x="902.0" y="440.0" type="line"/>
    </contour>
    <contour>
      <point x="555.0" y="109.0" type="line"/>
      <point x="555.0" y="77.0" type="line"/>
      <point x="899.0" y="77.0" type="line"/>
      <point x="899.0" y="109.0" type="line"/>
    </contour>
    <contour>
      <point x="868.0" y="440.0" type="line"/>
      <point x="868.0" y="79.0" type="line"/>
      <point x="902.0" y="79.0" type="line"/>
      <point x="902.0" y="440.0" type="line"/>
    </contour>
  </outline>
</glyph>
<glyph name="ampersand" format="2">
  <advance width="1024"/>
  <unicode hex="0026"/>
  <outline>
    <contour>
      <point x="277" y="1536" type="line"/>
      <point x="795" y="43" type="line"/>
      <point x="871" y="56" type="line"/>
      <point x="355" y="1534" type="line"/>
    </contour>
    <contour>
      <point x="820" y="1467" type="line"/>
      <point x="820" y="1536" type="line"/>
      <point x="355" y="1536" type="line"/>
      <point x="355" y="1467" type="line"/>
    </contour>
    <contour>
      <point x="762" y="1485" type="line"/>
      <point x="762" y="1006" type="line"/>
      <point x="820" y="1006" type="line"/>
      <point x="820" y="1485" type="line"/>
    </contour>
    <contour>
      <point x="124" y="1045" type="line"/>
      <point x="124" y="985" type="line"/>
      <point x="820" y="985" type="line"/>
      <point x="820" y="1045" type="line"/>
    </contour>
    <contour>
      <point x="124" y="1045" type="line"/>
      <point x="124" y="24" type="line"/>
      <point x="215" y="24" type="line"/>
      <point x="215" y="1045" type="line"/>
    </contour>
    <contour>
      <point x="124" y="71" type="line"/>
      <point x="124" y="6" type="line"/>
      <point x="933" y="6" type="line"/>
      <point x="933" y="71" type="line"/>
    </contour>
  </outline>
</glyph>
<glyph name="quotesingle" format="2">
  <advance width="1024"/>
  <unicode hex="0027"/>
  <outline>
    <contour>
      <point x="480.0" y="1496.0" type="line"/>
      <point x="480.0" y="1317.0" type="line"/>
      <point x="544.0" y="1317.0" type="line"/>
      <point x="544.0" y="1496.0" type="line"/>
    </contour>
  </outline>
</glyph>
<glyph name="parenleft" format="2">
  <advance width="1024"/>
  <unicode hex="0028"/>
  <outline>
    <contour>
      <point x="316.0" y="1023.0" type="line"/>
      <point x="316.0" y="179.0" type="line"/>
      <point x="444.0" y="179.0" type="line"/>
      <point x="444.0" y="1023.0" type="line"/>
    </contour>
    <contour>
      <point x="680.0" y="1636.0" type="line"/>
      <point x="316.0" y="1023.0" type="line"/>
      <point x="444.0" y="1023.0" type="line"/>
      <point x="708.0" y="1633.0" type="line"/>
    </contour>
    <contour>
      <point x="316.0" y="179.0" type="line"/>
      <point x="654.0" y="-309.0" type="line"/>
      <point x="682.0" y="-309.0" type="line"/>
      <point x="444.0" y="179.0" type="line"/>
    </contour>
  </outline>
</glyph>
<glyph name="parenright" format="2">
  <advance width="1024"/>
  <unicode hex="0029"/>
  <outline>
    <contour>
      <point x="409" y="1026" type="line"/>
      <point x="537" y="1026" type="line"/>
      <point x="537" y="179" type="line"/>
      <point x="409" y="179" type="line"/>
    </contour>
    <contour>
      <point x="204" y="1636" type="line"/>
      <point x="242" y="1635" type="line"/>
      <point x="537" y="1026" type="line"/>
      <point x="409" y="1026" type="line"/>
    </contour>
    <contour>
      <point x="409" y="179" type="line"/>
      <point x="537" y="179" type="line"/>
      <point x="233" y="-309" type="line"/>
      <point x="204" y="-307" type="line"/>
    </contour>
  </outline>
</glyph>
<glyph name="asterisk" format="2">
  <advance width="1024"/>
  <unicode hex="002A"/>
  <outline>
    <contour>
      <point x="486.5" y="1297" type="line"/>
      <point x="486.5" y="289" type="line"/>
      <point x="585.5" y="289" type="line"/>
      <point x="585.5" y="1297" type="line"/>
    </contour>
    <contour>
      <point x="140.5" y="1153" type="line"/>
      <point x="863.5" y="424" type="line"/>
      <point x="931.5" y="496" type="line"/>
      <point x="199.5" y="1222" type="line"/>
    </contour>
    <contour>
      <point x="840.5" y="1200" type="line"/>
      <point x="92.5" y="449" type="line"/>
      <point x="147.5" y="399" type="line"/>
      <point x="892.5" y="1134" type="line"/>
    </contour>
  </outline>
</glyph>
<glyph name="plus" format="2">
  <advance width="1024"/>
  <unicode hex="002B"/>
  <outline>
    <contour>
      <point x="434" y="1221" type="line"/>
      <point x="434" y="165" type="line"/>
      <point x="544" y="165" type="line"/>
      <point x="544" y="1221" type="line"/>
    </contour>
    <contour>
      <point x="61" y="796" type="line"/>
      <point x="61" y="693" type="line"/>
      <point x="963" y="693" type="line"/>
      <point x="963" y="796" type="line"/>
    </contour>
  </outline>
</glyph>
<glyph name="comma" format="2">
  <advance width="1024"/>
  <unicode hex="002C"/>
  <outline>
    <contour>
      <point x="444.0" y="165.0" type="line"/>
      <point x="444.0" y="8.0" type="line"/>
      <point x="580.0" y="8.0" type="line"/>
      <point x="580.0" y="165.0" type="line"/>
    </contour>
    <contour>
      <point x="528.0" y="135.0" type="line"/>
      <point x="486.0" y="-99.0" type="line"/>
      <point x="536.0" y="-148.0" type="line"/>
      <point x="578.0" y="26.0" type="line"/>
    </contour>
  </outline>
</glyph>
<glyph name="hyphen" format="2">
	<unicode hex="002D"/>
	<advance width="1024"/>
	<outline>
		<contour>
			<point x="99" y="793" type="line"/>
			<point x="99" y="695" type="line"/>
			<point x="925" y="695" type="line"/>
			<point x="925" y="793" type="line"/>
		</contour>
	</outline>
</glyph>
<glyph name="period" format="2">
  <advance width="1024"/>
  <unicode hex="002E"/>
  <outline>
    <contour>
      <point x="441" y="113" type="line"/>
      <point x="441" y="-1" type="line"/>
      <point x="584" y="-1" type="line"/>
      <point x="584" y="113" type="line"/>
    </contour>
  </outline>
</glyph>
<glyph name="slash" format="2">
  <advance width="1024"/>
  <unicode hex="002F"/>
  <outline>
    <contour>
      <point x="754.0" y="1480.0" type="line"/>
      <point x="167.0" y="10.0" type="line"/>
      <point x="270.0" y="10.0" type="line"/>
      <point x="857.0" y="1480.0" type="line"/>
    </contour>
  </outline>
</glyph>
<glyph name="zero" format="2">
  <advance width="1200"/>
  <unicode hex="0030"/>
  <outline>
    <contour>
      <point x="98" y="0" type="line"/>
      <point x="98" y="860" type="line"/>
      <point x="194" y="860" type="line"/>
      <point x="194" y="0" type="line"/>
    </contour>
    <contour>
      <point x="98" y="935" type="line"/>
      <point x="98" y="1640" type="line"/>
      <point x="200" y="1640" type="line"/>
      <point x="200" y="935" type="line"/>
    </contour>
    <contour>
      <point x="204" y="105" type="line"/>
      <point x="964" y="90" type="line"/>
      <point x="960" y="0" type="line"/>
      <point x="210" y="0" type="line"/>
    </contour>
    <contour>
      <point x="230" y="1520" type="line"/>
      <point x="230" y="1630" type="line"/>
      <point x="970" y="1640" type="line"/>
      <point x="970" y="1520" type="line"/>
    </contour>
    <contour>
      <point x="994" y="0" type="line"/>
      <point x="994" y="845" type="line"/>
      <point x="1102" y="845" type="line"/>
      <point x="1102" y="0" type="line"/>
    </contour>
    <contour>
      <point x="1010" y="935" type="line"/>
      <point x="1010" y="1640" type="line"/>
      <point x="1102" y="1640" type="line"/>
      <point x="1102" y="935" type="line"/>
    </contour>
    <contour>
      <point x="458" y="1013" type="line"/>
      <point x="458" y="709" type="line"/>
      <point x="679" y="709" type="line"/>
      <point x="679" y="1013" type="line"/>
    </contour>
  </outline>
</glyph>
<glyph name="one" format="2">
  <advance width="1024"/>
  <unicode hex="0031"/>
  <outline>
    <contour>
      <point x="551.0" y="0.0" type="line"/>
      <point x="611.0" y="0.0" type="line"/>
      <point x="611.0" y="1550.0" type="line"/>
      <point x="551.0" y="1550.0" type="line"/>
    </contour>
    <contour>
      <point x="551.0" y="1550.0" type="line"/>
      <point x="432.0" y="1426.0" type="line"/>
      <point x="483.0" y="1398.0" type="line"/>
      <point x="611.0" y="1550.0" type="line"/>
    </contour>
  </outline>
</glyph>
<glyph name="two" format="2">
  <advance width="1024"/>
  <unicode hex="0032"/>
  <outline>
    <contour>
      <point x="109.0" y="1484.0" type="line"/>
      <point x="843.0" y="1484.0" type="line"/>
      <point x="843.0" y="908.0" type="line"/>
      <point x="116.0" y="908.0" type="line"/>
      <point x="116.0" y="0.0" type="line"/>
      <point x="889.0" y="0.0" type="line"/>
      <point x="889.0" y="59.0" type="line"/>
      <point x="176.0" y="59.0" type="line"/>
      <point x="176.0" y="849.0" type="line"/>
      <point x="903.0" y="849.0" type="line"/>
      <point x="903.0" y="1544.0" type="line"/>
      <point x="109.0" y="1544.0" type="line"/>
    </contour>
  </outline>
</glyph>
<glyph name="three" format="2">
  <advance width="1024"/>
  <unicode hex="0033"/>
  <outline>
    <contour>
      <point x="101.0" y="736.0" type="line"/>
      <point x="903.0" y="736.0" type="line"/>
      <point x="903.0" y="52.0" type="line"/>
      <point x="59.0" y="52.0" type="line"/>
      <point x="68.0" y="-8.0" type="line"/>
      <point x="963.0" y="-8.0" type="line"/>
      <point x="963.0" y="1550.0" type="line"/>
      <point x="89.0" y="1550.0" type="line"/>
      <point x="89.0" y="1493.0" type="line"/>
      <point x="901.0" y="1493.0" type="line"/>
      <point x="901.0" y="796.0" type="line"/>
      <point x="101.0" y="796.0" type="line"/>
    </contour>
  </outline>
</glyph>
<glyph name="four" format="2">
  <advance width="1024"/>
  <unicode hex="0034"/>
  <outline>
    <contour>
      <point x="89.5" y="761" type="line"/>
      <point x="872" y="761" type="line"/>
      <point x="872" y="7" type="line"/>
      <point x="934.5" y="7" type="line"/>
      <point x="929" y="1548" type="line"/>
      <point x="869" y="1548" type="line"/>
      <point x="869" y="821" type="line"/>
      <point x="151" y="821" type="line"/>
      <point x="151" y="1552" type="line"/>
      <point x="91" y="1552" type="line"/>
    </contour>
  </outline>
</glyph>
<glyph name="five" format="2">
  <advance width="1024"/>
  <unicode hex="0035"/>
  <outline>
    <contour>
      <point x="917" y="899" type="line"/>
      <point x="918" y="58" type="line"/>
      <point x="59" y="58" type="line"/>
      <point x="55" y="-2" type="line"/>
      <point x="979.5" y="-2" type="line"/>
      <point x="977" y="959" type="line"/>
      <point x="120" y="959" type="line"/>
      <point x="120" y="1492" type="line"/>
      <point x="987" y="1492" type="line"/>
      <point x="987" y="1552" type="line"/>
      <point x="60" y="1552" type="line"/>
      <point x="59" y="899" type="line"/>
    </contour>
  </outline>
</glyph>
<glyph name="six" format="2">
  <advance width="1200"/>
  <unicode hex="0036"/>
  <outline>
    <contour>
      <point x="98" y="0" type="line"/>
      <point x="98" y="860" type="line"/>
      <point x="194" y="860" type="line"/>
      <point x="194" y="0" type="line"/>
    </contour>
    <contour>
      <point x="98" y="935" type="line"/>
      <point x="98" y="1640" type="line"/>
      <point x="200" y="1640" type="line"/>
      <point x="200" y="935" type="line"/>
    </contour>
    <contour>
      <point x="204" y="105" type="line"/>
      <point x="964" y="90" type="line"/>
      <point x="960" y="0" type="line"/>
      <point x="210" y="0" type="line"/>
    </contour>
    <contour>
      <point x="230" y="1520" type="line"/>
      <point x="230" y="1630" type="line"/>
      <point x="970" y="1640" type="line"/>
      <point x="970" y="1520" type="line"/>
    </contour>
    <contour>
      <point x="240" y="810" type="line"/>
      <point x="240" y="935" type="line"/>
      <point x="960" y="935" type="line"/>
      <point x="960" y="810" type="line"/>
    </contour>
    <contour>
      <point x="994" y="0" type="line"/>
      <point x="994" y="845" type="line"/>
      <point x="1102" y="845" type="line"/>
      <point x="1102" y="0" type="line"/>
    </contour>
  </outline>
</glyph>
<glyph name="seven" format="2">
  <advance width="1024"/>
  <unicode hex="0037"/>
  <outline>
    <contour>
      <point x="54" y="1495" type="line"/>
      <point x="905" y="1495" type="line"/>
      <point x="913" y="0" type="line"/>
      <point x="970" y="0" type="line"/>
      <point x="967" y="1557" type="line"/>
      <point x="54" y="1554" type="line"/>
    </contour>
  </outline>
</glyph>
<glyph name="eight" format="2">
  <advance width="1024"/>
  <unicode hex="0038"/>
  <outline>
    <contour>
      <point x="56.0" y="1550.0" type="line"/>
      <point x="56.0" y="0.0" type="line"/>
      <point x="969.0" y="0.0" type="line"/>
      <point x="969.0" y="1550.0" type="line"/>
    </contour>
    <contour>
      <point x="907.0" y="899.0" type="line"/>
      <point x="907.0" y="57.0" type="line"/>
      <point x="119.0" y="57.0" type="line"/>
      <point x="119.0" y="899.0" type="line"/>
    </contour>
    <contour>
      <point x="908.0" y="959.0" type="line"/>
      <point x="118.0" y="959.0" type="line"/>
      <point x="118.0" y="1489.0" type="line"/>
      <point x="908.0" y="1489.0" type="line"/>
    </contour>
  </outline>
</glyph>
<glyph name="nine" format="2">
  <advance width="1024"/>
  <unicode hex="0039"/>
  <outline>
    <contour>
      <point x="921.0" y="759.0" type="line"/>
      <point x="921.0" y="59.0" type="line"/>
      <point x="79.0" y="59.0" type="line"/>
      <point x="79.0" y="0.0" type="line"/>
      <point x="977.0" y="0.0" type="line"/>
      <point x="977.0" y="1553.0" type="line"/>
      <point x="57.0" y="1553.0" type="line"/>
      <point x="57.0" y="1541.0" type="line"/>
      <point x="57.0" y="759.0" type="line"/>
    </contour>
    <contour>
      <point x="918.0" y="818.0" type="line"/>
      <point x="117.0" y="818.0" type="line"/>
      <point x="117.0" y="1495.0" type="line"/>
      <point x="918.0" y="1495.0" type="line"/>
    </contour>
  </outline>
</glyph>
<glyph name="colon" format="2">
  <advance width="1024"/>
  <unicode hex="003A"/>
  <outline>
    <contour>
      <point x="443.5" y="164" type="line"/>
      <point x="443.5" y="7" type="line"/>
      <point x="580.5" y="7" type="line"/>
      <point x="580.5" y="164" type="line"/>
    </contour>
    <contour>
      <point x="443.5" y="553" type="line"/>
      <point x="443.5" y="396" type="line"/>
      <point x="580.5" y="396" type="line"/>
      <point x="580.5" y="553" type="line"/>
    </contour>
  </outline>
</glyph>
<glyph name="semicolon" format="2">
  <advance width="1024"/>
  <unicode hex="003B"/>
  <outline>
    <contour>
      <point x="443.5" y="164" type="line"/>
      <point x="443.5" y="7" type="line"/>
      <point x="580.5" y="7" type="line"/>
      <point x="580.5" y="164" type="line"/>
    </contour>
    <contour>
      <point x="527.5" y="135" type="line"/>
      <point x="486.5" y="-99" type="line"/>
      <point x="535.5" y="-148" type="line"/>
      <point x="578.5" y="26" type="line"/>
    </contour>
    <contour>
      <point x="443.5" y="503" type="line"/>
      <point x="443.5" y="346" type="line"/>
      <point x="580.5" y="346" type="line"/>
      <point x="580.5" y="503" type="line"/>
    </contour>
  </outline>
</glyph>
<glyph name="less" format="2">
  <advance width="1024"/>
  <unicode hex="003C"/>
  <outline>
    <contour>
      <point x="134" y="652" type="line"/>
      <point x="134" y="569" type="line"/>
      <point x="951" y="946" type="line"/>
      <point x="952" y="1013" type="line"/>
    </contour>
    <contour>
      <point x="134" y="652" type="line"/>
      <point x="134" y="569" type="line"/>
      <point x="950" y="122" type="line"/>
      <point x="946" y="199" type="line"/>
    </contour>
  </outline>
</glyph>
<glyph name="equal" format="2">
  <advance width="1024"/>
  <unicode hex="003D"/>
  <outline>
    <contour>
      <point x="130" y="824" type="line"/>
      <point x="130" y="724" type="line"/>
      <point x="947" y="724" type="line"/>
      <point x="947" y="824" type="line"/>
    </contour>
    <contour>
      <point x="130" y="540" type="line"/>
      <point x="130" y="450" type="line"/>
      <point x="947" y="450" type="line"/>
      <point x="947" y="540" type="line"/>
    </contour>
  </outline>
</glyph>
<glyph name="greater" format="2">
  <advance width="1024"/>
  <unicode hex="003E"/>
  <outline>
    <contour>
      <point x="949" y="632" type="line"/>
      <point x="133" y="1013" type="line"/>
      <point x="132" y="952" type="line"/>
      <point x="949" y="569" type="line"/>
    </contour>
    <contour>
      <point x="949" y="632" type="line"/>
      <point x="131" y="186" type="line"/>
      <point x="135" y="122" type="line"/>
      <point x="949" y="569" type="line"/>
    </contour>
  </outline>
</glyph>
<glyph name="question" format="2">
  <advance width="1024"/>
  <unicode hex="003F"/>
  <outline>
    <contour>
      <point x="368.5" y="134" type="line"/>
      <point x="368.5" y="0" type="line"/>
      <point x="479.5" y="0" type="line"/>
      <point x="479.5" y="134" type="line"/>
    </contour>
    <contour>
      <point x="191.5" y="1519" type="line"/>
      <point x="191.5" y="1426" type="line"/>
      <point x="828.5" y="1426" type="line"/>
      <point x="828.5" y="1519" type="line"/>
    </contour>
    <contour>
      <point x="746.5" y="1514" type="line"/>
      <point x="746.5" y="966" type="line"/>
      <point x="832.5" y="966" type="line"/>
      <point x="832.5" y="1514" type="line"/>
    </contour>
    <contour>
      <point x="368.5" y="1015" type="line"/>
      <point x="368.5" y="948" type="line"/>
      <point x="832.5" y="948" type="line"/>
      <point x="832.5" y="1015" type="line"/>
    </contour>
    <contour>
      <point x="368.5" y="1011" type="line"/>
      <point x="368.5" y="392" type="line"/>
      <point x="464.5" y="392" type="line"/>
      <point x="464.5" y="1011" type="line"/>
    </contour>
  </outline>
</glyph>
<glyph name="at" format="2">
  <advance width="1024"/>
  <unicode hex="0040"/>
  <outline>
    <contour>
      <point x="82.0" y="1023.0" type="line"/>
      <point x="82.0" y="956.0" type="line"/>
      <point x="980.0" y="956.0" type="line"/>
      <point x="980.0" y="1023.0" type="line"/>
    </contour>
    <contour>
      <point x="740.0" y="598.0" type="line"/>
      <point x="740.0" y="0.0" type="line"/>
      <point x="808.0" y="0.0" type="line"/>
      <point x="808.0" y="598.0" type="line"/>
    </contour>
    <contour>
      <point x="320.0" y="601.0" type="line"/>
      <point x="320.0" y="551.0" type="line"/>
      <point x="744.0" y="551.0" type="line"/>
      <point x="744.0" y="601.0" type="line"/>
    </contour>
    <contour>
      <point x="316.0" y="589.0" type="line"/>
      <point x="316.0" y="12.0" type="line"/>
      <point x="370.0" y="12.0" type="line"/>
      <point x="370.0" y="589.0" type="line"/>
    </contour>
    <contour>
      <point x="314.0" y="76.0" type="line"/>
      <point x="314.0" y="0.0" type="line"/>
      <point x="808.0" y="0.0" type="line"/>
      <point x="808.0" y="76.0" type="line"/>
    </contour>
    <contour>
      <point x="28.0" y="1023.0" type="line"/>
      <point x="28.0" y="-223.0" type="line"/>
      <point x="94.0" y="-223.0" type="line"/>
      <point x="94.0" y="1023.0" type="line"/>
    </contour>
    <contour>
      <point x="26.0" y="-179.0" type="line"/>
      <point x="26.0" y="-258.0" type="line"/>
      <point x="974.0" y="-258.0" type="line"/>
      <point x="974.0" y="-179.0" type="line"/>
    </contour>
    <contour>
      <point x="912.0" y="1033.0" type="line"/>
      <point x="912.0" y="0.0" type="line"/>
      <point x="998.0" y="0.0" type="line"/>
      <point x="998.0" y="1033.0" type="line"/>
    </contour>
    <contour>
      <point x="754.0" y="76.0" type="line"/>
      <point x="754.0" y="0.0" type="line"/>
      <point x="944.0" y="0.0" type="line"/>
      <point x="944.0" y="76.0" type="line"/>
    </contour>
  </outline>
</glyph>
<glyph name="A" format="2">
  <advance width="1200"/>
  <unicode hex="0041"/>
  <outline>
    <contour>
      <point x="128" y="16" type="line"/>
      <point x="208" y="16" type="line"/>
      <point x="199" y="1537" type="line"/>
      <point x="116" y="1541" type="line"/>
    </contour>
    <contour>
      <point x="175" y="1443" type="line"/>
      <point x="1077" y="1441" type="line"/>
      <point x="1071" y="1541" type="line"/>
      <point x="175" y="1537" type="line"/>
    </contour>
    <contour>
      <point x="169" y="968" type="line"/>
      <point x="166" y="871" type="line"/>
      <point x="1092" y="875" type="line"/>
      <point x="1092" y="968" type="line"/>
    </contour>
    <contour>
      <point x="1052" y="2" type="line"/>
      <point x="1137" y="5" type="line"/>
      <point x="1135" y="1542" type="line"/>
      <point x="1051" y="1545" type="line"/>
    </contour>
  </outline>
</glyph>
<glyph name="B" format="2">
  <advance width="1200"/>
  <unicode hex="0042"/>
  <outline>
    <contour>
      <point x="169" y="2" type="line"/>
      <point x="236" y="2" type="line"/>
      <point x="218" y="1554" type="line"/>
      <point x="161" y="1555" type="line"/>
    </contour>
    <contour>
      <point x="257" y="1494" type="line"/>
      <point x="1093" y="1025" type="line"/>
      <point x="1096" y="1081" type="line"/>
      <point x="257" y="1552" type="line"/>
    </contour>
    <contour>
      <point x="280" y="961" type="line"/>
      <point x="1092" y="1025" type="line"/>
      <point x="1096" y="1079" type="line"/>
      <point x="280" y="1021" type="line"/>
    </contour>
    <contour>
      <point x="262" y="62" type="line"/>
      <point x="262" y="2" type="line"/>
      <point x="1130" y="434" type="line"/>
      <point x="1130" y="500" type="line"/>
    </contour>
    <contour>
      <point x="268" y="719" type="line"/>
      <point x="1130" y="430" type="line"/>
      <point x="1131" y="501" type="line"/>
      <point x="266" y="781" type="line"/>
    </contour>
    <contour>
      <point x="215" y="1020" type="line"/>
      <point x="215" y="960" type="line"/>
      <point x="280" y="960" type="line"/>
      <point x="280" y="1020" type="line"/>
    </contour>
    <contour>
      <point x="206" y="781" type="line"/>
      <point x="206" y="721" type="line"/>
      <point x="266" y="721" type="line"/>
      <point x="266" y="781" type="line"/>
    </contour>
    <contour>
      <point x="202" y="62" type="line"/>
      <point x="202" y="2" type="line"/>
      <point x="262" y="2" type="line"/>
      <point x="262" y="62" type="line"/>
    </contour>
    <contour>
      <point x="197" y="1554" type="line"/>
      <point x="197" y="1494" type="line"/>
      <point x="257" y="1494" type="line"/>
      <point x="257" y="1554" type="line"/>
    </contour>
  </outline>
</glyph>
<glyph name="C" format="2">
  <advance width="1030"/>
  <unicode hex="0043"/>
  <outline>
    <contour>
      <point x="60" y="1533" type="line"/>
      <point x="153" y="1533" type="line"/>
      <point x="154" y="15" type="line"/>
      <point x="62" y="15" type="line"/>
    </contour>
    <contour>
      <point x="140" y="1531" type="line"/>
      <point x="942" y="1534" type="line"/>
      <point x="944" y="1459" type="line"/>
      <point x="140" y="1458" type="line"/>
    </contour>
    <contour>
      <point x="134" y="79" type="line"/>
      <point x="940" y="75" type="line"/>
      <point x="943" y="6" type="line"/>
      <point x="134" y="8" type="line"/>
    </contour>
  </outline>
</glyph>
<glyph name="D" format="2">
  <advance width="1024"/>
  <unicode hex="0044"/>
  <outline>
    <contour>
      <point x="116" y="1535" type="line"/>
      <point x="128" y="1" type="line"/>
      <point x="238" y="7" type="line"/>
      <point x="238" y="1535" type="line"/>
    </contour>
    <contour>
      <point x="232" y="1532" type="line"/>
      <point x="190" y="1444" type="line"/>
      <point x="944" y="915" type="line"/>
      <point x="935" y="1026" type="line"/>
    </contour>
    <contour>
      <point x="168" y="88" type="line"/>
      <point x="237" y="4" type="line"/>
      <point x="954" y="923" type="line"/>
      <point x="949" y="1025" type="line"/>
    </contour>
  </outline>
</glyph>
<glyph name="E" format="2">
  <advance width="1024"/>
  <unicode hex="0045"/>
  <outline>
    <contour>
      <point x="106.0" y="1550.0" type="line"/>
      <point x="106.0" y="0.0" type="line"/>
      <point x="165.0" y="0.0" type="line"/>
      <point x="165.0" y="1550.0" type="line"/>
    </contour>
    <contour>
      <point x="142.0" y="1553.0" type="line"/>
      <point x="149.0" y="1490.0" type="line"/>
      <point x="903.0" y="1490.0" type="line"/>
      <point x="903.0" y="1553.0" type="line"/>
    </contour>
    <contour>
      <point x="149.0" y="60.0" type="line"/>
      <point x="149.0" y="0.0" type="line"/>
      <point x="918.0" y="0.0" type="line"/>
      <point x="918.0" y="60.0" type="line"/>
    </contour>
    <contour>
      <point x="148.0" y="859.0" type="line"/>
      <point x="148.0" y="798.0" type="line"/>
      <point x="672.0" y="798.0" type="line"/>
      <point x="672.0" y="859.0" type="line"/>
    </contour>
  </outline>
</glyph>
<glyph name="F" format="2">
  <advance width="1024"/>
  <unicode hex="0046"/>
  <outline>
    <contour>
      <point x="105.5" y="1554" type="line"/>
      <point x="105.5" y="3" type="line"/>
      <point x="164.5" y="3" type="line"/>
      <point x="164.5" y="1554" type="line"/>
    </contour>
    <contour>
      <point x="164.5" y="1554" type="line"/>
      <point x="164.5" y="1497" type="line"/>
      <point x="918.5" y="1497" type="line"/>
      <point x="918.5" y="1554" type="line"/>
    </contour>
    <contour>
      <point x="155.5" y="864" type="line"/>
      <point x="155.5" y="806" type="line"/>
      <point x="745.5" y="806" type="line"/>
      <point x="745.5" y="864" type="line"/>
    </contour>
  </outline>
</glyph>
<glyph name="G" format="2">
  <advance width="1024"/>
  <unicode hex="0047"/>
  <outline>
    <contour>
      <point x="110" y="1529" type="line"/>
      <point x="110" y="-4" type="line"/>
      <point x="191" y="-4" type="line"/>
      <point x="191" y="1529" type="line"/>
    </contour>
    <contour>
      <point x="168" y="1529" type="line"/>
      <point x="168" y="1438" type="line"/>
      <point x="868" y="1438" type="line"/>
      <point x="868" y="1529" type="line"/>
    </contour>
    <contour>
      <point x="141" y="98" type="line"/>
      <point x="141" y="0" type="line"/>
      <point x="904" y="0" type="line"/>
      <point x="904" y="98" type="line"/>
    </contour>
    <contour>
      <point x="809" y="561" type="line"/>
      <point x="809" y="18" type="line"/>
      <point x="904" y="18" type="line"/>
      <point x="904" y="561" type="line"/>
    </contour>
  </outline>
</glyph>
<glyph name="H" format="2">
  <advance width="1024"/>
  <unicode hex="0048"/>
  <outline>
    <contour>
      <point x="89" y="1553" type="line"/>
      <point x="89" y="1" type="line"/>
      <point x="148" y="1" type="line"/>
      <point x="148" y="1553" type="line"/>
    </contour>
    <contour>
      <point x="824" y="1554" type="line"/>
      <point x="824" y="1" type="line"/>
      <point x="885" y="1" type="line"/>
      <point x="885" y="1554" type="line"/>
    </contour>
    <contour>
      <point x="131" y="923" type="line"/>
      <point x="131" y="864" type="line"/>
      <point x="848" y="864" type="line"/>
      <point x="848" y="923" type="line"/>
    </contour>
  </outline>
</glyph>
<glyph name="I" format="2">
  <advance width="1024"/>
  <unicode hex="0049"/>
  <outline>
    <contour>
      <point x="154.0" y="1550.0" type="line"/>
      <point x="154.0" y="1489.0" type="line"/>
      <point x="855.0" y="1489.0" type="line"/>
      <point x="855.0" y="1550.0" type="line"/>
    </contour>
    <contour>
      <point x="478.0" y="1515.0" type="line"/>
      <point x="478.0" y="34.0" type="line"/>
      <point x="537.0" y="34.0" type="line"/>
      <point x="537.0" y="1515.0" type="line"/>
    </contour>
    <contour>
      <point x="134.0" y="66.0" type="line"/>
      <point x="134.0" y="6.0" type="line"/>
      <point x="890.0" y="6.0" type="line"/>
      <point x="890.0" y="66.0" type="line"/>
    </contour>
  </outline>
</glyph>
<glyph name="J" format="2">
  <advance width="1024"/>
  <unicode hex="004A"/>
  <outline>
    <contour>
      <point x="778" y="1527" type="line"/>
      <point x="778" y="1" type="line"/>
      <point x="900" y="1" type="line"/>
      <point x="900" y="1527" type="line"/>
    </contour>
    <contour>
      <point x="126" y="134" type="line"/>
      <point x="126" y="0" type="line"/>
      <point x="807" y="0" type="line"/>
      <point x="807" y="134" type="line"/>
    </contour>
    <contour>
      <point x="125" y="503" type="line"/>
      <point x="125" y="54" type="line"/>
      <point x="247" y="52" type="line"/>
      <point x="247" y="503" type="line"/>
    </contour>
  </outline>
</glyph>
<glyph name="K" format="2">
  <advance width="1024"/>
  <unicode hex="004B"/>
  <outline>
    <contour>
      <point x="118" y="1535" type="line"/>
      <point x="118" y="5" type="line"/>
      <point x="204" y="5" type="line"/>
      <point x="204" y="1535" type="line"/>
    </contour>
    <contour>
      <point x="119" y="951" type="line"/>
      <point x="204" y="928" type="line"/>
      <point x="759" y="1538" type="line"/>
      <point x="650" y="1536" type="line"/>
    </contour>
    <contour>
      <point x="204" y="927" type="line"/>
      <point x="156" y="844" type="line"/>
      <point x="748" y="3" type="line"/>
      <point x="847" y="8" type="line"/>
    </contour>
  </outline>
</glyph>
<glyph name="L" format="2">
  <advance width="1024"/>
  <unicode hex="004C"/>
  <outline>
    <contour>
      <point x="128" y="1554" type="line"/>
      <point x="128" y="0" type="line"/>
      <point x="188" y="0" type="line"/>
      <point x="188" y="1554" type="line"/>
    </contour>
    <contour>
      <point x="143" y="61" type="line"/>
      <point x="149" y="0" type="line"/>
      <point x="893" y="0" type="line"/>
      <point x="888" y="61" type="line"/>
    </contour>
  </outline>
</glyph>
<glyph name="M" format="2">
  <advance width="1024"/>
  <unicode hex="004D"/>
  <outline>
    <contour>
      <point x="100.5" y="1554" type="line"/>
      <point x="100.5" y="2" type="line"/>
      <point x="160.5" y="2" type="line"/>
      <point x="160.5" y="1554" type="line"/>
    </contour>
    <contour>
      <point x="862.5" y="1554" type="line"/>
      <point x="862.5" y="-3" type="line"/>
      <point x="923.5" y="-3" type="line"/>
      <point x="923.5" y="1554" type="line"/>
    </contour>
    <contour>
      <point x="100.5" y="1554" type="line"/>
      <point x="475.5" y="1033" type="line"/>
      <point x="544.5" y="1033" type="line"/>
      <point x="160.5" y="1554" type="line"/>
    </contour>
    <contour>
      <point x="862.5" y="1554" type="line"/>
      <point x="476.5" y="1033" type="line"/>
      <point x="544.5" y="1033" type="line"/>
      <point x="923.5" y="1554" type="line"/>
    </contour>
  </outline>
</glyph>
<glyph name="N" format="2">
  <advance width="1024"/>
  <unicode hex="004E"/>
  <outline>
    <contour>
      <point x="97" y="1537" type="line"/>
      <point x="97" y="-1" type="line"/>
      <point x="186" y="0" type="line"/>
      <point x="183" y="1536" type="line"/>
    </contour>
    <contour>
      <point x="849" y="1541" type="line"/>
      <point x="849" y="0" type="line"/>
      <point x="926" y="0" type="line"/>
      <point x="925" y="1541" type="line"/>
    </contour>
    <contour>
      <point x="97" y="1537" type="line"/>
      <point x="849" y="0" type="line"/>
      <point x="926" y="0" type="line"/>
      <point x="186" y="1535" type="line"/>
    </contour>
  </outline>
</glyph>
<glyph name="O" format="2">
  <advance width="1024"/>
  <unicode hex="004F"/>
  <outline>
    <contour>
      <point x="112.0" y="1553.0" type="line"/>
      <point x="112.0" y="0.0" type="line"/>
      <point x="171.0" y="0.0" type="line"/>
      <point x="171.0" y="1553.0" type="line"/>
    </contour>
    <contour>
      <point x="853.0" y="1553.0" type="line"/>
      <point x="853.0" y="0.0" type="line"/>
      <point x="912.0" y="0.0" type="line"/>
      <point x="912.0" y="1553.0" type="line"/>
    </contour>
    <contour>
      <point x="150.0" y="1553.0" type="line"/>
      <point x="150.0" y="1493.0" type="line"/>
      <point x="882.0" y="1493.0" type="line"/>
      <point x="882.0" y="1553.0" type="line"/>
    </contour>
    <contour>
      <point x="152.0" y="61.0" type="line"/>
      <point x="152.0" y="0.0" type="line"/>
      <point x="890.0" y="0.0" type="line"/>
      <point x="890.0" y="61.0" type="line"/>
    </contour>
  </outline>
</glyph>
<glyph name="P" format="2">
  <advance width="1024"/>
  <unicode hex="0050"/>
  <outline>
    <contour>
      <point x="114" y="1535" type="line"/>
      <point x="112" y="-1" type="line"/>
      <point x="173" y="-1" type="line"/>
      <point x="173" y="1535" type="line"/>
    </contour>
    <contour>
      <point x="114" y="1552" type="line"/>
      <point x="114" y="1472" type="line"/>
      <point x="874" y="1472" type="line"/>
      <point x="874" y="1552" type="line"/>
    </contour>
    <contour>
      <point x="813" y="1536" type="line"/>
      <point x="813" y="872" type="line"/>
      <point x="874" y="872" type="line"/>
      <point x="874" y="1536" type="line"/>
    </contour>
    <contour>
      <point x="159" y="927" type="line"/>
      <point x="162" y="866" type="line"/>
      <point x="849" y="871" type="line"/>
      <point x="846" y="931" type="line"/>
    </contour>
  </outline>
</glyph>
<glyph name="Q" format="2">
  <advance width="1024"/>
  <unicode hex="0051"/>
  <outline>
    <contour>
      <point x="110" y="1554" type="line"/>
      <point x="112" y="0" type="line"/>
      <point x="187" y="0" type="line"/>
      <point x="185" y="1554" type="line"/>
    </contour>
    <contour>
      <point x="849" y="1554" type="line"/>
      <point x="849" y="0" type="line"/>
      <point x="911" y="0" type="line"/>
      <point x="911" y="1554" type="line"/>
    </contour>
    <contour>
      <point x="174" y="1554" type="line"/>
      <point x="174" y="1496" type="line"/>
      <point x="861" y="1496" type="line"/>
      <point x="861" y="1554" type="line"/>
    </contour>
    <contour>
      <point x="150" y="62" type="line"/>
      <point x="150" y="0" type="line"/>
      <point x="862" y="0" type="line"/>
      <point x="862" y="62" type="line"/>
    </contour>
    <contour>
      <point x="614" y="13" type="line"/>
      <point x="721" y="-204" type="line"/>
      <point x="782" y="-165" type="line"/>
      <point x="663" y="52" type="line"/>
    </contour>
  </outline>
</glyph>
<glyph name="R" format="2">
  <advance width="1024"/>
  <unicode hex="0052"/>
  <outline>
    <contour>
      <point x="121.5" y="1550" type="line"/>
      <point x="121.5" y="-1" type="line"/>
      <point x="181.5" y="-1" type="line"/>
      <point x="181.5" y="1550" type="line"/>
    </contour>
    <contour>
      <point x="163.5" y="1551" type="line"/>
      <point x="163.5" y="1491" type="line"/>
      <point x="856.5" y="1491" type="line"/>
      <point x="856.5" y="1551" type="line"/>
    </contour>
    <contour>
      <point x="796.5" y="1551" type="line"/>
      <point x="796.5" y="872" type="line"/>
      <point x="883.5" y="872" type="line"/>
      <point x="883.5" y="1551" type="line"/>
    </contour>
    <contour>
      <point x="151.5" y="929" type="line"/>
      <point x="151.5" y="868" type="line"/>
      <point x="871.5" y="868" type="line"/>
      <point x="871.5" y="929" type="line"/>
    </contour>
    <contour>
      <point x="414.5" y="875" type="line"/>
      <point x="845.5" y="1" type="line"/>
      <point x="902.5" y="1" type="line"/>
      <point x="472.5" y="875" type="line"/>
    </contour>
  </outline>
</glyph>
<glyph name="S" format="2">
  <advance width="1024"/>
  <unicode hex="0053"/>
  <outline>
    <contour>
      <point x="146" y="1554" type="line"/>
      <point x="146" y="1494" type="line"/>
      <point x="744" y="1494" type="line"/>
      <point x="744" y="1554" type="line"/>
    </contour>
    <contour>
      <point x="146" y="1542" type="line"/>
      <point x="146" y="1028" type="line"/>
      <point x="205" y="1028" type="line"/>
      <point x="205" y="1542" type="line"/>
    </contour>
    <contour>
      <point x="174" y="60" type="line"/>
      <point x="174" y="0" type="line"/>
      <point x="882" y="0" type="line"/>
      <point x="882" y="60" type="line"/>
    </contour>
    <contour>
      <point x="859" y="0" type="line"/>
      <point x="918" y="0" type="line"/>
      <point x="918" y="355" type="line"/>
      <point x="859" y="355" type="line"/>
    </contour>
    <contour>
      <point x="146" y="1028" type="line"/>
      <point x="859" y="355" type="line"/>
      <point x="918" y="355" type="line"/>
      <point x="205" y="1028" type="line"/>
    </contour>
  </outline>
</glyph>
<glyph name="T" format="2">
  <advance width="1024"/>
  <unicode hex="0054"/>
  <outline>
    <contour>
      <point x="119.5" y="1554" type="line"/>
      <point x="119.5" y="1494" type="line"/>
      <point x="904.5" y="1494" type="line"/>
      <point x="904.5" y="1554" type="line"/>
    </contour>
    <contour>
      <point x="483.5" y="1512" type="line"/>
      <point x="483.5" y="12" type="line"/>
      <point x="542.5" y="12" type="line"/>
      <point x="542.5" y="1512" type="line"/>
    </contour>
  </outline>
</glyph>
<glyph name="U" format="2">
  <advance width="1024"/>
  <unicode hex="0055"/>
  <outline>
    <contour>
      <point x="157" y="1536" type="line"/>
      <point x="157" y="0" type="line"/>
      <point x="252" y="0" type="line"/>
      <point x="254" y="1536" type="line"/>
    </contour>
    <contour>
      <point x="770" y="1535" type="line"/>
      <point x="770" y="0" type="line"/>
      <point x="868" y="0" type="line"/>
      <point x="867" y="1535" type="line"/>
    </contour>
    <contour>
      <point x="204" y="82" type="line"/>
      <point x="205" y="0" type="line"/>
      <point x="824" y="0" type="line"/>
      <point x="824" y="82" type="line"/>
    </contour>
  </outline>
</glyph>
<glyph name="V" format="2">
  <advance width="1024"/>
  <unicode hex="0056"/>
  <outline>
    <contour>
      <point x="106" y="1553" type="line"/>
      <point x="514" y="0" type="line"/>
      <point x="574" y="0" type="line"/>
      <point x="170" y="1553" type="line"/>
    </contour>
    <contour>
      <point x="848" y="1553" type="line"/>
      <point x="514" y="0" type="line"/>
      <point x="574" y="0" type="line"/>
      <point x="918" y="1553" type="line"/>
    </contour>
  </outline>
</glyph>
<glyph name="W" format="2">
  <advance width="1024"/>
  <unicode hex="0057"/>
  <outline>
    <contour>
      <point x="104" y="1546" type="line"/>
      <point x="104" y="0" type="line"/>
      <point x="164" y="0" type="line"/>
      <point x="164" y="1546" type="line"/>
    </contour>
    <contour>
      <point x="862" y="1533" type="line"/>
      <point x="862" y="12" type="line"/>
      <point x="922" y="12" type="line"/>
      <point x="922" y="1533" type="line"/>
    </contour>
    <contour>
      <point x="483" y="1028" type="line"/>
      <point x="484" y="1" type="line"/>
      <point x="542" y="1" type="line"/>
      <point x="543" y="1028" type="line"/>
    </contour>
    <contour>
      <point x="112" y="60" type="line"/>
      <point x="113" y="0" type="line"/>
      <point x="922" y="0" type="line"/>
      <point x="922" y="60" type="line"/>
    </contour>
  </outline>
</glyph>
<glyph name="X" format="2">
  <advance width="1200"/>
  <unicode hex="0058"/>
  <outline>
    <contour>
      <point x="124" y="1554" type="line"/>
      <point x="195" y="1554" type="line"/>
      <point x="1039" y="0" type="line"/>
      <point x="966" y="-2" type="line"/>
    </contour>
    <contour>
      <point x="140" y="0" type="line"/>
      <point x="868" y="1554" type="line"/>
      <point x="943" y="1554" type="line"/>
      <point x="197" y="2" type="line"/>
    </contour>
  </outline>
</glyph>
<glyph name="Y" format="2">
  <advance width="1024"/>
  <unicode hex="0059"/>
  <outline>
    <contour>
      <point x="480.0" y="895.0" type="line"/>
      <point x="480.0" y="0.0" type="line"/>
      <point x="539.0" y="0.0" type="line"/>
      <point x="539.0" y="895.0" type="line"/>
    </contour>
    <contour>
      <point x="171.0" y="1550.0" type="line"/>
      <point x="171.0" y="859.0" type="line"/>
      <point x="232.0" y="859.0" type="line"/>
      <point x="232.0" y="1550.0" type="line"/>
    </contour>
    <contour>
      <point x="793.0" y="1536.0" type="line"/>
      <point x="793.0" y="859.0" type="line"/>
      <point x="853.0" y="859.0" type="line"/>
      <point x="853.0" y="1536.0" type="line"/>
    </contour>
    <contour>
      <point x="217.0" y="919.0" type="line"/>
      <point x="217.0" y="859.0" type="line"/>
      <point x="826.0" y="859.0" type="line"/>
      <point x="826.0" y="919.0" type="line"/>
    </contour>
  </outline>
</glyph>
<glyph name="Z" format="2">
  <advance width="1024"/>
  <unicode hex="005A"/>
  <anchor x="496" y="1646" name="top"/>
  <anchor x="560" y="-46" name="base"/>
  <outline>
    <contour>
      <point x="98" y="1550" type="line"/>
      <point x="98" y="1491" type="line"/>
      <point x="926" y="1491" type="line"/>
      <point x="926" y="1550" type="line"/>
    </contour>
    <contour>
      <point x="99" y="60" type="line"/>
      <point x="99" y="0" type="line"/>
      <point x="926" y="0" type="line"/>
      <point x="926" y="60" type="line"/>
    </contour>
    <contour>
      <point x="866" y="1491" type="line"/>
      <point x="99" y="60" type="line"/>
      <point x="159" y="60" type="line"/>
      <point x="926" y="1491" type="line"/>
    </contour>
  </outline>
</glyph>
<glyph name="bracketleft" format="2">
  <advance width="1024"/>
  <unicode hex="005B"/>
  <outline>
    <contour>
      <point x="378.0" y="1542.0" type="line"/>
      <point x="378.0" y="-242.0" type="line"/>
      <point x="435.0" y="-242.0" type="line"/>
      <point x="435.0" y="1542.0" type="line"/>
    </contour>
    <contour>
      <point x="432.0" y="1543.0" type="line"/>
      <point x="432.0" y="1481.0" type="line"/>
      <point x="641.0" y="1481.0" type="line"/>
      <point x="641.0" y="1543.0" type="line"/>
    </contour>
    <contour>
      <point x="414.0" y="-168.0" type="line"/>
      <point x="414.0" y="-242.0" type="line"/>
      <point x="646.0" y="-242.0" type="line"/>
      <point x="646.0" y="-168.0" type="line"/>
    </contour>
  </outline>
</glyph>
<glyph name="backslash" format="2">
  <advance width="1024"/>
  <unicode hex="005C"/>
  <outline>
    <contour>
      <point x="236" y="1550" type="line"/>
      <point x="792" y="-2" type="line"/>
      <point x="870" y="0" type="line"/>
      <point x="319" y="1551" type="line"/>
    </contour>
  </outline>
</glyph>
<glyph name="bracketright" format="2">
  <advance width="1024"/>
  <unicode hex="005D"/>
  <outline>
    <contour>
      <point x="428" y="1542" type="line"/>
      <point x="430" y="-242" type="line"/>
      <point x="493" y="-242" type="line"/>
      <point x="490" y="1542" type="line"/>
    </contour>
    <contour>
      <point x="216" y="1543" type="line"/>
      <point x="216" y="1478" type="line"/>
      <point x="444" y="1478" type="line"/>
      <point x="444" y="1543" type="line"/>
    </contour>
    <contour>
      <point x="216" y="-165" type="line"/>
      <point x="216" y="-242" type="line"/>
      <point x="455" y="-242" type="line"/>
      <point x="455" y="-165" type="line"/>
    </contour>
  </outline>
</glyph>
<glyph name="asciicircum" format="2">
  <advance width="1024"/>
  <unicode hex="005E"/>
  <outline>
    <contour>
      <point x="530" y="1027" type="line"/>
      <point x="458" y="1025" type="line"/>
      <point x="193" y="407" type="line"/>
      <point x="248" y="373" type="line"/>
    </contour>
    <contour>
      <point x="464" y="1023" type="line"/>
      <point x="787" y="364" type="line"/>
      <point x="870" y="400" type="line"/>
      <point x="537" y="1030" type="line"/>
    </contour>
  </outline>
</glyph>
<glyph name="grave" format="2">
  <advance width="1024"/>
  <unicode hex="0060"/>
  <outline>
    <contour>
      <point x="426" y="1286" type="line"/>
      <point x="510" y="1057" type="line"/>
      <point x="556" y="1081" type="line"/>
      <point x="464" y="1309" type="line"/>
    </contour>
  </outline>
</glyph>
<glyph name="a" format="2">
  <advance width="1024"/>
  <unicode hex="0061"/>
  <outline>
    <contour>
      <point x="180" y="1021" type="line"/>
      <point x="180" y="955" type="line"/>
      <point x="833" y="957" type="line"/>
      <point x="829" y="1024" type="line"/>
    </contour>
    <contour>
      <point x="791" y="1025" type="line"/>
      <point x="812" y="1" type="line"/>
      <point x="872" y="1" type="line"/>
      <point x="868" y="1025" type="line"/>
    </contour>
    <contour>
      <point x="183" y="602" type="line"/>
      <point x="187" y="539" type="line"/>
      <point x="811" y="538" type="line"/>
      <point x="807" y="600" type="line"/>
    </contour>
    <contour>
      <point x="184" y="575" type="line"/>
      <point x="184" y="-2" type="line"/>
      <point x="270" y="-1" type="line"/>
      <point x="255" y="577" type="line"/>
    </contour>
    <contour>
      <point x="193" y="64" type="line"/>
      <point x="192" y="-2" type="line"/>
      <point x="857" y="-1" type="line"/>
      <point x="857" y="74" type="line"/>
    </contour>
  </outline>
</glyph>
<glyph name="b" format="2">
  <advance width="1024"/>
  <unicode hex="0062"/>
  <outline>
    <contour>
      <point x="135.0" y="1536.0" type="line"/>
      <point x="135.0" y="0.0" type="line"/>
      <point x="195.0" y="0.0" type="line"/>
      <point x="195.0" y="1536.0" type="line"/>
    </contour>
    <contour>
      <point x="178.0" y="1033.0" type="line"/>
      <point x="178.0" y="972.0" type="line"/>
      <point x="842.0" y="972.0" type="line"/>
      <point x="842.0" y="1033.0" type="line"/>
    </contour>
    <contour>
      <point x="829.0" y="1033.0" type="line"/>
      <point x="829.0" y="0.0" type="line"/>
      <point x="889.0" y="0.0" type="line"/>
      <point x="889.0" y="1033.0" type="line"/>
    </contour>
    <contour>
      <point x="170.0" y="60.0" type="line"/>
      <point x="170.0" y="0.0" type="line"/>
      <point x="867.0" y="0.0" type="line"/>
      <point x="867.0" y="60.0" type="line"/>
    </contour>
  </outline>
</glyph>
<glyph name="c" format="2">
  <advance width="1024"/>
  <unicode hex="0063"/>
  <outline>
    <contour>
      <point x="163.5" y="1027" type="line"/>
      <point x="163.5" y="967" type="line"/>
      <point x="860.5" y="967" type="line"/>
      <point x="860.5" y="1027" type="line"/>
    </contour>
    <contour>
      <point x="166.5" y="984" type="line"/>
      <point x="166.5" y="0" type="line"/>
      <point x="226.5" y="0" type="line"/>
      <point x="226.5" y="984" type="line"/>
    </contour>
    <contour>
      <point x="214.5" y="60" type="line"/>
      <point x="214.5" y="0" type="line"/>
      <point x="854.5" y="0" type="line"/>
      <point x="854.5" y="60" type="line"/>
    </contour>
  </outline>
</glyph>
<glyph name="d" format="2">
  <advance width="1024"/>
  <unicode hex="0064"/>
  <outline>
    <contour>
      <point x="832.5" y="1527" type="line"/>
      <point x="832.5" y="-1" type="line"/>
      <point x="892.5" y="-1" type="line"/>
      <point x="892.5" y="1527" type="line"/>
    </contour>
    <contour>
      <point x="176.5" y="1026" type="line"/>
      <point x="176.5" y="966" type="line"/>
      <point x="865.5" y="966" type="line"/>
      <point x="865.5" y="1026" type="line"/>
    </contour>
    <contour>
      <point x="131.5" y="1024" type="line"/>
      <point x="131.5" y="1" type="line"/>
      <point x="192.5" y="1" type="line"/>
      <point x="192.5" y="1024" type="line"/>
    </contour>
    <contour>
      <point x="172.5" y="59" type="line"/>
      <point x="172.5" y="-4" type="line"/>
      <point x="844.5" y="-4" type="line"/>
      <point x="844.5" y="59" type="line"/>
    </contour>
  </outline>
</glyph>
<glyph name="e" format="2">
  <advance width="1024"/>
  <unicode hex="0065"/>
  <outline>
    <contour>
      <point x="218.0" y="1023.0" type="line"/>
      <point x="204.0" y="972.0" type="line"/>
      <point x="843.0" y="972.0" type="line"/>
      <point x="857.0" y="1023.0" type="line"/>
    </contour>
    <contour>
      <point x="166.0" y="1023.0" type="line"/>
      <point x="166.0" y="0.0" type="line"/>
      <point x="224.0" y="0.0" type="line"/>
      <point x="224.0" y="1023.0" type="line"/>
    </contour>
    <contour>
      <point x="208.0" y="61.0" type="line"/>
      <point x="208.0" y="0.0" type="line"/>
      <point x="853.0" y="0.0" type="line"/>
      <point x="853.0" y="61.0" type="line"/>
    </contour>
    <contour>
      <point x="187.0" y="506.0" type="line"/>
      <point x="195.0" y="446.0" type="line"/>
      <point x="824.0" y="446.0" type="line"/>
      <point x="824.0" y="506.0" type="line"/>
    </contour>
    <contour>
      <point x="799.0" y="1023.0" type="line"/>
      <point x="799.0" y="445.0" type="line"/>
      <point x="858.0" y="445.0" type="line"/>
      <point x="858.0" y="1023.0" type="line"/>
    </contour>
  </outline>
</glyph>
<glyph name="f" format="2">
  <advance width="1024"/>
  <unicode hex="0066"/>
  <outline>
    <contour>
      <point x="419" y="1013" type="line"/>
      <point x="419" y="-430" type="line"/>
      <point x="547" y="-407" type="line"/>
      <point x="547" y="1032" type="line"/>
    </contour>
    <contour>
      <point x="476" y="1031" type="line"/>
      <point x="476" y="876" type="line"/>
      <point x="876" y="876" type="line"/>
      <point x="876" y="1031" type="line"/>
    </contour>
    <contour>
      <point x="269" y="551" type="line"/>
      <point x="269" y="402" type="line"/>
      <point x="748" y="402" type="line"/>
      <point x="748" y="551" type="line"/>
    </contour>
  </outline>
</glyph>
<glyph name="g" format="2">
  <advance width="1024"/>
  <unicode hex="0067"/>
  <outline>
    <contour>
      <point x="297" y="1023" type="line"/>
      <point x="297" y="0" type="line"/>
      <point x="357" y="0" type="line"/>
      <point x="357" y="1023" type="line"/>
    </contour>
    <contour>
      <point x="337" y="1021" type="line"/>
      <point x="337" y="962" type="line"/>
      <point x="853" y="962" type="line"/>
      <point x="853" y="1021" type="line"/>
    </contour>
    <contour>
      <point x="815" y="1024" type="line"/>
      <point x="815" y="-411" type="line"/>
      <point x="875" y="-411" type="line"/>
      <point x="875" y="1024" type="line"/>
    </contour>
    <contour>
      <point x="360" y="58" type="line"/>
      <point x="360" y="-1" type="line"/>
      <point x="817" y="-1" type="line"/>
      <point x="817" y="58" type="line"/>
    </contour>
    <contour>
      <point x="337" y="-354" type="line"/>
      <point x="337" y="-413" type="line"/>
      <point x="826" y="-413" type="line"/>
      <point x="826" y="-354" type="line"/>
    </contour>
  </outline>
</glyph>
<glyph name="h" format="2">
  <advance width="1024"/>
  <unicode hex="0068"/>
  <outline>
    <contour>
      <point x="174.0" y="1525.0" type="line"/>
      <point x="174.0" y="6.0" type="line"/>
      <point x="233.0" y="6.0" type="line"/>
      <point x="233.0" y="1525.0" type="line"/>
    </contour>
    <contour>
      <point x="214.0" y="1028.0" type="line"/>
      <point x="214.0" y="968.0" type="line"/>
      <point x="803.0" y="968.0" type="line"/>
      <point x="803.0" y="1028.0" type="line"/>
    </contour>
    <contour>
      <point x="791.0" y="1028.0" type="line"/>
      <point x="791.0" y="0.0" type="line"/>
      <point x="850.0" y="0.0" type="line"/>
      <point x="850.0" y="1028.0" type="line"/>
    </contour>
  </outline>
</glyph>
<glyph name="i" format="2">
  <advance width="1024"/>
  <unicode hex="0069"/>
  <outline>
    <contour>
      <point x="546" y="1022" type="line"/>
      <point x="546" y="52" type="line"/>
      <point x="606" y="52" type="line"/>
      <point x="606" y="1022" type="line"/>
    </contour>
    <contour>
      <point x="177" y="60" type="line"/>
      <point x="177" y="1" type="line"/>
      <point x="919" y="1" type="line"/>
      <point x="919" y="60" type="line"/>
    </contour>
    <contour>
      <point x="360" y="1292" type="line"/>
      <point x="360" y="1174" type="line"/>
      <point x="473" y="1174" type="line"/>
      <point x="473" y="1292" type="line"/>
    </contour>
    <contour>
      <point x="227" y="1022" type="line"/>
      <point x="227" y="962" type="line"/>
      <point x="563" y="962" type="line"/>
      <point x="563" y="1022" type="line"/>
    </contour>
  </outline>
</glyph>
<glyph name="j" format="2">
  <advance width="1024"/>
  <unicode hex="006A"/>
  <outline>
    <contour>
      <point x="767.5" y="1024" type="line"/>
      <point x="767.5" y="-411" type="line"/>
      <point x="826.5" y="-411" type="line"/>
      <point x="826.5" y="1024" type="line"/>
    </contour>
    <contour>
      <point x="197.5" y="-348" type="line"/>
      <point x="197.5" y="-409" type="line"/>
      <point x="787.5" y="-409" type="line"/>
      <point x="787.5" y="-348" type="line"/>
    </contour>
    <contour>
      <point x="198.5" y="-6" type="line"/>
      <point x="198.5" y="-378" type="line"/>
      <point x="258.5" y="-378" type="line"/>
      <point x="258.5" y="-6" type="line"/>
    </contour>
    <contour>
      <point x="766.5" y="1201" type="line"/>
      <point x="766.5" y="1142" type="line"/>
      <point x="825.5" y="1142" type="line"/>
      <point x="825.5" y="1201" type="line"/>
    </contour>
  </outline>
</glyph>
<glyph name="k" format="2">
  <advance width="1024"/>
  <unicode hex="006B"/>
  <outline>
    <contour>
      <point x="118" y="1535" type="line"/>
      <point x="118" y="5" type="line"/>
      <point x="199" y="5" type="line"/>
      <point x="199" y="1535" type="line"/>
    </contour>
    <contour>
      <point x="167" y="421" type="line"/>
      <point x="178" y="298" type="line"/>
      <point x="865" y="1023" type="line"/>
      <point x="767" y="1023" type="line"/>
    </contour>
    <contour>
      <point x="424" y="631" type="line"/>
      <point x="372" y="569" type="line"/>
      <point x="904" y="-6" type="line"/>
      <point x="992" y="0" type="line"/>
    </contour>
  </outline>
</glyph>
<glyph name="l" format="2">
  <advance width="1024"/>
  <unicode hex="006C"/>
  <outline>
    <contour>
      <point x="195" y="72" type="line"/>
      <point x="195" y="1" type="line"/>
      <point x="829" y="1" type="line"/>
      <point x="829" y="72" type="line"/>
    </contour>
    <contour>
      <point x="482" y="1553" type="line"/>
      <point x="482" y="57" type="line"/>
      <point x="542" y="57" type="line"/>
      <point x="542" y="1553" type="line"/>
    </contour>
    <contour>
      <point x="256" y="1553" type="line"/>
      <point x="256" y="1494" type="line"/>
      <point x="491" y="1494" type="line"/>
      <point x="491" y="1553" type="line"/>
    </contour>
  </outline>
</glyph>
<glyph name="m" format="2">
  <advance width="1024"/>
  <unicode hex="006D"/>
  <outline>
    <contour>
      <point x="110" y="993" type="line"/>
      <point x="110" y="1" type="line"/>
      <point x="170" y="1" type="line"/>
      <point x="170" y="993" type="line"/>
    </contour>
    <contour>
      <point x="494" y="972" type="line"/>
      <point x="494" y="-2" type="line"/>
      <point x="554" y="-2" type="line"/>
      <point x="554" y="972" type="line"/>
    </contour>
    <contour>
      <point x="879" y="976" type="line"/>
      <point x="879" y="1" type="line"/>
      <point x="940" y="1" type="line"/>
      <point x="940" y="976" type="line"/>
    </contour>
    <contour>
      <point x="35" y="1025" type="line"/>
      <point x="36" y="965" type="line"/>
      <point x="940" y="966" type="line"/>
      <point x="940" y="1024" type="line"/>
    </contour>
  </outline>
</glyph>
<glyph name="n" format="2">
  <advance width="1024"/>
  <unicode hex="006E"/>
  <outline>
    <contour>
      <point x="340" y="990" type="line"/>
      <point x="340" y="-2" type="line"/>
      <point x="412" y="-2" type="line"/>
      <point x="412" y="990" type="line"/>
    </contour>
    <contour>
      <point x="883" y="976" type="line"/>
      <point x="883" y="1" type="line"/>
      <point x="940" y="1" type="line"/>
      <point x="940" y="976" type="line"/>
    </contour>
    <contour>
      <point x="161" y="1025" type="line"/>
      <point x="162" y="960" type="line"/>
      <point x="940" y="962" type="line"/>
      <point x="939" y="1027" type="line"/>
    </contour>
  </outline>
</glyph>
<glyph name="o" format="2">
  <advance width="1024"/>
  <unicode hex="006F"/>
  <outline>
    <contour>
      <point x="107" y="1024" type="line"/>
      <point x="106" y="0" type="line"/>
      <point x="213" y="0" type="line"/>
      <point x="212" y="1022" type="line"/>
    </contour>
    <contour>
      <point x="831" y="1024" type="line"/>
      <point x="831" y="0" type="line"/>
      <point x="925" y="0" type="line"/>
      <point x="925" y="1024" type="line"/>
    </contour>
    <contour>
      <point x="168" y="1026" type="line"/>
      <point x="168" y="928" type="line"/>
      <point x="868" y="928" type="line"/>
      <point x="869" y="1027" type="line"/>
    </contour>
    <contour>
      <point x="153" y="78" type="line"/>
      <point x="154" y="0" type="line"/>
      <point x="876" y="0" type="line"/>
      <point x="872" y="84" type="line"/>
    </contour>
  </outline>
</glyph>
<glyph name="p" format="2">
  <advance width="1024"/>
  <unicode hex="0070"/>
  <outline>
    <contour>
      <point x="173" y="1023" type="line"/>
      <point x="173" y="-406" type="line"/>
      <point x="243" y="-406" type="line"/>
      <point x="243" y="1023" type="line"/>
    </contour>
    <contour>
      <point x="224" y="832" type="line"/>
      <point x="224" y="773" type="line"/>
      <point x="812" y="774" type="line"/>
      <point x="810" y="832" type="line"/>
    </contour>
    <contour>
      <point x="219" y="172" type="line"/>
      <point x="222" y="104" type="line"/>
      <point x="818" y="104" type="line"/>
      <point x="815" y="172" type="line"/>
    </contour>
    <contour>
      <point x="757" y="803" type="line"/>
      <point x="757" y="138" type="line"/>
      <point x="816" y="138" type="line"/>
      <point x="812" y="802" type="line"/>
    </contour>
  </outline>
</glyph>
<glyph name="q" format="2">
  <advance width="1024"/>
  <unicode hex="0071"/>
  <outline>
    <contour>
      <point x="749.5" y="1188" type="line"/>
      <point x="749.5" y="-410" type="line"/>
      <point x="809.5" y="-410" type="line"/>
      <point x="809.5" y="1188" type="line"/>
    </contour>
    <contour>
      <point x="145.5" y="1025" type="line"/>
      <point x="145.5" y="961" type="line"/>
      <point x="794.5" y="961" type="line"/>
      <point x="794.5" y="1025" type="line"/>
    </contour>
    <contour>
      <point x="151.5" y="57" type="line"/>
      <point x="151.5" y="0" type="line"/>
      <point x="767.5" y="0" type="line"/>
      <point x="767.5" y="57" type="line"/>
    </contour>
    <contour>
      <point x="137.5" y="1025" type="line"/>
      <point x="137.5" y="0" type="line"/>
      <point x="196.5" y="0" type="line"/>
      <point x="196.5" y="1025" type="line"/>
    </contour>
    <contour>
      <point x="753.5" y="-344" type="line"/>
      <point x="753.5" y="-410" type="line"/>
      <point x="886.5" y="-410" type="line"/>
      <point x="886.5" y="-344" type="line"/>
    </contour>
  </outline>
</glyph>
<glyph name="r" format="2">
  <advance width="1024"/>
  <unicode hex="0072"/>
  <outline>
    <contour>
      <point x="165" y="1013" type="line"/>
      <point x="165" y="926" type="line"/>
      <point x="898" y="926" type="line"/>
      <point x="898" y="1013" type="line"/>
    </contour>
    <contour>
      <point x="380" y="954" type="line"/>
      <point x="380" y="-2" type="line"/>
      <point x="477" y="-2" type="line"/>
      <point x="477" y="954" type="line"/>
    </contour>
    <contour>
      <point x="807" y="976" type="line"/>
      <point x="807" y="650" type="line"/>
      <point x="898" y="650" type="line"/>
      <point x="898" y="976" type="line"/>
    </contour>
  </outline>
</glyph>
<glyph name="s" format="2">
  <advance width="1024"/>
  <unicode hex="0073"/>
  <outline>
    <contour>
      <point x="186" y="1024" type="line"/>
      <point x="187" y="964" type="line"/>
      <point x="796" y="964" type="line"/>
      <point x="795" y="1024" type="line"/>
    </contour>
    <contour>
      <point x="186" y="1024" type="line"/>
      <point x="186" y="736" type="line"/>
      <point x="247" y="736" type="line"/>
      <point x="247" y="1024" type="line"/>
    </contour>
    <contour>
      <point x="187" y="59" type="line"/>
      <point x="186" y="0" type="line"/>
      <point x="793" y="0" type="line"/>
      <point x="792" y="59" type="line"/>
    </contour>
    <contour>
      <point x="730" y="299" type="line"/>
      <point x="730" y="12" type="line"/>
      <point x="793" y="12" type="line"/>
      <point x="793" y="299" type="line"/>
    </contour>
    <contour>
      <point x="186" y="736" type="line"/>
      <point x="730" y="299" type="line"/>
      <point x="793" y="299" type="line"/>
      <point x="247" y="736" type="line"/>
    </contour>
  </outline>
</glyph>
<glyph name="t" format="2">
  <advance width="1024"/>
  <unicode hex="0074"/>
  <outline>
    <contour>
      <point x="482" y="1529" type="line"/>
      <point x="482" y="0" type="line"/>
      <point x="543" y="0" type="line"/>
      <point x="543" y="1529" type="line"/>
    </contour>
    <contour>
      <point x="495" y="60" type="line"/>
      <point x="495" y="0" type="line"/>
      <point x="886" y="0" type="line"/>
      <point x="886" y="60" type="line"/>
    </contour>
    <contour>
      <point x="175" y="1025" type="line"/>
      <point x="176" y="965" type="line"/>
      <point x="850" y="965" type="line"/>
      <point x="849" y="1025" type="line"/>
    </contour>
  </outline>
</glyph>
<glyph name="u" format="2">
  <advance width="1024"/>
  <unicode hex="0075"/>
  <outline>
    <contour>
      <point x="197" y="1034" type="line"/>
      <point x="197" y="0" type="line"/>
      <point x="256" y="0" type="line"/>
      <point x="257" y="1034" type="line"/>
    </contour>
    <contour>
      <point x="771" y="1033" type="line"/>
      <point x="771" y="4" type="line"/>
      <point x="830" y="4" type="line"/>
      <point x="830" y="1033" type="line"/>
    </contour>
    <contour>
      <point x="244" y="61" type="line"/>
      <point x="245" y="0" type="line"/>
      <point x="946" y="0" type="line"/>
      <point x="946" y="61" type="line"/>
    </contour>
  </outline>
</glyph>
<glyph name="v" format="2">
  <advance width="1024"/>
  <unicode hex="0076"/>
  <outline>
    <contour>
      <point x="165" y="1021" type="line"/>
      <point x="477" y="0" type="line"/>
      <point x="573" y="0" type="line"/>
      <point x="270" y="1027" type="line"/>
    </contour>
    <contour>
      <point x="725" y="1025" type="line"/>
      <point x="477" y="1" type="line"/>
      <point x="570" y="-2" type="line"/>
      <point x="827" y="1021" type="line"/>
    </contour>
  </outline>
</glyph>
<glyph name="w" format="2">
  <advance width="1024"/>
  <unicode hex="0077"/>
  <outline>
    <contour>
      <point x="104" y="1023" type="line"/>
      <point x="104" y="1" type="line"/>
      <point x="190" y="0" type="line"/>
      <point x="190" y="1023" type="line"/>
    </contour>
    <contour>
      <point x="828" y="1028" type="line"/>
      <point x="828" y="12" type="line"/>
      <point x="922" y="12" type="line"/>
      <point x="922" y="1028" type="line"/>
    </contour>
    <contour>
      <point x="480" y="610" type="line"/>
      <point x="480" y="1" type="line"/>
      <point x="560" y="1" type="line"/>
      <point x="560" y="610" type="line"/>
    </contour>
    <contour>
      <point x="103" y="112" type="line"/>
      <point x="105" y="0" type="line"/>
      <point x="922" y="0" type="line"/>
      <point x="922" y="112" type="line"/>
    </contour>
  </outline>
</glyph>
<glyph name="x" format="2">
  <advance width="1200"/>
  <unicode hex="0078"/>
  <outline>
    <contour>
      <point x="92" y="0" type="line"/>
      <point x="1041" y="1024" type="line"/>
      <point x="1101" y="1024" type="line"/>
      <point x="154" y="2" type="line"/>
    </contour>
    <contour>
      <point x="99" y="1024" type="line"/>
      <point x="159" y="1024" type="line"/>
      <point x="1111" y="-3" type="line"/>
      <point x="1048" y="0" type="line"/>
    </contour>
  </outline>
</glyph>
<glyph name="y" format="2">
  <advance width="1024"/>
  <unicode hex="0079"/>
  <outline>
    <contour>
      <point x="806" y="1023" type="line"/>
      <point x="806" y="-410" type="line"/>
      <point x="880" y="-410" type="line"/>
      <point x="880" y="1023" type="line"/>
    </contour>
    <contour>
      <point x="150" y="-322" type="line"/>
      <point x="150" y="-410" type="line"/>
      <point x="867" y="-410" type="line"/>
      <point x="867" y="-322" type="line"/>
    </contour>
    <contour>
      <point x="150" y="1023" type="line"/>
      <point x="150" y="264" type="line"/>
      <point x="241" y="264" type="line"/>
      <point x="241" y="1023" type="line"/>
    </contour>
    <contour>
      <point x="150" y="353" type="line"/>
      <point x="150" y="264" type="line"/>
      <point x="840" y="264" type="line"/>
      <point x="840" y="353" type="line"/>
    </contour>
  </outline>
</glyph>
<glyph name="z" format="2">
  <advance width="1024"/>
  <unicode hex="007A"/>
  <outline>
    <contour>
      <point x="98" y="1018" type="line"/>
      <point x="98" y="931" type="line"/>
      <point x="926" y="931" type="line"/>
      <point x="926" y="1018" type="line"/>
    </contour>
    <contour>
      <point x="98" y="94" type="line"/>
      <point x="98" y="4" type="line"/>
      <point x="926" y="4" type="line"/>
      <point x="926" y="94" type="line"/>
    </contour>
    <contour>
      <point x="831" y="931" type="line"/>
      <point x="95" y="92" type="line"/>
      <point x="192" y="93" type="line"/>
      <point x="926" y="931" type="line"/>
    </contour>
  </outline>
</glyph>
<glyph name="braceleft" format="2">
  <advance width="1024"/>
  <unicode hex="007B"/>
  <outline>
    <contour>
      <point x="421" y="1460" type="line"/>
      <point x="421" y="838" type="line"/>
      <point x="495" y="838" type="line"/>
      <point x="495" y="1460" type="line"/>
    </contour>
    <contour>
      <point x="433" y="424" type="line"/>
      <point x="433" y="-161" type="line"/>
      <point x="519" y="-161" type="line"/>
      <point x="519" y="424" type="line"/>
    </contour>
    <contour>
      <point x="132" y="690" type="line"/>
      <point x="132" y="630" type="line"/>
      <point x="497" y="836" type="line"/>
      <point x="421" y="838" type="line"/>
    </contour>
    <contour>
      <point x="132" y="690" type="line"/>
      <point x="132" y="630" type="line"/>
      <point x="431" y="423" type="line"/>
      <point x="517" y="425" type="line"/>
    </contour>
    <contour>
      <point x="441" y="1463" type="line"/>
      <point x="447" y="1389" type="line"/>
      <point x="697" y="1431" type="line"/>
      <point x="701" y="1460" type="line"/>
    </contour>
    <contour>
      <point x="439" y="-79" type="line"/>
      <point x="433" y="-160" type="line"/>
      <point x="708" y="-163" type="line"/>
      <point x="709" y="-150" type="line"/>
    </contour>
  </outline>
</glyph>
<glyph name="bar" format="2">
	<unicode hex="007C"/>
	<advance width="1024"/>
	<outline>
		<contour>
			<point x="472" y="1435" type="line"/>
			<point x="472" y="-90" type="line"/>
			<point x="552" y="-90" type="line"/>
			<point x="552" y="1435" type="line"/>
		</contour>
	</outline>
</glyph>
<glyph name="braceright" format="2">
  <advance width="1024"/>
  <unicode hex="007D"/>
  <outline>
    <contour>
      <point x="420" y="1460" type="line"/>
      <point x="349" y="1460" type="line"/>
      <point x="349" y="838" type="line"/>
      <point x="420" y="838" type="line"/>
    </contour>
    <contour>
      <point x="408" y="424" type="line"/>
      <point x="346" y="424" type="line"/>
      <point x="346" y="-161" type="line"/>
      <point x="408" y="-161" type="line"/>
    </contour>
    <contour>
      <point x="709" y="690" type="line"/>
      <point x="420" y="838" type="line"/>
      <point x="349" y="835" type="line"/>
      <point x="709" y="630" type="line"/>
    </contour>
    <contour>
      <point x="709" y="690" type="line"/>
      <point x="345" y="425" type="line"/>
      <point x="410" y="423" type="line"/>
      <point x="709" y="630" type="line"/>
    </contour>
    <contour>
      <point x="412" y="1460" type="line"/>
      <point x="140" y="1460" type="line"/>
      <point x="144" y="1431" type="line"/>
      <point x="415" y="1373" type="line"/>
    </contour>
    <contour>
      <point x="411" y="-83" type="line"/>
      <point x="132" y="-150" type="line"/>
      <point x="133" y="-163" type="line"/>
      <point x="408" y="-160" type="line"/>
    </contour>
  </outline>
</glyph>
<glyph name="asciitilde" format="2">
  <advance width="1024"/>
  <unicode hex="007E"/>
  <outline>
    <contour>
      <point x="366.0" y="766.0" type="line"/>
      <point x="366.0" y="716.0" type="line"/>
      <point x="716.0" y="645.0" type="line"/>
      <point x="716.0" y="695.0" type="line"/>
    </contour>
    <contour>
      <point x="126.0" y="710.0" type="line"/>
      <point x="140.0" y="652.0" type="line"/>
      <point x="366.0" y="716.0" type="line"/>
      <point x="366.0" y="766.0" type="line"/>
    </contour>
    <contour>
      <point x="716.0" y="695.0" type="line"/>
      <point x="716.0" y="645.0" type="line"/>
      <point x="898.0" y="796.0" type="line"/>
      <point x="884.0" y="843.0" type="line"/>
    </contour>
  </outline>
</glyph>
<glyph name="exclamdown" format="2">
  <advance width="1024"/>
  <unicode hex="00A1"/>
  <outline>
    <contour>
      <point x="542" y="1520" type="line"/>
      <point x="482" y="1520" type="line"/>
      <point x="482" y="1272" type="line"/>
      <point x="542" y="1272" type="line"/>
    </contour>
    <contour>
      <point x="538" y="1035" type="line"/>
      <point x="484" y="1035" type="line"/>
      <point x="488" y="17" type="line"/>
      <point x="542" y="17" type="line"/>
    </contour>
  </outline>
</glyph>
<glyph name="cent" format="2">
  <advance width="1024"/>
  <unicode hex="00A2"/>
  <outline>
    <contour>
      <point x="604.0" y="1183.0" type="line"/>
      <point x="544.0" y="1183.0" type="line"/>
      <point x="544.0" y="-86.0" type="line"/>
      <point x="604.0" y="-86.0" type="line"/>
    </contour>
    <contour>
      <point x="164.0" y="1023.0" type="line"/>
      <point x="164.0" y="966.0" type="line"/>
      <point x="860.0" y="966.0" type="line"/>
      <point x="860.0" y="1023.0" type="line"/>
    </contour>
    <contour>
      <point x="166.0" y="984.0" type="line"/>
      <point x="166.0" y="0.0" type="line"/>
      <point x="231.0" y="0.0" type="line"/>
      <point x="231.0" y="984.0" type="line"/>
    </contour>
    <contour>
      <point x="215.0" y="61.0" type="line"/>
      <point x="215.0" y="0.0" type="line"/>
      <point x="854.0" y="0.0" type="line"/>
      <point x="854.0" y="61.0" type="line"/>
    </contour>
  </outline>
</glyph>
<glyph name="sterling" format="2">
	<unicode hex="00A3"/>
	<advance width="1024"/>
	<outline>
		<contour>
			<point x="435" y="1543" type="line"/>
			<point x="435" y="1482" type="line"/>
			<point x="624" y="1482" type="line"/>
			<point x="624" y="1543" type="line"/>
		</contour>
		<contour>
			<point x="97" y="770" type="line"/>
			<point x="97" y="705" type="line"/>
			<point x="823" y="705" type="line"/>
			<point x="823" y="770" type="line"/>
		</contour>
		<contour>
			<point x="411" y="1542" type="line"/>
			<point x="411" y="0" type="line"/>
			<point x="487" y="0" type="line"/>
			<point x="487" y="1542" type="line"/>
		</contour>
		<contour>
			<point x="201" y="72" type="line"/>
			<point x="201" y="0" type="line"/>
			<point x="927" y="0" type="line"/>
			<point x="927" y="72" type="line"/>
		</contour>
	</outline>
</glyph>
<glyph name="currency" format="2">
  <advance width="1024"/>
  <unicode hex="00A4"/>
  <outline>
    <contour>
      <point x="98.5" y="1182" type="line"/>
      <point x="98.5" y="160" type="line"/>
      <point x="157.5" y="160" type="line"/>
      <point x="157.5" y="1182" type="line"/>
    </contour>
    <contour>
      <point x="855.5" y="1184" type="line"/>
      <point x="855.5" y="160" type="line"/>
      <point x="916.5" y="160" type="line"/>
      <point x="916.5" y="1184" type="line"/>
    </contour>
    <contour>
      <point x="159.5" y="1187" type="line"/>
      <point x="159.5" y="1127" type="line"/>
      <point x="860.5" y="1127" type="line"/>
      <point x="860.5" y="1187" type="line"/>
    </contour>
    <contour>
      <point x="144.5" y="222" type="line"/>
      <point x="144.5" y="160" type="line"/>
      <point x="863.5" y="160" type="line"/>
      <point x="863.5" y="222" type="line"/>
    </contour>
    <contour>
      <point x="24.5" y="1251" type="line"/>
      <point x="24.5" y="1137" type="line"/>
      <point x="167.5" y="1137" type="line"/>
      <point x="167.5" y="1251" type="line"/>
    </contour>
    <contour>
      <point x="859.5" y="1241" type="line"/>
      <point x="859.5" y="1127" type="line"/>
      <point x="1002.5" y="1127" type="line"/>
      <point x="1002.5" y="1241" type="line"/>
    </contour>
    <contour>
      <point x="18.5" y="223" type="line"/>
      <point x="18.5" y="109" type="line"/>
      <point x="161.5" y="109" type="line"/>
      <point x="161.5" y="223" type="line"/>
    </contour>
    <contour>
      <point x="862.5" y="220" type="line"/>
      <point x="862.5" y="106" type="line"/>
      <point x="1005.5" y="106" type="line"/>
      <point x="1005.5" y="220" type="line"/>
    </contour>
  </outline>
</glyph>
<glyph name="yen" format="2">
  <advance width="1024"/>
  <unicode hex="00A5"/>
  <outline>
    <contour>
      <point x="228.0" y="673.0" type="line"/>
      <point x="228.0" y="615.0" type="line"/>
      <point x="774.0" y="615.0" type="line"/>
      <point x="774.0" y="673.0" type="line"/>
    </contour>
    <contour>
      <point x="228.0" y="438.0" type="line"/>
      <point x="228.0" y="380.0" type="line"/>
      <point x="774.0" y="380.0" type="line"/>
      <point x="774.0" y="438.0" type="line"/>
    </contour>
    <contour>
      <point x="483.0" y="897.0" type="line"/>
      <point x="483.0" y="0.0" type="line"/>
      <point x="544.0" y="0.0" type="line"/>
      <point x="544.0" y="897.0" type="line"/>
    </contour>
    <contour>
      <point x="160.0" y="1550.0" type="line"/>
      <point x="160.0" y="859.0" type="line"/>
      <point x="219.0" y="859.0" type="line"/>
      <point x="219.0" y="1550.0" type="line"/>
    </contour>
    <contour>
      <point x="803.0" y="1550.0" type="line"/>
      <point x="803.0" y="859.0" type="line"/>
      <point x="864.0" y="859.0" type="line"/>
      <point x="864.0" y="1550.0" type="line"/>
    </contour>
    <contour>
      <point x="200.0" y="919.0" type="line"/>
      <point x="200.0" y="858.0" type="line"/>
      <point x="840.0" y="858.0" type="line"/>
      <point x="840.0" y="919.0" type="line"/>
    </contour>
  </outline>
</glyph>
<glyph name="brokenbar" format="2">
  <advance width="1024"/>
  <unicode hex="00A6"/>
  <outline>
    <contour>
      <point x="490.0" y="-332.0" type="line"/>
      <point x="534.0" y="-332.0" type="line"/>
      <point x="534.0" y="682.0" type="line"/>
      <point x="490.0" y="682.0" type="line"/>
    </contour>
    <contour>
      <point x="497.0" y="790.0" type="line"/>
      <point x="534.0" y="790.0" type="line"/>
      <point x="534.0" y="1636.0" type="line"/>
      <point x="497.0" y="1636.0" type="line"/>
    </contour>
  </outline>
</glyph>
<glyph name="section" format="2">
  <advance width="1024"/>
  <unicode hex="00A7"/>
  <outline>
    <contour>
      <point x="126.0" y="1237.0" type="line"/>
      <point x="126.0" y="1178.0" type="line"/>
      <point x="724.0" y="1178.0" type="line"/>
      <point x="724.0" y="1237.0" type="line"/>
    </contour>
    <contour>
      <point x="126.0" y="1237.0" type="line"/>
      <point x="126.0" y="605.0" type="line"/>
      <point x="189.0" y="605.0" type="line"/>
      <point x="189.0" y="1237.0" type="line"/>
    </contour>
    <contour>
      <point x="163.0" y="-200.0" type="line"/>
      <point x="163.0" y="-260.0" type="line"/>
      <point x="871.0" y="-260.0" type="line"/>
      <point x="871.0" y="-200.0" type="line"/>
    </contour>
    <contour>
      <point x="838.0" y="-259.0" type="line"/>
      <point x="898.0" y="-259.0" type="line"/>
      <point x="898.0" y="95.0" type="line"/>
      <point x="838.0" y="95.0" type="line"/>
    </contour>
    <contour>
      <point x="126.0" y="606.0" type="line"/>
      <point x="837.0" y="88.0" type="line"/>
      <point x="898.0" y="88.0" type="line"/>
      <point x="184.0" y="606.0" type="line"/>
    </contour>
    <contour>
      <point x="126.0" y="1626.0" type="line"/>
      <point x="126.0" y="1566.0" type="line"/>
      <point x="724.0" y="1566.0" type="line"/>
      <point x="724.0" y="1626.0" type="line"/>
    </contour>
    <contour>
      <point x="126.0" y="1629.0" type="line"/>
      <point x="126.0" y="1237.0" type="line"/>
      <point x="189.0" y="1237.0" type="line"/>
      <point x="189.0" y="1629.0" type="line"/>
    </contour>
    <contour>
      <point x="154.0" y="88.0" type="line"/>
      <point x="154.0" y="39.0" type="line"/>
      <point x="862.0" y="39.0" type="line"/>
      <point x="862.0" y="88.0" type="line"/>
    </contour>
    <contour>
      <point x="837.0" y="88.0" type="line"/>
      <point x="898.0" y="88.0" type="line"/>
      <point x="898.0" y="442.0" type="line"/>
      <point x="837.0" y="442.0" type="line"/>
    </contour>
    <contour>
      <point x="126.0" y="1237.0" type="line"/>
      <point x="838.0" y="442.0" type="line"/>
      <point x="898.0" y="442.0" type="line"/>
      <point x="189.0" y="1237.0" type="line"/>
    </contour>
  </outline>
</glyph>
<glyph name="dieresis" format="2">
  <advance width="1024"/>
  <unicode hex="00A8"/>
  <outline>
    <contour>
      <point x="360.0" y="1023.0" type="line"/>
      <point x="360.0" y="950.0" type="line"/>
      <point x="427.0" y="950.0" type="line"/>
      <point x="427.0" y="1023.0" type="line"/>
    </contour>
    <contour>
      <point x="539.0" y="1020.0" type="line"/>
      <point x="539.0" y="938.0" type="line"/>
      <point x="605.0" y="940.0" type="line"/>
      <point x="605.0" y="1022.0" type="line"/>
    </contour>
  </outline>
</glyph>
<glyph name="copyright" format="2">
  <advance width="1024"/>
  <unicode hex="00A9"/>
  <outline>
    <contour>
      <point x="12.0" y="1540.0" type="line"/>
      <point x="12.0" y="0.0" type="line"/>
      <point x="72.0" y="0.0" type="line"/>
      <point x="72.0" y="1540.0" type="line"/>
    </contour>
    <contour>
      <point x="952.0" y="1537.0" type="line"/>
      <point x="952.0" y="0.0" type="line"/>
      <point x="1012.0" y="0.0" type="line"/>
      <point x="1012.0" y="1537.0" type="line"/>
    </contour>
    <contour>
      <point x="64.0" y="1538.0" type="line"/>
      <point x="64.0" y="1476.0" type="line"/>
      <point x="1008.0" y="1476.0" type="line"/>
      <point x="1008.0" y="1538.0" type="line"/>
    </contour>
    <contour>
      <point x="24.0" y="60.0" type="line"/>
      <point x="24.0" y="0.0" type="line"/>
      <point x="994.0" y="0.0" type="line"/>
      <point x="994.0" y="60.0" type="line"/>
    </contour>
    <contour>
      <point x="258.0" y="1197.0" type="line"/>
      <point x="258.0" y="1135.0" type="line"/>
      <point x="692.0" y="1135.0" type="line"/>
      <point x="692.0" y="1197.0" type="line"/>
    </contour>
    <contour>
      <point x="258.0" y="1154.0" type="line"/>
      <point x="258.0" y="340.0" type="line"/>
      <point x="318.0" y="340.0" type="line"/>
      <point x="318.0" y="1154.0" type="line"/>
    </contour>
    <contour>
      <point x="258.0" y="356.0" type="line"/>
      <point x="258.0" y="294.0" type="line"/>
      <point x="698.0" y="294.0" type="line"/>
      <point x="698.0" y="356.0" type="line"/>
    </contour>
  </outline>
</glyph>
<glyph name="ordfeminine" format="2">
  <advance width="1024"/>
  <unicode hex="00AA"/>
  <outline>
    <contour>
      <point x="181.0" y="1319.0" type="line"/>
      <point x="181.0" y="1252.0" type="line"/>
      <point x="830.0" y="1252.0" type="line"/>
      <point x="830.0" y="1319.0" type="line"/>
    </contour>
    <contour>
      <point x="792.0" y="1320.0" type="line"/>
      <point x="792.0" y="296.0" type="line"/>
      <point x="869.0" y="296.0" type="line"/>
      <point x="869.0" y="1320.0" type="line"/>
    </contour>
    <contour>
      <point x="184.0" y="895.0" type="line"/>
      <point x="184.0" y="833.0" type="line"/>
      <point x="808.0" y="833.0" type="line"/>
      <point x="808.0" y="895.0" type="line"/>
    </contour>
    <contour>
      <point x="185.0" y="872.0" type="line"/>
      <point x="185.0" y="294.0" type="line"/>
      <point x="256.0" y="294.0" type="line"/>
      <point x="256.0" y="872.0" type="line"/>
    </contour>
    <contour>
      <point x="194.0" y="369.0" type="line"/>
      <point x="194.0" y="294.0" type="line"/>
      <point x="858.0" y="294.0" type="line"/>
      <point x="858.0" y="369.0" type="line"/>
    </contour>
    <contour>
      <point x="78.0" y="67.0" type="line"/>
      <point x="78.0" y="0.0" type="line"/>
      <point x="946.0" y="0.0" type="line"/>
      <point x="946.0" y="67.0" type="line"/>
    </contour>
  </outline>
</glyph>
<glyph name="guillemotleft" format="2">
  <advance width="1024"/>
  <unicode hex="00AB"/>
  <outline>
    <contour>
      <point x="98.0" y="509.0" type="line"/>
      <point x="98.0" y="472.0" type="line"/>
      <point x="535.0" y="757.0" type="line"/>
      <point x="535.0" y="784.0" type="line"/>
    </contour>
    <contour>
      <point x="98.0" y="509.0" type="line"/>
      <point x="98.0" y="472.0" type="line"/>
      <point x="466.0" y="122.0" type="line"/>
      <point x="474.0" y="160.0" type="line"/>
    </contour>
    <contour>
      <point x="516.0" y="527.0" type="line"/>
      <point x="516.0" y="498.0" type="line"/>
      <point x="926.0" y="783.0" type="line"/>
      <point x="926.0" y="823.0" type="line"/>
    </contour>
    <contour>
      <point x="515.0" y="527.0" type="line"/>
      <point x="515.0" y="497.0" type="line"/>
      <point x="881.0" y="122.0" type="line"/>
      <point x="898.0" y="149.0" type="line"/>
    </contour>
  </outline>
</glyph>
<glyph name="logicalnot" format="2">
  <advance width="1024"/>
  <unicode hex="00AC"/>
  <outline>
    <contour>
      <point x="729" y="935" type="line"/>
      <point x="729" y="640" type="line"/>
      <point x="782" y="640" type="line"/>
      <point x="782" y="935" type="line"/>
    </contour>
    <contour>
      <point x="242" y="935" type="line"/>
      <point x="242" y="875" type="line"/>
      <point x="776" y="875" type="line"/>
      <point x="776" y="935" type="line"/>
    </contour>
  </outline>
</glyph>
<glyph name="registered" format="2">
	<unicode hex="00AE"/>
	<advance width="1024"/>
	<outline>
		<contour>
			<point x="397" y="1032" type="line"/>
			<point x="397" y="501" type="line"/>
			<point x="434" y="501" type="line"/>
			<point x="434" y="1032" type="line"/>
		</contour>
		<contour>
			<point x="422" y="1032" type="line"/>
			<point x="422" y="994" type="line"/>
			<point x="651" y="994" type="line"/>
			<point x="651" y="1032" type="line"/>
		</contour>
		<contour>
			<point x="622" y="1032" type="line"/>
			<point x="622" y="802" type="line"/>
			<point x="660" y="802" type="line"/>
			<point x="660" y="1032" type="line"/>
		</contour>
		<contour>
			<point x="418" y="848" type="line"/>
			<point x="418" y="801" type="line"/>
			<point x="656" y="801" type="line"/>
			<point x="656" y="848" type="line"/>
		</contour>
		<contour>
			<point x="465" y="809" type="line"/>
			<point x="664" y="500" type="line"/>
			<point x="707" y="500" type="line"/>
			<point x="500" y="809" type="line"/>
		</contour>
		<contour>
			<point x="41" y="1540" type="line"/>
			<point x="41" y="0" type="line"/>
			<point x="103" y="0" type="line"/>
			<point x="103" y="1540" type="line"/>
		</contour>
		<contour>
			<point x="921" y="1537" type="line"/>
			<point x="921" y="0" type="line"/>
			<point x="983" y="0" type="line"/>
			<point x="983" y="1537" type="line"/>
		</contour>
		<contour>
			<point x="80" y="1538" type="line"/>
			<point x="80" y="1478" type="line"/>
			<point x="952" y="1478" type="line"/>
			<point x="952" y="1538" type="line"/>
		</contour>
		<contour>
			<point x="76" y="61" type="line"/>
			<point x="76" y="0" type="line"/>
			<point x="968" y="0" type="line"/>
			<point x="968" y="61" type="line"/>
		</contour>
	</outline>
</glyph>
<glyph name="macron" format="2">
	<unicode hex="00AF"/>
	<advance width="1024"/>
	<outline>
		<contour>
			<point x="236" y="1015" type="line"/>
			<point x="236" y="970" type="line"/>
			<point x="796" y="970" type="line"/>
			<point x="796" y="1015" type="line"/>
		</contour>
	</outline>
</glyph>
<glyph name="degree" format="2">
  <advance width="1024"/>
  <unicode hex="00B0"/>
  <outline>
    <contour>
      <point x="391" y="1439" type="line"/>
      <point x="641" y="1439" type="line"/>
      <point x="641" y="1231" type="line"/>
      <point x="391" y="1231" type="line"/>
    </contour>
    <contour>
      <point x="332" y="1488" type="line"/>
      <point x="332" y="1179" type="line"/>
      <point x="692" y="1179" type="line"/>
      <point x="692" y="1488" type="line"/>
    </contour>
  </outline>
</glyph>
<glyph name="plusminus" format="2">
  <advance width="1024"/>
  <unicode hex="00B1"/>
  <outline>
    <contour>
      <point x="99" y="110" type="line"/>
      <point x="99" y="48" type="line"/>
      <point x="925" y="48" type="line"/>
      <point x="925" y="110" type="line"/>
    </contour>
    <contour>
      <point x="466" y="1221" type="line"/>
      <point x="466" y="228" type="line"/>
      <point x="527" y="228" type="line"/>
      <point x="527" y="1221" type="line"/>
    </contour>
    <contour>
      <point x="61" y="744" type="line"/>
      <point x="61" y="686" type="line"/>
      <point x="963" y="686" type="line"/>
      <point x="963" y="744" type="line"/>
    </contour>
  </outline>
</glyph>
<glyph name="uni00B2" format="2">
  <advance width="1024"/>
  <unicode hex="00B2"/>
  <outline>
    <contour>
      <point x="371" y="1522" type="line"/>
      <point x="724" y="1522" type="line"/>
      <point x="724" y="1307" type="line"/>
      <point x="374" y="1307" type="line"/>
      <point x="374" y="969" type="line"/>
      <point x="746" y="969" type="line"/>
      <point x="746" y="991" type="line"/>
      <point x="403" y="992" type="line"/>
      <point x="403" y="1285" type="line"/>
      <point x="753" y="1285" type="line"/>
      <point x="753" y="1544" type="line"/>
      <point x="371" y="1544" type="line"/>
    </contour>
  </outline>
</glyph>
<glyph name="uni00B3" format="2">
  <advance width="1024"/>
  <unicode hex="00B3"/>
  <outline>
    <contour>
      <point x="248.0" y="1246.0" type="line"/>
      <point x="705.0" y="1246.0" type="line"/>
      <point x="705.0" y="989.0" type="line"/>
      <point x="223.0" y="989.0" type="line"/>
      <point x="229.0" y="967.0" type="line"/>
      <point x="739.0" y="967.0" type="line"/>
      <point x="739.0" y="1550.0" type="line"/>
      <point x="240.0" y="1550.0" type="line"/>
      <point x="240.0" y="1529.0" type="line"/>
      <point x="703.0" y="1529.0" type="line"/>
      <point x="703.0" y="1268.0" type="line"/>
      <point x="248.0" y="1268.0" type="line"/>
    </contour>
  </outline>
</glyph>
<glyph name="acute" format="2">
  <advance width="1024"/>
  <unicode hex="00B4"/>
  <outline>
    <contour>
      <point x="525" y="1341" type="line"/>
      <point x="446" y="1156" type="line"/>
      <point x="499" y="1122" type="line"/>
      <point x="578" y="1307" type="line"/>
    </contour>
  </outline>
</glyph>
<glyph name="mu" format="2">
	<unicode hex="00B5"/>
	<advance width="1024"/>
	<outline>
		<contour>
			<point x="774" y="935" type="line"/>
			<point x="774" y="0" type="line"/>
			<point x="834" y="0" type="line"/>
			<point x="834" y="935" type="line"/>
		</contour>
		<contour>
			<point x="236" y="60" type="line"/>
			<point x="236" y="0" type="line"/>
			<point x="804" y="0" type="line"/>
			<point x="804" y="60" type="line"/>
		</contour>
		<contour>
			<point x="190" y="935" type="line"/>
			<point x="190" y="-430" type="line"/>
			<point x="252" y="-430" type="line"/>
			<point x="252" y="935" type="line"/>
		</contour>
	</outline>
</glyph>
<glyph name="paragraph" format="2">
  <advance width="1024"/>
  <unicode hex="00B6"/>
  <outline>
    <contour>
      <point x="90.0" y="1044.0" type="line"/>
      <point x="90.0" y="985.0" type="line"/>
      <point x="654.0" y="985.0" type="line"/>
      <point x="654.0" y="1044.0" type="line"/>
    </contour>
    <contour>
      <point x="90.0" y="1550.0" type="line"/>
      <point x="90.0" y="1000.0" type="line"/>
      <point x="152.0" y="1000.0" type="line"/>
      <point x="152.0" y="1550.0" type="line"/>
    </contour>
    <contour>
      <point x="90.0" y="1550.0" type="line"/>
      <point x="90.0" y="1493.0" type="line"/>
      <point x="910.0" y="1493.0" type="line"/>
      <point x="910.0" y="1550.0" type="line"/>
    </contour>
    <contour>
      <point x="640.0" y="1550.0" type="line"/>
      <point x="640.0" y="0.0" type="line"/>
      <point x="704.0" y="0.0" type="line"/>
      <point x="704.0" y="1550.0" type="line"/>
    </contour>
    <contour>
      <point x="872.0" y="1550.0" type="line"/>
      <point x="872.0" y="0.0" type="line"/>
      <point x="934.0" y="0.0" type="line"/>
      <point x="934.0" y="1550.0" type="line"/>
    </contour>
  </outline>
</glyph>
<glyph name="periodcentered" format="2">
  <advance width="1024"/>
  <unicode hex="00B7"/>
  <outline>
    <contour>
      <point x="464.0" y="1056.0" type="line"/>
      <point x="464.0" y="955.0" type="line"/>
      <point x="560.0" y="955.0" type="line"/>
      <point x="560.0" y="1056.0" type="line"/>
    </contour>
  </outline>
</glyph>
<glyph name="cedilla" format="2">
  <advance width="1024"/>
  <unicode hex="00B8"/>
  <outline>
    <contour>
      <point x="343" y="236" type="line"/>
      <point x="343" y="-4" type="line"/>
      <point x="401" y="-4" type="line"/>
      <point x="401" y="236" type="line"/>
    </contour>
    <contour>
      <point x="349" y="-291" type="line"/>
      <point x="349" y="-352" type="line"/>
      <point x="795" y="-352" type="line"/>
      <point x="795" y="-291" type="line"/>
    </contour>
    <contour>
      <point x="736" y="56" type="line"/>
      <point x="736" y="-316" type="line"/>
      <point x="795" y="-316" type="line"/>
      <point x="795" y="56" type="line"/>
    </contour>
    <contour>
      <point x="349" y="56" type="line"/>
      <point x="349" y="-4" type="line"/>
      <point x="795" y="-4" type="line"/>
      <point x="795" y="56" type="line"/>
    </contour>
  </outline>
</glyph>
<glyph name="uni00B9" format="2">
  <advance width="1024"/>
  <unicode hex="00B9"/>
  <outline>
    <contour>
      <point x="536" y="888" type="line"/>
      <point x="566" y="888" type="line"/>
      <point x="566" y="1662" type="line"/>
      <point x="536" y="1662" type="line"/>
    </contour>
    <contour>
      <point x="536" y="1662" type="line"/>
      <point x="477" y="1600" type="line"/>
      <point x="502" y="1586" type="line"/>
      <point x="566" y="1662" type="line"/>
    </contour>
  </outline>
</glyph>
<glyph name="ordmasculine" format="2">
  <advance width="1024"/>
  <unicode hex="00BA"/>
  <outline>
    <contour>
      <point x="108" y="1022" type="line"/>
      <point x="108" y="0" type="line"/>
      <point x="167" y="0" type="line"/>
      <point x="167" y="1022" type="line"/>
    </contour>
    <contour>
      <point x="865" y="1024" type="line"/>
      <point x="865" y="0" type="line"/>
      <point x="926" y="0" type="line"/>
      <point x="926" y="1024" type="line"/>
    </contour>
    <contour>
      <point x="169" y="1027" type="line"/>
      <point x="169" y="967" type="line"/>
      <point x="870" y="967" type="line"/>
      <point x="870" y="1027" type="line"/>
    </contour>
    <contour>
      <point x="154" y="62" type="line"/>
      <point x="154" y="0" type="line"/>
      <point x="873" y="0" type="line"/>
      <point x="873" y="62" type="line"/>
    </contour>
    <contour>
      <point x="0" y="-70" type="line"/>
      <point x="0" y="-136" type="line"/>
      <point x="1024" y="-136" type="line"/>
      <point x="1024" y="-70" type="line"/>
    </contour>
  </outline>
</glyph>
<glyph name="guillemotright" format="2">
  <advance width="1024"/>
  <unicode hex="00BB"/>
  <outline>
    <contour>
      <point x="926.0" y="509.0" type="line"/>
      <point x="489.0" y="784.0" type="line"/>
      <point x="489.0" y="757.0" type="line"/>
      <point x="925.0" y="472.0" type="line"/>
    </contour>
    <contour>
      <point x="926.0" y="509.0" type="line"/>
      <point x="550.0" y="160.0" type="line"/>
      <point x="558.0" y="122.0" type="line"/>
      <point x="925.0" y="472.0" type="line"/>
    </contour>
    <contour>
      <point x="508.0" y="527.0" type="line"/>
      <point x="98.0" y="823.0" type="line"/>
      <point x="98.0" y="783.0" type="line"/>
      <point x="509.0" y="498.0" type="line"/>
    </contour>
    <contour>
      <point x="509.0" y="527.0" type="line"/>
      <point x="126.0" y="149.0" type="line"/>
      <point x="143.0" y="122.0" type="line"/>
      <point x="509.0" y="497.0" type="line"/>
    </contour>
  </outline>
</glyph>
<glyph name="onequarter" format="2">
  <advance width="1024"/>
  <unicode hex="00BC"/>
  <outline>
    <contour>
      <point x="666.0" y="1480.0" type="line"/>
      <point x="79.0" y="10.0" type="line"/>
      <point x="182.0" y="10.0" type="line"/>
      <point x="769.0" y="1480.0" type="line"/>
    </contour>
    <contour>
      <point x="307.0" y="1045.0" type="line"/>
      <point x="361.0" y="1045.0" type="line"/>
      <point x="361.0" y="1550.0" type="line"/>
      <point x="307.0" y="1550.0" type="line"/>
    </contour>
    <contour>
      <point x="312.0" y="1550.0" type="line"/>
      <point x="202.0" y="1428.0" type="line"/>
      <point x="222.0" y="1391.0" type="line"/>
      <point x="341.0" y="1541.0" type="line"/>
    </contour>
    <contour>
      <point x="568.0" y="379.0" type="line"/>
      <point x="907.0" y="379.0" type="line"/>
      <point x="907.0" y="7.0" type="line"/>
      <point x="932.0" y="7.0" type="line"/>
      <point x="932.0" y="768.0" type="line"/>
      <point x="906.0" y="768.0" type="line"/>
      <point x="906.0" y="409.0" type="line"/>
      <point x="594.0" y="409.0" type="line"/>
      <point x="594.0" y="770.0" type="line"/>
      <point x="568.0" y="770.0" type="line"/>
    </contour>
  </outline>
</glyph>
<glyph name="onehalf" format="2">
  <advance width="1024"/>
  <unicode hex="00BD"/>
  <outline>
    <contour>
      <point x="683.6" y="1480" type="line"/>
      <point x="96.5996" y="10" type="line"/>
      <point x="199.6" y="10" type="line"/>
      <point x="786.6" y="1480" type="line"/>
    </contour>
    <contour>
      <point x="283.7" y="900" type="line"/>
      <point x="283.7" y="1238" type="line"/>
      <point x="326.9" y="1238" type="line"/>
      <point x="326.9" y="900" type="line"/>
    </contour>
    <contour>
      <point x="290.1" y="1274" type="line"/>
      <point x="290.1" y="1556" type="line"/>
      <point x="326.9" y="1556" type="line"/>
      <point x="326.9" y="1274" type="line"/>
    </contour>
    <contour>
      <point x="525.8" y="36.4004" type="line"/>
      <point x="525.8" y="310" type="line"/>
      <point x="564.2" y="310" type="line"/>
      <point x="564.2" y="36.4004" type="line"/>
    </contour>
    <contour>
      <point x="568.2" y="28" type="line"/>
      <point x="872.2" y="28" type="line"/>
      <point x="872.2" y="-8" type="line"/>
      <point x="570.6" y="-8" type="line"/>
    </contour>
    <contour>
      <point x="578.6" y="600" type="line"/>
      <point x="578.6" y="648" type="line"/>
      <point x="874.6" y="648" type="line"/>
      <point x="874.6" y="600" type="line"/>
    </contour>
    <contour>
      <point x="582.6" y="316" type="line"/>
      <point x="582.6" y="366" type="line"/>
      <point x="870.6" y="366" type="line"/>
      <point x="870.6" y="316" type="line"/>
    </contour>
    <contour>
      <point x="890.6" y="366" type="line"/>
      <point x="890.6" y="648" type="line"/>
      <point x="927.4" y="648" type="line"/>
      <point x="927.4" y="366" type="line"/>
    </contour>
  </outline>
</glyph>
<glyph name="questiondown" format="2">
  <advance width="1024"/>
  <unicode hex="00BF"/>
  <outline>
    <contour>
      <point x="655.5" y="1273" type="line"/>
      <point x="655.5" y="1519" type="line"/>
      <point x="597.5" y="1519" type="line"/>
      <point x="597.5" y="1272" type="line"/>
    </contour>
    <contour>
      <point x="832.5" y="0" type="line"/>
      <point x="832.5" y="61" type="line"/>
      <point x="195.5" y="61" type="line"/>
      <point x="195.5" y="0" type="line"/>
    </contour>
    <contour>
      <point x="251.5" y="5" type="line"/>
      <point x="251.5" y="553" type="line"/>
      <point x="191.5" y="553" type="line"/>
      <point x="191.5" y="5" type="line"/>
    </contour>
    <contour>
      <point x="655.5" y="504" type="line"/>
      <point x="655.5" y="566" type="line"/>
      <point x="191.5" y="566" type="line"/>
      <point x="191.5" y="504" type="line"/>
    </contour>
    <contour>
      <point x="655.5" y="508" type="line"/>
      <point x="655.5" y="1127" type="line"/>
      <point x="597.5" y="1127" type="line"/>
      <point x="597.5" y="508" type="line"/>
    </contour>
  </outline>
</glyph>
<glyph name="AE" format="2">
  <advance width="1024"/>
  <unicode hex="00C6"/>
  <outline>
    <contour>
      <point x="527.5" y="62" type="line"/>
      <point x="527.5" y="0" type="line"/>
      <point x="947.5" y="0" type="line"/>
      <point x="947.5" y="62" type="line"/>
    </contour>
    <contour>
      <point x="76.5" y="0" type="line"/>
      <point x="138.5" y="0" type="line"/>
      <point x="138.5" y="1548" type="line"/>
      <point x="76.5" y="1548" type="line"/>
    </contour>
    <contour>
      <point x="120.5" y="1489" type="line"/>
      <point x="925.5" y="1489" type="line"/>
      <point x="925.5" y="1548" type="line"/>
      <point x="120.5" y="1548" type="line"/>
    </contour>
    <contour>
      <point x="124.5" y="1025" type="line"/>
      <point x="124.5" y="964" type="line"/>
      <point x="873.5" y="964" type="line"/>
      <point x="873.5" y="1025" type="line"/>
    </contour>
    <contour>
      <point x="502.5" y="0" type="line"/>
      <point x="562.5" y="0" type="line"/>
      <point x="562.5" y="1548" type="line"/>
      <point x="502.5" y="1548" type="line"/>
    </contour>
  </outline>
</glyph>
<glyph name="Eth" format="2">
  <advance width="1024"/>
  <unicode hex="00D0"/>
  <anchor x="268" y="1662" name="top"/>
  <anchor x="292" y="-132" name="base"/>
  <outline>
    <contour>
      <point x="55" y="935" type="line"/>
      <point x="55" y="873" type="line"/>
      <point x="362" y="873" type="line"/>
      <point x="362" y="935" type="line"/>
    </contour>
    <contour>
      <point x="162" y="1553" type="line"/>
      <point x="162" y="0" type="line"/>
      <point x="223" y="0" type="line"/>
      <point x="223" y="1553" type="line"/>
    </contour>
    <contour>
      <point x="488" y="1553" type="line"/>
      <point x="488" y="1484" type="line"/>
      <point x="969" y="964" type="line"/>
      <point x="969" y="1023" type="line"/>
    </contour>
    <contour>
      <point x="496" y="60" type="line"/>
      <point x="496" y="0" type="line"/>
      <point x="969" y="964" type="line"/>
      <point x="969" y="1023" type="line"/>
    </contour>
    <contour>
      <point x="202" y="1553" type="line"/>
      <point x="202" y="1484" type="line"/>
      <point x="488" y="1484" type="line"/>
      <point x="488" y="1553" type="line"/>
    </contour>
    <contour>
      <point x="210" y="60" type="line"/>
      <point x="210" y="0" type="line"/>
      <point x="496" y="0" type="line"/>
      <point x="496" y="60" type="line"/>
    </contour>
  </outline>
</glyph>
<glyph name="multiply" format="2">
  <advance width="1024"/>
  <unicode hex="00D7"/>
  <outline>
    <contour>
      <point x="96.0" y="295.0" type="line"/>
      <point x="192.0" y="295.0" type="line"/>
      <point x="920.0" y="1323.0" type="line"/>
      <point x="838.0" y="1323.0" type="line"/>
    </contour>
    <contour>
      <point x="94.0" y="1322.0" type="line"/>
      <point x="842.0" y="288.0" type="line"/>
      <point x="930.0" y="288.0" type="line"/>
      <point x="178.0" y="1322.0" type="line"/>
    </contour>
  </outline>
</glyph>
<glyph name="Oslash" format="2">
  <advance width="1024"/>
  <unicode hex="00D8"/>
  <anchor x="510" y="1666" name="top"/>
  <anchor x="498" y="-122" name="base"/>
  <outline>
    <contour>
      <point x="899" y="1630" type="line"/>
      <point x="69" y="-48" type="line"/>
      <point x="109" y="-75" type="line"/>
      <point x="955" y="1588" type="line"/>
    </contour>
    <contour>
      <point x="107" y="1540" type="line"/>
      <point x="107" y="0" type="line"/>
      <point x="167" y="0" type="line"/>
      <point x="167" y="1540" type="line"/>
    </contour>
    <contour>
      <point x="848" y="1537" type="line"/>
      <point x="848" y="0" type="line"/>
      <point x="907" y="0" type="line"/>
      <point x="907" y="1537" type="line"/>
    </contour>
    <contour>
      <point x="137" y="1538" type="line"/>
      <point x="137" y="1478" type="line"/>
      <point x="877" y="1478" type="line"/>
      <point x="877" y="1538" type="line"/>
    </contour>
    <contour>
      <point x="147" y="75" type="line"/>
      <point x="147" y="0" type="line"/>
      <point x="848" y="0" type="line"/>
      <point x="848" y="75" type="line"/>
    </contour>
  </outline>
</glyph>
<glyph name="Thorn" format="2">
  <advance width="1024"/>
  <unicode hex="00DE"/>
  <outline>
    <contour>
      <point x="134.5" y="1545" type="line"/>
      <point x="134.5" y="9" type="line"/>
      <point x="193.5" y="9" type="line"/>
      <point x="193.5" y="1542" type="line"/>
    </contour>
    <contour>
      <point x="181.5" y="1240" type="line"/>
      <point x="181.5" y="1187" type="line"/>
      <point x="869.5" y="1187" type="line"/>
      <point x="869.5" y="1240" type="line"/>
    </contour>
    <contour>
      <point x="829.5" y="1242" type="line"/>
      <point x="829.5" y="531" type="line"/>
      <point x="889.5" y="531" type="line"/>
      <point x="889.5" y="1242" type="line"/>
    </contour>
    <contour>
      <point x="201.5" y="544" type="line"/>
      <point x="201.5" y="484" type="line"/>
      <point x="888.5" y="484" type="line"/>
      <point x="888.5" y="544" type="line"/>
    </contour>
  </outline>
</glyph>
<glyph name="germandbls" format="2">
  <advance width="1024"/>
  <unicode hex="00DF"/>
  <outline>
    <contour>
      <point x="76.0" y="1084.0" type="line"/>
      <point x="76.0" y="1023.0" type="line"/>
      <point x="327.0" y="1023.0" type="line"/>
      <point x="327.0" y="1084.0" type="line"/>
    </contour>
    <contour>
      <point x="261.0" y="1550.0" type="line"/>
      <point x="261.0" y="0.0" type="line"/>
      <point x="325.0" y="0.0" type="line"/>
      <point x="325.0" y="1550.0" type="line"/>
    </contour>
    <contour>
      <point x="313.0" y="1550.0" type="line"/>
      <point x="313.0" y="1488.0" type="line"/>
      <point x="920.0" y="1488.0" type="line"/>
      <point x="920.0" y="1550.0" type="line"/>
    </contour>
    <contour>
      <point x="886.0" y="1550.0" type="line"/>
      <point x="886.0" y="1023.0" type="line"/>
      <point x="947.0" y="1023.0" type="line"/>
      <point x="947.0" y="1550.0" type="line"/>
    </contour>
    <contour>
      <point x="890.0" y="1062.0" type="line"/>
      <point x="652.0" y="1062.0" type="line"/>
      <point x="652.0" y="826.0" type="line"/>
      <point x="890.0" y="826.0" type="line"/>
    </contour>
    <contour>
      <point x="888.0" y="848.0" type="line"/>
      <point x="888.0" y="175.0" type="line"/>
      <point x="946.0" y="175.0" type="line"/>
      <point x="946.0" y="848.0" type="line"/>
    </contour>
    <contour>
      <point x="605.0" y="187.0" type="line"/>
      <point x="605.0" y="131.0" type="line"/>
      <point x="948.0" y="131.0" type="line"/>
      <point x="948.0" y="187.0" type="line"/>
    </contour>
  </outline>
</glyph>
<glyph name="ae" format="2">
  <advance width="1024"/>
  <unicode hex="00E6"/>
  <outline>
    <contour>
      <point x="42.0" y="1023.0" type="line"/>
      <point x="42.0" y="961.0" type="line"/>
      <point x="932.0" y="961.0" type="line"/>
      <point x="932.0" y="1023.0" type="line"/>
    </contour>
    <contour>
      <point x="512.0" y="1023.0" type="line"/>
      <point x="512.0" y="0.0" type="line"/>
      <point x="572.0" y="0.0" type="line"/>
      <point x="572.0" y="1023.0" type="line"/>
    </contour>
    <contour>
      <point x="66.0" y="599.0" type="line"/>
      <point x="66.0" y="538.0" type="line"/>
      <point x="906.0" y="538.0" type="line"/>
      <point x="906.0" y="599.0" type="line"/>
    </contour>
    <contour>
      <point x="66.0" y="575.0" type="line"/>
      <point x="66.0" y="0.0" type="line"/>
      <point x="126.0" y="0.0" type="line"/>
      <point x="126.0" y="575.0" type="line"/>
    </contour>
    <contour>
      <point x="64.0" y="61.0" type="line"/>
      <point x="64.0" y="0.0" type="line"/>
      <point x="984.0" y="0.0" type="line"/>
      <point x="984.0" y="61.0" type="line"/>
    </contour>
    <contour>
      <point x="900.0" y="1023.0" type="line"/>
      <point x="900.0" y="538.0" type="line"/>
      <point x="962.0" y="538.0" type="line"/>
      <point x="962.0" y="1023.0" type="line"/>
    </contour>
  </outline>
</glyph>
<glyph name="eth" format="2">
  <advance width="1024"/>
  <unicode hex="00F0"/>
  <outline>
    <contour>
      <point x="240.0" y="1550.0" type="line"/>
      <point x="844.0" y="0.0" type="line"/>
      <point x="892.0" y="0.0" type="line"/>
      <point x="296.0" y="1550.0" type="line"/>
    </contour>
    <contour>
      <point x="172.0" y="1023.0" type="line"/>
      <point x="172.0" y="964.0" type="line"/>
      <point x="496.0" y="964.0" type="line"/>
      <point x="496.0" y="1023.0" type="line"/>
    </contour>
    <contour>
      <point x="132.0" y="1023.0" type="line"/>
      <point x="132.0" y="0.0" type="line"/>
      <point x="192.0" y="0.0" type="line"/>
      <point x="192.0" y="1023.0" type="line"/>
    </contour>
    <contour>
      <point x="178.0" y="59.0" type="line"/>
      <point x="178.0" y="0.0" type="line"/>
      <point x="844.0" y="0.0" type="line"/>
      <point x="844.0" y="59.0" type="line"/>
    </contour>
    <contour>
      <point x="160.0" y="1416.0" type="line"/>
      <point x="160.0" y="1351.0" type="line"/>
      <point x="504.0" y="1351.0" type="line"/>
      <point x="504.0" y="1416.0" type="line"/>
    </contour>
  </outline>
</glyph>
<glyph name="divide" format="2">
  <advance width="1024"/>
  <unicode hex="00F7"/>
  <outline>
    <contour>
      <point x="477.0" y="264.0" type="line"/>
      <point x="477.0" y="201.0" type="line"/>
      <point x="579.0" y="201.0" type="line"/>
      <point x="579.0" y="264.0" type="line"/>
    </contour>
    <contour>
      <point x="466.0" y="1111.0" type="line"/>
      <point x="466.0" y="1047.0" type="line"/>
      <point x="557.0" y="1047.0" type="line"/>
      <point x="557.0" y="1111.0" type="line"/>
    </contour>
    <contour>
      <point x="99.0" y="662.0" type="line"/>
      <point x="99.0" y="600.0" type="line"/>
      <point x="925.0" y="600.0" type="line"/>
      <point x="925.0" y="662.0" type="line"/>
    </contour>
  </outline>
</glyph>
<glyph name="oslash" format="2">
  <advance width="1024"/>
  <unicode hex="00F8"/>
  <outline>
    <contour>
      <point x="916.5" y="1125" type="line"/>
      <point x="66.5" y="-36" type="line"/>
      <point x="106.5" y="-70" type="line"/>
      <point x="957.5" y="1073" type="line"/>
    </contour>
    <contour>
      <point x="99.5" y="1022" type="line"/>
      <point x="99.5" y="0" type="line"/>
      <point x="160.5" y="0" type="line"/>
      <point x="160.5" y="1022" type="line"/>
    </contour>
    <contour>
      <point x="856.5" y="1024" type="line"/>
      <point x="856.5" y="0" type="line"/>
      <point x="916.5" y="0" type="line"/>
      <point x="916.5" y="1024" type="line"/>
    </contour>
    <contour>
      <point x="141.5" y="1024" type="line"/>
      <point x="141.5" y="963" type="line"/>
      <point x="887.5" y="963" type="line"/>
      <point x="887.5" y="1024" type="line"/>
    </contour>
    <contour>
      <point x="143.5" y="63" type="line"/>
      <point x="143.5" y="1" type="line"/>
      <point x="892.5" y="1" type="line"/>
      <point x="892.5" y="63" type="line"/>
    </contour>
  </outline>
</glyph>
<glyph name="thorn" format="2">
  <advance width="1024"/>
  <unicode hex="00FE"/>
  <outline>
    <contour>
      <point x="141.5" y="1034" type="line"/>
      <point x="141.5" y="-406" type="line"/>
      <point x="200.5" y="-406" type="line"/>
      <point x="200.5" y="1034" type="line"/>
    </contour>
    <contour>
      <point x="194.5" y="667" type="line"/>
      <point x="194.5" y="605" type="line"/>
      <point x="882.5" y="605" type="line"/>
      <point x="882.5" y="667" type="line"/>
    </contour>
    <contour>
      <point x="180.5" y="-135" type="line"/>
      <point x="180.5" y="-195" type="line"/>
      <point x="882.5" y="-195" type="line"/>
      <point x="882.5" y="-135" type="line"/>
    </contour>
    <contour>
      <point x="822.5" y="650" type="line"/>
      <point x="822.5" y="-167" type="line"/>
      <point x="882.5" y="-170" type="line"/>
      <point x="882.5" y="646" type="line"/>
    </contour>
  </outline>
</glyph>
<glyph name="dcaron" format="2">
  <advance width="1024"/>
  <unicode hex="010F"/>
  <outline>
    <contour>
      <point x="758.0" y="1527.0" type="line"/>
      <point x="758.0" y="0.0" type="line"/>
      <point x="818.0" y="0.0" type="line"/>
      <point x="818.0" y="1527.0" type="line"/>
    </contour>
    <contour>
      <point x="102.0" y="1023.0" type="line"/>
      <point x="102.0" y="962.0" type="line"/>
      <point x="778.0" y="962.0" type="line"/>
      <point x="778.0" y="1023.0" type="line"/>
    </contour>
    <contour>
      <point x="58.0" y="1023.0" type="line"/>
      <point x="58.0" y="0.0" type="line"/>
      <point x="116.0" y="0.0" type="line"/>
      <point x="116.0" y="1023.0" type="line"/>
    </contour>
    <contour>
      <point x="74.0" y="60.0" type="line"/>
      <point x="74.0" y="0.0" type="line"/>
      <point x="770.0" y="0.0" type="line"/>
      <point x="770.0" y="60.0" type="line"/>
    </contour>
    <contour>
      <point x="916.0" y="1496.0" type="line"/>
      <point x="916.0" y="1264.0" type="line"/>
      <point x="966.0" y="1264.0" type="line"/>
      <point x="966.0" y="1496.0" type="line"/>
    </contour>
  </outline>
</glyph>
<glyph name="Dcroat" format="2">
  <advance width="1024"/>
  <unicode hex="0110"/>
  <outline>
    <contour>
      <point x="56.0" y="935.0" type="line"/>
      <point x="56.0" y="876.0" type="line"/>
      <point x="532.0" y="876.0" type="line"/>
      <point x="532.0" y="935.0" type="line"/>
    </contour>
    <contour>
      <point x="162.0" y="1550.0" type="line"/>
      <point x="162.0" y="0.0" type="line"/>
      <point x="224.0" y="0.0" type="line"/>
      <point x="224.0" y="1550.0" type="line"/>
    </contour>
    <contour>
      <point x="488.0" y="1550.0" type="line"/>
      <point x="488.0" y="1488.0" type="line"/>
      <point x="968.0" y="906.0" type="line"/>
      <point x="968.0" y="1023.0" type="line"/>
    </contour>
    <contour>
      <point x="496.0" y="61.0" type="line"/>
      <point x="496.0" y="0.0" type="line"/>
      <point x="968.0" y="915.0" type="line"/>
      <point x="968.0" y="1023.0" type="line"/>
    </contour>
    <contour>
      <point x="208.0" y="1550.0" type="line"/>
      <point x="208.0" y="1488.0" type="line"/>
      <point x="488.0" y="1488.0" type="line"/>
      <point x="488.0" y="1550.0" type="line"/>
    </contour>
    <contour>
      <point x="204.0" y="61.0" type="line"/>
      <point x="204.0" y="0.0" type="line"/>
      <point x="496.0" y="0.0" type="line"/>
      <point x="496.0" y="61.0" type="line"/>
    </contour>
  </outline>
</glyph>
<glyph name="dcroat" format="2">
  <advance width="1024"/>
  <unicode hex="0111"/>
  <outline>
    <contour>
      <point x="780.0" y="1527.0" type="line"/>
      <point x="780.0" y="0.0" type="line"/>
      <point x="840.0" y="0.0" type="line"/>
      <point x="840.0" y="1527.0" type="line"/>
    </contour>
    <contour>
      <point x="110.0" y="1023.0" type="line"/>
      <point x="110.0" y="962.0" type="line"/>
      <point x="802.0" y="962.0" type="line"/>
      <point x="802.0" y="1023.0" type="line"/>
    </contour>
    <contour>
      <point x="78.0" y="1023.0" type="line"/>
      <point x="78.0" y="0.0" type="line"/>
      <point x="138.0" y="0.0" type="line"/>
      <point x="138.0" y="1023.0" type="line"/>
    </contour>
    <contour>
      <point x="126.0" y="61.0" type="line"/>
      <point x="126.0" y="0.0" type="line"/>
      <point x="792.0" y="0.0" type="line"/>
      <point x="792.0" y="61.0" type="line"/>
    </contour>
    <contour>
      <point x="638.0" y="1260.0" type="line"/>
      <point x="638.0" y="1202.0" type="line"/>
      <point x="946.0" y="1202.0" type="line"/>
      <point x="946.0" y="1260.0" type="line"/>
    </contour>
  </outline>
</glyph>
<glyph name="uni0123" format="2">
  <advance width="1024"/>
  <unicode hex="0123"/>
  <outline>
    <contour>
      <point x="226" y="1023" type="line"/>
      <point x="226" y="0" type="line"/>
      <point x="285" y="0" type="line"/>
      <point x="285" y="1023" type="line"/>
    </contour>
    <contour>
      <point x="266" y="1023" type="line"/>
      <point x="266" y="964" type="line"/>
      <point x="782" y="964" type="line"/>
      <point x="782" y="1023" type="line"/>
    </contour>
    <contour>
      <point x="743" y="1023" type="line"/>
      <point x="743" y="-411" type="line"/>
      <point x="804" y="-411" type="line"/>
      <point x="804" y="1023" type="line"/>
    </contour>
    <contour>
      <point x="289" y="61" type="line"/>
      <point x="289" y="0" type="line"/>
      <point x="746" y="0" type="line"/>
      <point x="746" y="61" type="line"/>
    </contour>
    <contour>
      <point x="220" y="-354" type="line"/>
      <point x="220" y="-413" type="line"/>
      <point x="755" y="-413" type="line"/>
      <point x="755" y="-354" type="line"/>
    </contour>
    <contour>
      <point x="445" y="1399" type="line"/>
      <point x="445" y="1198" type="line"/>
      <point x="506" y="1198" type="line"/>
      <point x="506" y="1399" type="line"/>
    </contour>
  </outline>
</glyph>
<glyph name="Hbar" format="2">
  <advance width="1024"/>
  <unicode hex="0126"/>
  <outline>
    <contour>
      <point x="110.0" y="1540.0" type="line"/>
      <point x="110.0" y="0.0" type="line"/>
      <point x="170.0" y="0.0" type="line"/>
      <point x="170.0" y="1540.0" type="line"/>
    </contour>
    <contour>
      <point x="846.0" y="1540.0" type="line"/>
      <point x="846.0" y="0.0" type="line"/>
      <point x="906.0" y="0.0" type="line"/>
      <point x="906.0" y="1540.0" type="line"/>
    </contour>
    <contour>
      <point x="150.0" y="1023.0" type="line"/>
      <point x="150.0" y="959.0" type="line"/>
      <point x="862.0" y="959.0" type="line"/>
      <point x="862.0" y="1023.0" type="line"/>
    </contour>
    <contour>
      <point x="50.0" y="1434.0" type="line"/>
      <point x="50.0" y="1374.0" type="line"/>
      <point x="974.0" y="1374.0" type="line"/>
      <point x="974.0" y="1434.0" type="line"/>
    </contour>
  </outline>
</glyph>
<glyph name="hbar" format="2">
  <advance width="1024"/>
  <unicode hex="0127"/>
  <outline>
    <contour>
      <point x="242.0" y="1541.0" type="line"/>
      <point x="242.0" y="6.0" type="line"/>
      <point x="302.0" y="6.0" type="line"/>
      <point x="302.0" y="1541.0" type="line"/>
    </contour>
    <contour>
      <point x="276.0" y="1023.0" type="line"/>
      <point x="276.0" y="966.0" type="line"/>
      <point x="910.0" y="966.0" type="line"/>
      <point x="910.0" y="1023.0" type="line"/>
    </contour>
    <contour>
      <point x="859.0" y="1023.0" type="line"/>
      <point x="859.0" y="0.0" type="line"/>
      <point x="918.0" y="0.0" type="line"/>
      <point x="918.0" y="1023.0" type="line"/>
    </contour>
    <contour>
      <point x="106.0" y="1429.0" type="line"/>
      <point x="106.0" y="1369.0" type="line"/>
      <point x="562.0" y="1369.0" type="line"/>
      <point x="562.0" y="1429.0" type="line"/>
    </contour>
  </outline>
</glyph>
<glyph name="dotlessi" format="2">
  <advance width="1024"/>
  <unicode hex="0131"/>
  <outline>
    <contour>
      <point x="510" y="1022" type="line"/>
      <point x="510" y="52" type="line"/>
      <point x="570" y="52" type="line"/>
      <point x="570" y="1022" type="line"/>
    </contour>
    <contour>
      <point x="141" y="60" type="line"/>
      <point x="141" y="1" type="line"/>
      <point x="883" y="1" type="line"/>
      <point x="883" y="60" type="line"/>
    </contour>
    <contour>
      <point x="191" y="1022" type="line"/>
      <point x="191" y="962" type="line"/>
      <point x="527" y="962" type="line"/>
      <point x="527" y="1022" type="line"/>
    </contour>
  </outline>
</glyph>
<glyph name="kgreenlandic" format="2">
  <advance width="1024"/>
  <unicode hex="0138"/>
  <outline>
    <contour>
      <point x="76.0" y="1033.0" type="line"/>
      <point x="76.0" y="5.0" type="line"/>
      <point x="136.0" y="5.0" type="line"/>
      <point x="136.0" y="1033.0" type="line"/>
    </contour>
    <contour>
      <point x="125.0" y="421.0" type="line"/>
      <point x="125.0" y="352.0" type="line"/>
      <point x="985.0" y="1023.0" type="line"/>
      <point x="925.0" y="1023.0" type="line"/>
    </contour>
    <contour>
      <point x="372.0" y="582.0" type="line"/>
      <point x="330.0" y="539.0" type="line"/>
      <point x="887.0" y="0.0" type="line"/>
      <point x="948.0" y="0.0" type="line"/>
    </contour>
  </outline>
</glyph>
<glyph name="Lcaron" format="2">
  <advance width="1024"/>
  <unicode hex="013D"/>
  <outline>
    <contour>
      <point x="94.0" y="1542.0" type="line"/>
      <point x="94.0" y="0.0" type="line"/>
      <point x="156.0" y="0.0" type="line"/>
      <point x="156.0" y="1542.0" type="line"/>
    </contour>
    <contour>
      <point x="122.0" y="62.0" type="line"/>
      <point x="122.0" y="0.0" type="line"/>
      <point x="930.0" y="0.0" type="line"/>
      <point x="930.0" y="62.0" type="line"/>
    </contour>
    <contour>
      <point x="488.0" y="1496.0" type="line"/>
      <point x="488.0" y="1264.0" type="line"/>
      <point x="528.0" y="1264.0" type="line"/>
      <point x="528.0" y="1496.0" type="line"/>
    </contour>
  </outline>
</glyph>
<glyph name="lcaron" format="2">
	<unicode hex="013E"/>
	<advance width="1024"/>
	<outline>
		<contour>
			<point x="196" y="62" type="line"/>
			<point x="196" y="0" type="line"/>
			<point x="830" y="0" type="line"/>
			<point x="830" y="62" type="line"/>
		</contour>
		<contour>
			<point x="492" y="1550" type="line"/>
			<point x="492" y="46" type="line"/>
			<point x="550" y="46" type="line"/>
			<point x="550" y="1550" type="line"/>
		</contour>
		<contour>
			<point x="194" y="1550" type="line"/>
			<point x="194" y="1489" type="line"/>
			<point x="506" y="1489" type="line"/>
			<point x="506" y="1550" type="line"/>
		</contour>
		<contour>
			<point x="630" y="1496" type="line"/>
			<point x="630" y="1264" type="line"/>
			<point x="682" y="1264" type="line"/>
			<point x="682" y="1496" type="line"/>
		</contour>
	</outline>
</glyph>
<glyph name="Lslash" format="2">
  <advance width="1024"/>
  <unicode hex="0141"/>
  <outline>
    <contour>
      <point x="171.0" y="1542.0" type="line"/>
      <point x="171.0" y="0.0" type="line"/>
      <point x="231.0" y="0.0" type="line"/>
      <point x="231.0" y="1542.0" type="line"/>
    </contour>
    <contour>
      <point x="195.0" y="64.0" type="line"/>
      <point x="195.0" y="0.0" type="line"/>
      <point x="1006.0" y="0.0" type="line"/>
      <point x="1006.0" y="64.0" type="line"/>
    </contour>
    <contour>
      <point x="16.0" y="902.0" type="line"/>
      <point x="96.0" y="866.0" type="line"/>
      <point x="530.0" y="1068.0" type="line"/>
      <point x="450.0" y="1104.0" type="line"/>
    </contour>
  </outline>
</glyph>
<glyph name="lslash" format="2">
  <advance width="1024"/>
  <unicode hex="0142"/>
  <outline>
    <contour>
      <point x="195.0" y="60.0" type="line"/>
      <point x="195.0" y="0.0" type="line"/>
      <point x="829.0" y="0.0" type="line"/>
      <point x="829.0" y="60.0" type="line"/>
    </contour>
    <contour>
      <point x="552.0" y="1553.0" type="line"/>
      <point x="552.0" y="22.0" type="line"/>
      <point x="612.0" y="22.0" type="line"/>
      <point x="612.0" y="1553.0" type="line"/>
    </contour>
    <contour>
      <point x="256.0" y="1553.0" type="line"/>
      <point x="256.0" y="1493.0" type="line"/>
      <point x="578.0" y="1493.0" type="line"/>
      <point x="578.0" y="1553.0" type="line"/>
    </contour>
    <contour>
      <point x="815.0" y="1039.0" type="line"/>
      <point x="236.0" y="702.0" type="line"/>
      <point x="338.0" y="702.0" type="line"/>
      <point x="917.0" y="1039.0" type="line"/>
    </contour>
  </outline>
</glyph>
<glyph name="Eng" format="2">
  <advance width="1024"/>
  <unicode hex="014A"/>
  <anchor x="528" y="1660" name="top"/>
  <anchor x="450" y="-482" name="base"/>
  <outline>
    <contour>
      <point x="524" y="-348" type="line"/>
      <point x="524" y="-408" type="line"/>
      <point x="911" y="-408" type="line"/>
      <point x="911" y="-348" type="line"/>
    </contour>
    <contour>
      <point x="186" y="1490" type="line"/>
      <point x="186" y="0" type="line"/>
      <point x="246" y="0" type="line"/>
      <point x="246" y="1490" type="line"/>
    </contour>
    <contour>
      <point x="852" y="1501" type="line"/>
      <point x="852" y="-408" type="line"/>
      <point x="912" y="-408" type="line"/>
      <point x="912" y="1501" type="line"/>
    </contour>
    <contour>
      <point x="112" y="1550" type="line"/>
      <point x="112" y="1490" type="line"/>
      <point x="911" y="1490" type="line"/>
      <point x="911" y="1550" type="line"/>
    </contour>
  </outline>
</glyph>
<glyph name="eng" format="2">
  <advance width="1024"/>
  <unicode hex="014B"/>
  <anchor x="474" y="1150" name="top"/>
  <anchor x="516" y="-500" name="base"/>
  <outline>
    <contour>
      <point x="456" y="-348" type="line"/>
      <point x="456" y="-408" type="line"/>
      <point x="843" y="-408" type="line"/>
      <point x="843" y="-348" type="line"/>
    </contour>
    <contour>
      <point x="244" y="990" type="line"/>
      <point x="244" y="0" type="line"/>
      <point x="304" y="0" type="line"/>
      <point x="304" y="990" type="line"/>
    </contour>
    <contour>
      <point x="784" y="976" type="line"/>
      <point x="784" y="-408" type="line"/>
      <point x="844" y="-408" type="line"/>
      <point x="844" y="976" type="line"/>
    </contour>
    <contour>
      <point x="65" y="1023" type="line"/>
      <point x="65" y="963" type="line"/>
      <point x="843" y="963" type="line"/>
      <point x="843" y="1023" type="line"/>
    </contour>
  </outline>
</glyph>
<glyph name="OE" format="2">
  <advance width="1024"/>
  <unicode hex="0152"/>
  <outline>
    <contour>
      <point x="123" y="1554" type="line"/>
      <point x="123" y="2" type="line"/>
      <point x="182" y="2" type="line"/>
      <point x="182" y="1554" type="line"/>
    </contour>
    <contour>
      <point x="587" y="1554" type="line"/>
      <point x="587" y="0" type="line"/>
      <point x="646" y="0" type="line"/>
      <point x="646" y="1554" type="line"/>
    </contour>
    <contour>
      <point x="161" y="1554" type="line"/>
      <point x="161" y="1493" type="line"/>
      <point x="893" y="1493" type="line"/>
      <point x="893" y="1554" type="line"/>
    </contour>
    <contour>
      <point x="163" y="61" type="line"/>
      <point x="163" y="0" type="line"/>
      <point x="901" y="0" type="line"/>
      <point x="901" y="61" type="line"/>
    </contour>
    <contour>
      <point x="619" y="859" type="line"/>
      <point x="619" y="798" type="line"/>
      <point x="842" y="798" type="line"/>
      <point x="842" y="859" type="line"/>
    </contour>
  </outline>
</glyph>
<glyph name="oe" format="2">
  <advance width="1024"/>
  <unicode hex="0153"/>
  <outline>
    <contour>
      <point x="587.0" y="506.0" type="line"/>
      <point x="587.0" y="446.0" type="line"/>
      <point x="887.0" y="446.0" type="line"/>
      <point x="887.0" y="506.0" type="line"/>
    </contour>
    <contour>
      <point x="862.0" y="1023.0" type="line"/>
      <point x="862.0" y="445.0" type="line"/>
      <point x="921.0" y="445.0" type="line"/>
      <point x="921.0" y="1023.0" type="line"/>
    </contour>
    <contour>
      <point x="93.0" y="1023.0" type="line"/>
      <point x="93.0" y="0.0" type="line"/>
      <point x="152.0" y="0.0" type="line"/>
      <point x="152.0" y="1023.0" type="line"/>
    </contour>
    <contour>
      <point x="548.0" y="1023.0" type="line"/>
      <point x="548.0" y="0.0" type="line"/>
      <point x="609.0" y="0.0" type="line"/>
      <point x="609.0" y="1023.0" type="line"/>
    </contour>
    <contour>
      <point x="148.0" y="1023.0" type="line"/>
      <point x="148.0" y="964.0" type="line"/>
      <point x="922.0" y="964.0" type="line"/>
      <point x="922.0" y="1023.0" type="line"/>
    </contour>
    <contour>
      <point x="139.0" y="62.0" type="line"/>
      <point x="139.0" y="0.0" type="line"/>
      <point x="931.0" y="0.0" type="line"/>
      <point x="931.0" y="62.0" type="line"/>
    </contour>
  </outline>
</glyph>
<glyph name="tcaron" format="2">
  <advance width="1024"/>
  <unicode hex="0165"/>
  <outline>
    <contour>
      <point x="464.0" y="1529.0" type="line"/>
      <point x="464.0" y="0.0" type="line"/>
      <point x="524.0" y="0.0" type="line"/>
      <point x="524.0" y="1529.0" type="line"/>
    </contour>
    <contour>
      <point x="476.0" y="60.0" type="line"/>
      <point x="476.0" y="0.0" type="line"/>
      <point x="868.0" y="0.0" type="line"/>
      <point x="868.0" y="60.0" type="line"/>
    </contour>
    <contour>
      <point x="156.0" y="1023.0" type="line"/>
      <point x="156.0" y="965.0" type="line"/>
      <point x="830.0" y="965.0" type="line"/>
      <point x="830.0" y="1023.0" type="line"/>
    </contour>
    <contour>
      <point x="654.0" y="1496.0" type="line"/>
      <point x="654.0" y="1317.0" type="line"/>
      <point x="716.0" y="1317.0" type="line"/>
      <point x="716.0" y="1496.0" type="line"/>
    </contour>
  </outline>
</glyph>
<glyph name="uni0182" format="2">
  <advance width="1024"/>
  <unicode hex="0182"/>
  <anchor x="262" y="1657" name="top"/>
  <anchor x="250" y="-67" name="base"/>
  <outline>
    <contour>
      <point x="27" y="0" type="line"/>
      <point x="84" y="0" type="line"/>
      <point x="84" y="1553" type="line"/>
      <point x="27" y="1553" type="line"/>
    </contour>
    <contour>
      <point x="128" y="62" type="line"/>
      <point x="128" y="0" type="line"/>
      <point x="996" y="434" type="line"/>
      <point x="996" y="500" type="line"/>
    </contour>
    <contour>
      <point x="141" y="746" type="line"/>
      <point x="997" y="430" type="line"/>
      <point x="997" y="501" type="line"/>
      <point x="141" y="808" type="line"/>
    </contour>
    <contour>
      <point x="81" y="808" type="line"/>
      <point x="81" y="748" type="line"/>
      <point x="141" y="748" type="line"/>
      <point x="141" y="808" type="line"/>
    </contour>
    <contour>
      <point x="68" y="62" type="line"/>
      <point x="68" y="0" type="line"/>
      <point x="128" y="0" type="line"/>
      <point x="128" y="62" type="line"/>
    </contour>
    <contour>
      <point x="63" y="1553" type="line"/>
      <point x="63" y="1494" type="line"/>
      <point x="984" y="1494" type="line"/>
      <point x="984" y="1553" type="line"/>
    </contour>
  </outline>
</glyph>
<glyph name="uni0189" format="2">
  <advance width="1024"/>
  <unicode hex="0189"/>
  <outline>
    <contour>
      <point x="27.0" y="935.0" type="line"/>
      <point x="27.0" y="868.0" type="line"/>
      <point x="265.0" y="868.0" type="line"/>
      <point x="265.0" y="935.0" type="line"/>
    </contour>
    <contour>
      <point x="80.5" y="1548.0" type="line"/>
      <point x="80.5" y="0.0" type="line"/>
      <point x="139.5" y="0.0" type="line"/>
      <point x="139.5" y="1548.0" type="line"/>
    </contour>
    <contour>
      <point x="755.5" y="1548.0" type="line"/>
      <point x="755.5" y="1474.0" type="line"/>
      <point x="997.0" y="767.0" type="line"/>
      <point x="997.0" y="1023.0" type="line"/>
    </contour>
    <contour>
      <point x="759.5" y="82.0" type="line"/>
      <point x="759.5" y="0.0" type="line"/>
      <point x="995.5" y="769.0" type="line"/>
      <point x="995.5" y="1023.0" type="line"/>
    </contour>
    <contour>
      <point x="120.5" y="1548.0" type="line"/>
      <point x="120.5" y="1479.0" type="line"/>
      <point x="755.5" y="1479.0" type="line"/>
      <point x="755.5" y="1548.0" type="line"/>
    </contour>
    <contour>
      <point x="124.5" y="76.0" type="line"/>
      <point x="124.5" y="0.0" type="line"/>
      <point x="759.5" y="0.0" type="line"/>
      <point x="759.5" y="76.0" type="line"/>
    </contour>
  </outline>
</glyph>
<glyph name="uni018F" format="2">
  <advance width="1024"/>
  <unicode hex="018F"/>
  <outline>
    <contour>
      <point x="804.0" y="0.0" type="line"/>
      <point x="804.0" y="80.0" type="line"/>
      <point x="265.0" y="80.0" type="line"/>
      <point x="265.0" y="0.0" type="line"/>
    </contour>
    <contour>
      <point x="854.0" y="0.0" type="line"/>
      <point x="854.0" y="1543.0" type="line"/>
      <point x="778.0" y="1543.0" type="line"/>
      <point x="778.0" y="0.0" type="line"/>
    </contour>
    <contour>
      <point x="785.0" y="1465.0" type="line"/>
      <point x="785.0" y="1543.0" type="line"/>
      <point x="170.0" y="1543.0" type="line"/>
      <point x="170.0" y="1465.0" type="line"/>
    </contour>
    <contour>
      <point x="784.0" y="801.0" type="line"/>
      <point x="784.0" y="868.0" type="line"/>
      <point x="130.0" y="868.0" type="line"/>
      <point x="130.0" y="801.0" type="line"/>
    </contour>
    <contour>
      <point x="344.0" y="30.0" type="line"/>
      <point x="184.0" y="869.0" type="line"/>
      <point x="107.0" y="869.0" type="line"/>
      <point x="267.0" y="30.0" type="line"/>
    </contour>
  </outline>
</glyph>
<glyph name="Eopen" format="2">
  <advance width="1024"/>
  <unicode hex="0190"/>
  <outline>
    <contour>
      <point x="103" y="1542" type="line"/>
      <point x="172" y="860" type="line"/>
      <point x="232" y="859" type="line"/>
      <point x="163" y="1541" type="line"/>
    </contour>
    <contour>
      <point x="146" y="1541" type="line"/>
      <point x="146" y="1481" type="line"/>
      <point x="900" y="1481" type="line"/>
      <point x="900" y="1541" type="line"/>
    </contour>
    <contour>
      <point x="170" y="60" type="line"/>
      <point x="170" y="0" type="line"/>
      <point x="916" y="0" type="line"/>
      <point x="916" y="60" type="line"/>
    </contour>
    <contour>
      <point x="234" y="861" type="line"/>
      <point x="234" y="801" type="line"/>
      <point x="669" y="801" type="line"/>
      <point x="669" y="861" type="line"/>
    </contour>
    <contour>
      <point x="173" y="804" type="line"/>
      <point x="96" y="2" type="line"/>
      <point x="156" y="1" type="line"/>
      <point x="233" y="803" type="line"/>
    </contour>
  </outline>
</glyph>
<glyph name="uni0192" format="2">
  <advance width="1024"/>
  <unicode hex="0192"/>
  <outline>
    <contour>
      <point x="485.0" y="1023.0" type="line"/>
      <point x="485.0" y="-406.0" type="line"/>
      <point x="546.0" y="-406.0" type="line"/>
      <point x="546.0" y="1023.0" type="line"/>
    </contour>
    <contour>
      <point x="512.0" y="1023.0" type="line"/>
      <point x="512.0" y="966.0" type="line"/>
      <point x="957.0" y="966.0" type="line"/>
      <point x="957.0" y="1023.0" type="line"/>
    </contour>
    <contour>
      <point x="229.0" y="559.0" type="line"/>
      <point x="229.0" y="500.0" type="line"/>
      <point x="860.0" y="500.0" type="line"/>
      <point x="860.0" y="559.0" type="line"/>
    </contour>
    <contour>
      <point x="167.0" y="-345.0" type="line"/>
      <point x="167.0" y="-406.0" type="line"/>
      <point x="539.0" y="-406.0" type="line"/>
      <point x="539.0" y="-345.0" type="line"/>
    </contour>
  </outline>
</glyph>
<glyph name="uni0194" format="2">
  <advance width="1024"/>
  <unicode hex="0194"/>
  <outline>
    <contour>
      <point x="221" y="1543" type="line"/>
      <point x="696" y="-158" type="line"/>
      <point x="756" y="-158" type="line"/>
      <point x="281" y="1543" type="line"/>
    </contour>
    <contour>
      <point x="730" y="1543" type="line"/>
      <point x="218" y="-158" type="line"/>
      <point x="278" y="-158" type="line"/>
      <point x="791" y="1543" type="line"/>
    </contour>
    <contour>
      <point x="219" y="-217" type="line"/>
      <point x="757" y="-218" type="line"/>
      <point x="757" y="-158" type="line"/>
      <point x="219" y="-158" type="line"/>
    </contour>
  </outline>
</glyph>
<glyph name="Iota_latin" format="2">
  <advance width="1024"/>
  <unicode hex="0196"/>
  <anchor x="314" y="1647" name="top"/>
  <anchor x="736" y="-26" name="base"/>
  <outline>
    <contour>
      <point x="296" y="1543" type="line"/>
      <point x="296" y="107" type="line"/>
      <point x="356" y="107" type="line"/>
      <point x="356" y="1543" type="line"/>
    </contour>
    <contour>
      <point x="296" y="172" type="line"/>
      <point x="296" y="106" type="line"/>
      <point x="792" y="6" type="line"/>
      <point x="792" y="72" type="line"/>
    </contour>
  </outline>
</glyph>
<glyph name="uni0198" format="2">
  <advance width="1024"/>
  <unicode hex="0198"/>
  <outline>
    <contour>
      <point x="172" y="1553" type="line"/>
      <point x="172" y="5" type="line"/>
      <point x="232" y="5" type="line"/>
      <point x="232" y="1553" type="line"/>
    </contour>
    <contour>
      <point x="230" y="1015" type="line"/>
      <point x="230" y="944" type="line"/>
      <point x="818" y="1550" type="line"/>
      <point x="748" y="1550" type="line"/>
    </contour>
    <contour>
      <point x="230" y="934" type="line"/>
      <point x="210" y="844" type="line"/>
      <point x="802" y="0" type="line"/>
      <point x="852" y="0" type="line"/>
    </contour>
    <contour>
      <point x="1088" y="1694" type="line"/>
      <point x="1020" y="1813" type="line"/>
      <point x="821" y="1698" type="line"/>
      <point x="890" y="1579" type="line"/>
    </contour>
    <contour>
      <point x="950" y="1728" type="line"/>
      <point x="821" y="1698" type="line"/>
      <point x="748" y="1550" type="line"/>
      <point x="818" y="1550" type="line"/>
    </contour>
  </outline>
</glyph>
<glyph name="Mturned" format="2">
  <advance width="1024"/>
  <unicode hex="019C"/>
  <anchor x="540" y="-112" name="base"/>
  <anchor x="550" y="1110" name="top"/>
  <outline>
    <contour>
      <point x="890" y="30" type="line"/>
      <point x="890" y="1546" type="line"/>
      <point x="830" y="1546" type="line"/>
      <point x="830" y="30" type="line"/>
    </contour>
    <contour>
      <point x="506" y="51" type="line"/>
      <point x="506" y="1546" type="line"/>
      <point x="446" y="1546" type="line"/>
      <point x="446" y="51" type="line"/>
    </contour>
    <contour>
      <point x="120" y="47" type="line"/>
      <point x="120" y="1546" type="line"/>
      <point x="60" y="1546" type="line"/>
      <point x="60" y="47" type="line"/>
    </contour>
    <contour>
      <point x="964" y="0" type="line"/>
      <point x="964" y="57" type="line"/>
      <point x="60" y="57" type="line"/>
      <point x="60" y="0" type="line"/>
    </contour>
  </outline>
</glyph>
<glyph name="uni01A4" format="2">
  <advance width="1024"/>
  <unicode hex="01A4"/>
  <anchor x="637" y="-29" name="base"/>
  <anchor x="614" y="1645" name="top"/>
  <outline>
    <contour>
      <point x="273" y="1535" type="line"/>
      <point x="273" y="0" type="line"/>
      <point x="332" y="0" type="line"/>
      <point x="332" y="1535" type="line"/>
    </contour>
    <contour>
      <point x="273" y="1550" type="line"/>
      <point x="273" y="1472" type="line"/>
      <point x="1033" y="1472" type="line"/>
      <point x="1033" y="1550" type="line"/>
    </contour>
    <contour>
      <point x="972" y="1536" type="line"/>
      <point x="972" y="872" type="line"/>
      <point x="1033" y="872" type="line"/>
      <point x="1033" y="1536" type="line"/>
    </contour>
    <contour>
      <point x="318" y="931" type="line"/>
      <point x="318" y="871" type="line"/>
      <point x="1005" y="871" type="line"/>
      <point x="1005" y="931" type="line"/>
    </contour>
    <contour>
      <point x="45.8741" y="1380.2" type="line"/>
      <point x="198.4" y="1417.41" type="line"/>
      <point x="166.163" y="1549.54" type="line"/>
      <point x="13.637" y="1512.32" type="line"/>
    </contour>
    <contour>
      <point x="55.108" y="1468.91" type="line"/>
      <point x="292.395" y="1483.58" type="line"/>
      <point x="328.146" y="1543.77" type="line"/>
      <point x="149.15" y="1543.33" type="line"/>
    </contour>
  </outline>
</glyph>
<glyph name="Thook" format="2">
  <advance width="1024"/>
  <unicode hex="01AC"/>
  <anchor x="624" y="1638" name="top"/>
  <anchor x="600" y="-54" name="base"/>
  <outline>
    <contour>
      <point x="228" y="1553" type="line"/>
      <point x="228" y="1494" type="line"/>
      <point x="1012" y="1494" type="line"/>
      <point x="1012" y="1553" type="line"/>
    </contour>
    <contour>
      <point x="592" y="1512" type="line"/>
      <point x="592" y="12" type="line"/>
      <point x="650" y="12" type="line"/>
      <point x="650" y="1512" type="line"/>
    </contour>
    <contour>
      <point x="555.7768584" y="1551.55526976" type="line"/>
      <point x="136.7873334" y="1548.56372708" type="line"/>
      <point x="137.2157166" y="1488.5652270799999" type="line"/>
      <point x="554.2052916" y="1491.54249032" type="line"/>
    </contour>
    <contour>
      <point x="136.7873334" y="1548.56372708" type="line"/>
      <point x="138.90069052" y="1252.57112708" type="line"/>
      <point x="198.89919052000002" y="1252.9995102799999" type="line"/>
      <point x="196.7858334" y="1548.99211028" type="line"/>
    </contour>
  </outline>
</glyph>
<glyph name="thook" format="2">
  <advance width="1024"/>
  <unicode hex="01AD"/>
  <anchor x="500" y="1642" name="top"/>
  <anchor x="500" y="-82" name="base"/>
  <outline>
    <contour>
      <point x="464" y="1529" type="line"/>
      <point x="464" y="0" type="line"/>
      <point x="524" y="0" type="line"/>
      <point x="524" y="1529" type="line"/>
    </contour>
    <contour>
      <point x="476" y="60" type="line"/>
      <point x="476" y="0" type="line"/>
      <point x="868" y="0" type="line"/>
      <point x="868" y="60" type="line"/>
    </contour>
    <contour>
      <point x="156" y="1023" type="line"/>
      <point x="156" y="965" type="line"/>
      <point x="830" y="965" type="line"/>
      <point x="830" y="1023" type="line"/>
    </contour>
    <contour>
      <point x="882.603" y="1534.42" type="line"/>
      <point x="463.634" y="1529.24" type="line"/>
      <point x="464.375" y="1469.25" type="line"/>
      <point x="881.343" y="1474.4" type="line"/>
    </contour>
    <contour>
      <point x="463.634" y="1529.24" type="line"/>
      <point x="467.288" y="1233.27" type="line"/>
      <point x="527.283" y="1234.01" type="line"/>
      <point x="523.63" y="1529.99" type="line"/>
    </contour>
  </outline>
</glyph>
<glyph name="uni01AE" format="2">
  <advance width="1024"/>
  <unicode hex="01AE"/>
  <anchor x="516" y="1638" name="top"/>
  <anchor x="492" y="-54" name="base"/>
  <outline>
    <contour>
      <point x="120" y="1553" type="line"/>
      <point x="120" y="1494" type="line"/>
      <point x="904" y="1494" type="line"/>
      <point x="904" y="1553" type="line"/>
    </contour>
    <contour>
      <point x="484" y="1512" type="line"/>
      <point x="484" y="12" type="line"/>
      <point x="542" y="12" type="line"/>
      <point x="542" y="1512" type="line"/>
    </contour>
    <contour>
      <point x="485" y="219" type="line"/>
      <point x="485" y="-200" type="line"/>
      <point x="545" y="-200" type="line"/>
      <point x="545" y="217" type="line"/>
    </contour>
    <contour>
      <point x="485" y="-200" type="line"/>
      <point x="781" y="-200" type="line"/>
      <point x="781" y="-140" type="line"/>
      <point x="485" y="-140" type="line"/>
    </contour>
  </outline>
</glyph>
<glyph name="uni01B1" format="2">
  <advance width="1024"/>
  <unicode hex="01B1"/>
  <anchor x="508" y="1642" name="top"/>
  <outline>
    <contour>
      <point x="300" y="1455" type="line"/>
      <point x="139" y="0" type="line"/>
      <point x="199" y="0" type="line"/>
      <point x="360" y="1455" type="line"/>
    </contour>
    <contour>
      <point x="739" y="1455" type="line"/>
      <point x="857" y="0" type="line"/>
      <point x="917" y="0" type="line"/>
      <point x="799" y="1455" type="line"/>
    </contour>
    <contour>
      <point x="186" y="56" type="line"/>
      <point x="186" y="0" type="line"/>
      <point x="867" y="0" type="line"/>
      <point x="867" y="63" type="line"/>
    </contour>
    <contour>
      <point x="775" y="1455" type="line"/>
      <point x="779" y="1395" type="line"/>
      <point x="1010" y="1395" type="line"/>
      <point x="1006" y="1455" type="line"/>
    </contour>
    <contour>
      <point x="89" y="1455" type="line"/>
      <point x="88" y="1395" type="line"/>
      <point x="326" y="1395" type="line"/>
      <point x="327" y="1455" type="line"/>
    </contour>
  </outline>
</glyph>
<glyph name="uni01B7" format="2">
  <advance width="1024"/>
  <unicode hex="01B7"/>
  <outline>
    <contour>
      <point x="860" y="0" type="line"/>
      <point x="860" y="60" type="line"/>
      <point x="164" y="60" type="line"/>
      <point x="164" y="0" type="line"/>
    </contour>
    <contour>
      <point x="858" y="39" type="line"/>
      <point x="862" y="889" type="line"/>
      <point x="801" y="889" type="line"/>
      <point x="797" y="39" type="line"/>
    </contour>
    <contour>
      <point x="813" y="829" type="line"/>
      <point x="813" y="889" type="line"/>
      <point x="174" y="889" type="line"/>
      <point x="174" y="829" type="line"/>
    </contour>
    <contour>
      <point x="121" y="1544" type="line"/>
      <point x="121" y="1484" type="line"/>
      <point x="949" y="1484" type="line"/>
      <point x="949" y="1544" type="line"/>
    </contour>
    <contour>
      <point x="877" y="1484" type="line"/>
      <point x="169" y="889" type="line"/>
      <point x="277" y="889" type="line"/>
      <point x="949" y="1484" type="line"/>
    </contour>
  </outline>
</glyph>
<glyph name="Ezhreversed" format="2">
  <advance width="1024"/>
  <unicode hex="01B8"/>
  <outline>
    <contour>
      <point x="210" y="0" type="line"/>
      <point x="906" y="0" type="line"/>
      <point x="906" y="60" type="line"/>
      <point x="210" y="60" type="line"/>
    </contour>
    <contour>
      <point x="212" y="39" type="line"/>
      <point x="273" y="39" type="line"/>
      <point x="269" y="889" type="line"/>
      <point x="208" y="889" type="line"/>
    </contour>
    <contour>
      <point x="257" y="829" type="line"/>
      <point x="896" y="829" type="line"/>
      <point x="896" y="889" type="line"/>
      <point x="257" y="889" type="line"/>
    </contour>
    <contour>
      <point x="949" y="1544" type="line"/>
      <point x="121" y="1544" type="line"/>
      <point x="121" y="1484" type="line"/>
      <point x="949" y="1484" type="line"/>
    </contour>
    <contour>
      <point x="193" y="1484" type="line"/>
      <point x="121" y="1484" type="line"/>
      <point x="793" y="889" type="line"/>
      <point x="901" y="889" type="line"/>
    </contour>
  </outline>
</glyph>
<glyph name="uni01B9" format="2">
  <advance width="1024"/>
  <unicode hex="01B9"/>
  <outline>
    <contour>
      <point x="210" y="0" type="line"/>
      <point x="906" y="0" type="line"/>
      <point x="906" y="60" type="line"/>
      <point x="210" y="60" type="line"/>
    </contour>
    <contour>
      <point x="212" y="39" type="line"/>
      <point x="273" y="39" type="line"/>
      <point x="269" y="619" type="line"/>
      <point x="208" y="619" type="line"/>
    </contour>
    <contour>
      <point x="257" y="559" type="line"/>
      <point x="896" y="559" type="line"/>
      <point x="896" y="619" type="line"/>
      <point x="257" y="619" type="line"/>
    </contour>
    <contour>
      <point x="949" y="1274" type="line"/>
      <point x="121" y="1274" type="line"/>
      <point x="121" y="1214" type="line"/>
      <point x="949" y="1214" type="line"/>
    </contour>
    <contour>
      <point x="193" y="1214" type="line"/>
      <point x="121" y="1214" type="line"/>
      <point x="793" y="619" type="line"/>
      <point x="901" y="619" type="line"/>
    </contour>
  </outline>
</glyph>
<glyph name="uni021D" format="2">
  <advance width="1024"/>
  <unicode hex="021D"/>
  <outline>
    <contour>
      <point x="101" y="93" type="line"/>
      <point x="903" y="327" type="line"/>
      <point x="903" y="-277" type="line"/>
      <point x="59" y="-511" type="line"/>
      <point x="68" y="-571" type="line"/>
      <point x="963" y="-337" type="line"/>
      <point x="963" y="1097" type="line"/>
      <point x="89" y="912" type="line"/>
      <point x="89" y="855" type="line"/>
      <point x="901" y="1040" type="line"/>
      <point x="901" y="387" type="line"/>
      <point x="101" y="153" type="line"/>
    </contour>
  </outline>
</glyph>
<glyph name="uni0221" format="2">
  <advance width="1024"/>
  <unicode hex="0221"/>
  <anchor x="506" y="-56" name="base"/>
  <anchor x="824" y="1642" name="top"/>
  <outline>
    <contour>
      <point x="501" y="1545" type="line"/>
      <point x="501" y="18" type="line"/>
      <point x="561" y="18" type="line"/>
      <point x="561" y="1545" type="line"/>
    </contour>
    <contour>
      <point x="50" y="1023" type="line"/>
      <point x="50" y="966" type="line"/>
      <point x="558" y="966" type="line"/>
      <point x="558" y="1023" type="line"/>
    </contour>
    <contour>
      <point x="6" y="1023" type="line"/>
      <point x="6" y="0" type="line"/>
      <point x="66" y="0" type="line"/>
      <point x="66" y="1023" type="line"/>
    </contour>
    <contour>
      <point x="46" y="59" type="line"/>
      <point x="46" y="0" type="line"/>
      <point x="934" y="0" type="line"/>
      <point x="934" y="59" type="line"/>
    </contour>
    <contour>
      <point x="561" y="-118" type="line"/>
      <point x="609" y="-193" type="line"/>
      <point x="872" y="386" type="line"/>
      <point x="870" y="508" type="line"/>
    </contour>
    <contour>
      <point x="870" y="507" type="line"/>
      <point x="870" y="6" type="line"/>
      <point x="935" y="4" type="line"/>
      <point x="935" y="505" type="line"/>
    </contour>
  </outline>
</glyph>
<glyph name="uni0222" format="2">
  <advance width="1024"/>
  <unicode hex="0222"/>
  <outline>
    <contour>
      <point x="115" y="1552" type="line"/>
      <point x="115" y="692" type="line"/>
      <point x="175" y="692" type="line"/>
      <point x="175" y="1552" type="line"/>
    </contour>
    <contour>
      <point x="867" y="1552" type="line"/>
      <point x="864" y="696" type="line"/>
      <point x="924" y="696" type="line"/>
      <point x="927" y="1552" type="line"/>
    </contour>
    <contour>
      <point x="102" y="637" type="line"/>
      <point x="100" y="581" type="line"/>
      <point x="944" y="578" type="line"/>
      <point x="942" y="641" type="line"/>
    </contour>
    <contour>
      <point x="102" y="637" type="line"/>
      <point x="95" y="24" type="line"/>
      <point x="158" y="24" type="line"/>
      <point x="158" y="637" type="line"/>
    </contour>
    <contour>
      <point x="884" y="638" type="line"/>
      <point x="890" y="0" type="line"/>
      <point x="951" y="3" type="line"/>
      <point x="942" y="641" type="line"/>
    </contour>
    <contour>
      <point x="94" y="60" type="line"/>
      <point x="92" y="0" type="line"/>
      <point x="942" y="0" type="line"/>
      <point x="942" y="60" type="line"/>
    </contour>
    <contour>
      <point x="942" y="636" type="line"/>
      <point x="113" y="782" type="line"/>
      <point x="117" y="691" type="line"/>
      <point x="944" y="578" type="line"/>
    </contour>
    <contour>
      <point x="101" y="581" type="line"/>
      <point x="924" y="696" type="line"/>
      <point x="919" y="778" type="line"/>
      <point x="102" y="633" type="line"/>
    </contour>
    <contour>
      <point x="422" y="1551" type="line"/>
      <point x="124" y="1549" type="line"/>
      <point x="123" y="1493" type="line"/>
      <point x="424" y="1492" type="line"/>
    </contour>
    <contour>
      <point x="604" y="1492" type="line"/>
      <point x="931" y="1490" type="line"/>
      <point x="929" y="1553" type="line"/>
      <point x="602" y="1551" type="line"/>
    </contour>
  </outline>
</glyph>
<glyph name="uni0222" format="2">
  <advance width="1024"/>
  <unicode hex="0222"/>
  <outline>
    <contour>
      <point x="107" y="1548" type="line"/>
      <point x="105" y="838" type="line"/>
      <point x="165" y="838" type="line"/>
      <point x="167" y="1548" type="line"/>
    </contour>
    <contour>
      <point x="856" y="1548" type="line"/>
      <point x="854" y="842" type="line"/>
      <point x="914" y="842" type="line"/>
      <point x="916" y="1548" type="line"/>
    </contour>
    <contour>
      <point x="92" y="779" type="line"/>
      <point x="90" y="722" type="line"/>
      <point x="934" y="719" type="line"/>
      <point x="932" y="783" type="line"/>
    </contour>
    <contour>
      <point x="92" y="779" type="line"/>
      <point x="85" y="24" type="line"/>
      <point x="149" y="24" type="line"/>
      <point x="149" y="779" type="line"/>
    </contour>
    <contour>
      <point x="873" y="780" type="line"/>
      <point x="879" y="0" type="line"/>
      <point x="941" y="3" type="line"/>
      <point x="932" y="783" type="line"/>
    </contour>
    <contour>
      <point x="84" y="60" type="line"/>
      <point x="82" y="0" type="line"/>
      <point x="932" y="0" type="line"/>
      <point x="932" y="60" type="line"/>
    </contour>
    <contour>
      <point x="932" y="783" type="line"/>
      <point x="103" y="929" type="line"/>
      <point x="107" y="837" type="line"/>
      <point x="934" y="719" type="line"/>
    </contour>
    <contour>
      <point x="91" y="722" type="line"/>
      <point x="914" y="842" type="line"/>
      <point x="909" y="925" type="line"/>
      <point x="92" y="780" type="line"/>
    </contour>
    <contour>
      <point x="399" y="1548" type="line"/>
      <point x="107" y="1548" type="line"/>
      <point x="106" y="1489" type="line"/>
      <point x="401" y="1488" type="line"/>
    </contour>
    <contour>
      <point x="624" y="1487" type="line"/>
      <point x="915" y="1486" type="line"/>
      <point x="916" y="1548" type="line"/>
      <point x="622" y="1546" type="line"/>
    </contour>
  </outline>
</glyph>
<glyph name="ou" format="2">
  <advance width="1024"/>
  <unicode hex="0223"/>
  <outline>
    <contour>
      <point x="115" y="1552" type="line"/>
      <point x="115" y="692" type="line"/>
      <point x="175" y="692" type="line"/>
      <point x="175" y="1552" type="line"/>
    </contour>
    <contour>
      <point x="867" y="1552" type="line"/>
      <point x="864" y="696" type="line"/>
      <point x="924" y="696" type="line"/>
      <point x="927" y="1552" type="line"/>
    </contour>
    <contour>
      <point x="102" y="637" type="line"/>
      <point x="100" y="581" type="line"/>
      <point x="944" y="578" type="line"/>
      <point x="942" y="641" type="line"/>
    </contour>
    <contour>
      <point x="102" y="637" type="line"/>
      <point x="95" y="24" type="line"/>
      <point x="158" y="24" type="line"/>
      <point x="158" y="637" type="line"/>
    </contour>
    <contour>
      <point x="884" y="638" type="line"/>
      <point x="890" y="0" type="line"/>
      <point x="951" y="3" type="line"/>
      <point x="942" y="641" type="line"/>
    </contour>
    <contour>
      <point x="94" y="60" type="line"/>
      <point x="92" y="0" type="line"/>
      <point x="942" y="0" type="line"/>
      <point x="942" y="60" type="line"/>
    </contour>
    <contour>
      <point x="942" y="636" type="line"/>
      <point x="113" y="782" type="line"/>
      <point x="117" y="691" type="line"/>
      <point x="944" y="578" type="line"/>
    </contour>
    <contour>
      <point x="101" y="581" type="line"/>
      <point x="924" y="696" type="line"/>
      <point x="919" y="778" type="line"/>
      <point x="102" y="633" type="line"/>
    </contour>
  </outline>
</glyph>
<glyph name="uni0223" format="2">
  <advance width="1024"/>
  <unicode hex="0223"/>
  <outline>
    <contour>
      <point x="115" y="1552" type="line"/>
      <point x="115" y="831" type="line"/>
      <point x="175" y="831" type="line"/>
      <point x="175" y="1552" type="line"/>
    </contour>
    <contour>
      <point x="867" y="1552" type="line"/>
      <point x="864" y="835" type="line"/>
      <point x="924" y="835" type="line"/>
      <point x="927" y="1552" type="line"/>
    </contour>
    <contour>
      <point x="102" y="779" type="line"/>
      <point x="100" y="723" type="line"/>
      <point x="944" y="720" type="line"/>
      <point x="942" y="783" type="line"/>
    </contour>
    <contour>
      <point x="102" y="779" type="line"/>
      <point x="95" y="24" type="line"/>
      <point x="159" y="24" type="line"/>
      <point x="159" y="779" type="line"/>
    </contour>
    <contour>
      <point x="883" y="780" type="line"/>
      <point x="889" y="0" type="line"/>
      <point x="951" y="3" type="line"/>
      <point x="942" y="783" type="line"/>
    </contour>
    <contour>
      <point x="94" y="60" type="line"/>
      <point x="92" y="0" type="line"/>
      <point x="942" y="0" type="line"/>
      <point x="942" y="60" type="line"/>
    </contour>
    <contour>
      <point x="942" y="783" type="line"/>
      <point x="113" y="899" type="line"/>
      <point x="117" y="830" type="line"/>
      <point x="944" y="720" type="line"/>
    </contour>
    <contour>
      <point x="101" y="723" type="line"/>
      <point x="924" y="835" type="line"/>
      <point x="919" y="895" type="line"/>
      <point x="102" y="780" type="line"/>
    </contour>
  </outline>
</glyph>
<glyph name="uni0234" format="2">
  <advance width="1024"/>
  <unicode hex="0234"/>
  <anchor x="538" y="-68" name="base"/>
  <anchor x="520" y="1654" name="top"/>
  <outline>
    <contour>
      <point x="539" y="129" type="line"/>
      <point x="539" y="57" type="line"/>
      <point x="842" y="340" type="line"/>
      <point x="842" y="412" type="line"/>
    </contour>
    <contour>
      <point x="482" y="1553" type="line"/>
      <point x="482" y="57" type="line"/>
      <point x="539" y="57" type="line"/>
      <point x="539" y="1553" type="line"/>
    </contour>
    <contour>
      <point x="256" y="1553" type="line"/>
      <point x="256" y="1494" type="line"/>
      <point x="491" y="1494" type="line"/>
      <point x="491" y="1553" type="line"/>
    </contour>
    <contour>
      <point x="177" y="362" type="line"/>
      <point x="177" y="290" type="line"/>
      <point x="846" y="352" type="line"/>
      <point x="846" y="424" type="line"/>
    </contour>
  </outline>
</glyph>
<glyph name="ncurl" format="2">
  <advance width="1024"/>
  <unicode hex="0235"/>
  <anchor x="530" y="-64" name="base"/>
  <anchor x="492" y="1158" name="top"/>
  <outline>
    <contour>
      <point x="178" y="990" type="line"/>
      <point x="178" y="0" type="line"/>
      <point x="239" y="0" type="line"/>
      <point x="239" y="990" type="line"/>
    </contour>
    <contour>
      <point x="718" y="976" type="line"/>
      <point x="718" y="0" type="line"/>
      <point x="778" y="0" type="line"/>
      <point x="778" y="976" type="line"/>
    </contour>
    <contour>
      <point x="-2" y="1023" type="line"/>
      <point x="-2" y="967" type="line"/>
      <point x="776" y="967" type="line"/>
      <point x="776" y="1023" type="line"/>
    </contour>
    <contour>
      <point x="511" y="51" type="line"/>
      <point x="511" y="-5" type="line"/>
      <point x="947" y="295" type="line"/>
      <point x="947" y="351" type="line"/>
    </contour>
    <contour>
      <point x="765" y="54" type="line"/>
      <point x="765" y="-2" type="line"/>
      <point x="954" y="-2" type="line"/>
      <point x="954" y="54" type="line"/>
    </contour>
    <contour>
      <point x="947" y="351" type="line"/>
      <point x="947" y="-2" type="line"/>
      <point x="1006" y="0" type="line"/>
      <point x="1006" y="353" type="line"/>
    </contour>
  </outline>
</glyph>
<glyph name="tcurl" format="2">
  <advance width="1024"/>
  <unicode hex="0236"/>
  <anchor x="500" y="1642" name="top"/>
  <anchor x="500" y="-82" name="base"/>
  <outline>
    <contour>
      <point x="464" y="1529" type="line"/>
      <point x="464" y="0" type="line"/>
      <point x="524" y="0" type="line"/>
      <point x="524" y="1529" type="line"/>
    </contour>
    <contour>
      <point x="476" y="60" type="line"/>
      <point x="476" y="0" type="line"/>
      <point x="868" y="0" type="line"/>
      <point x="868" y="60" type="line"/>
    </contour>
    <contour>
      <point x="156" y="1023" type="line"/>
      <point x="156" y="965" type="line"/>
      <point x="830" y="965" type="line"/>
      <point x="830" y="1023" type="line"/>
    </contour>
    <contour>
      <point x="231" y="62" type="line"/>
      <point x="231" y="4" type="line"/>
      <point x="869" y="242" type="line"/>
      <point x="869" y="300" type="line"/>
    </contour>
    <contour>
      <point x="809" y="7" type="line"/>
      <point x="869" y="7" type="line"/>
      <point x="869" y="242" type="line"/>
      <point x="809" y="242" type="line"/>
    </contour>
  </outline>
</glyph>
<glyph name="uni0237" format="2">
  <advance width="1024"/>
  <unicode hex="0237"/>
  <outline>
    <contour>
      <point x="744" y="1024" type="line"/>
      <point x="744" y="-411" type="line"/>
      <point x="803" y="-411" type="line"/>
      <point x="803" y="1024" type="line"/>
    </contour>
    <contour>
      <point x="174" y="-348" type="line"/>
      <point x="174" y="-409" type="line"/>
      <point x="764" y="-409" type="line"/>
      <point x="764" y="-348" type="line"/>
    </contour>
    <contour>
      <point x="175" y="-6" type="line"/>
      <point x="175" y="-378" type="line"/>
      <point x="235" y="-378" type="line"/>
      <point x="235" y="-6" type="line"/>
    </contour>
  </outline>
</glyph>
<glyph name="aturned" format="2">
  <advance width="1024"/>
  <unicode hex="0250"/>
  <anchor x="524" y="-111" name="top"/>
  <anchor x="485" y="1103" name="base"/>
  <outline>
    <contour>
      <point x="856" y="-1" type="line"/>
      <point x="856" y="66" type="line"/>
      <point x="207" y="66" type="line"/>
      <point x="207" y="0" type="line"/>
    </contour>
    <contour>
      <point x="245" y="0" type="line"/>
      <point x="245" y="1096" type="line"/>
      <point x="168" y="1096" type="line"/>
      <point x="168" y="0" type="line"/>
    </contour>
    <contour>
      <point x="853" y="423" type="line"/>
      <point x="853" y="485" type="line"/>
      <point x="229" y="485" type="line"/>
      <point x="229" y="423" type="line"/>
    </contour>
    <contour>
      <point x="852" y="446" type="line"/>
      <point x="852" y="1023" type="line"/>
      <point x="781" y="1023" type="line"/>
      <point x="781" y="446" type="line"/>
    </contour>
    <contour>
      <point x="843" y="949" type="line"/>
      <point x="843" y="1023" type="line"/>
      <point x="179" y="1023" type="line"/>
      <point x="179" y="949" type="line"/>
    </contour>
  </outline>
</glyph>
<glyph name="oopen" format="2">
  <advance width="1024"/>
  <unicode hex="0254"/>
  <anchor x="498" y="-36" name="base"/>
  <anchor x="521" y="1116" name="top"/>
  <outline>
    <contour>
      <point x="860" y="0" type="line"/>
      <point x="860" y="56" type="line"/>
      <point x="164" y="56" type="line"/>
      <point x="164" y="0" type="line"/>
    </contour>
    <contour>
      <point x="858" y="39" type="line"/>
      <point x="858" y="1023" type="line"/>
      <point x="798" y="1023" type="line"/>
      <point x="798" y="39" type="line"/>
    </contour>
    <contour>
      <point x="810" y="963" type="line"/>
      <point x="810" y="1023" type="line"/>
      <point x="170" y="1023" type="line"/>
      <point x="170" y="963" type="line"/>
    </contour>
  </outline>
</glyph>
<glyph name="uni0259" format="2">
  <advance width="1024"/>
  <unicode hex="0259"/>
  <outline>
    <contour>
      <point x="804.0" y="0.0" type="line"/>
      <point x="804.0" y="107.0" type="line"/>
      <point x="240.0" y="174.0" type="line"/>
      <point x="240.0" y="67.0" type="line"/>
    </contour>
    <contour>
      <point x="854.0" y="0.0" type="line"/>
      <point x="854.0" y="1023.0" type="line"/>
      <point x="753.0" y="1023.0" type="line"/>
      <point x="753.0" y="0.0" type="line"/>
    </contour>
    <contour>
      <point x="752.0" y="914.0" type="line"/>
      <point x="752.0" y="1023.0" type="line"/>
      <point x="170.0" y="1023.0" type="line"/>
      <point x="170.0" y="914.0" type="line"/>
    </contour>
    <contour>
      <point x="784.0" y="494.0" type="line"/>
      <point x="784.0" y="577.0" type="line"/>
      <point x="194.0" y="577.0" type="line"/>
      <point x="194.0" y="494.0" type="line"/>
    </contour>
    <contour>
      <point x="318.0" y="97.0" type="line"/>
      <point x="247.0" y="578.0" type="line"/>
      <point x="171.0" y="578.0" type="line"/>
      <point x="242.0" y="97.0" type="line"/>
    </contour>
  </outline>
</glyph>
<glyph name="eopen" format="2">
  <advance width="1024"/>
  <unicode hex="025B"/>
  <anchor x="546" y="1210" name="top"/>
  <anchor x="492" y="-96" name="base"/>
  <outline>
    <contour>
      <point x="103" y="1140" type="line"/>
      <point x="172" y="599" type="line"/>
      <point x="232" y="598" type="line"/>
      <point x="163" y="1139" type="line"/>
    </contour>
    <contour>
      <point x="146" y="1139" type="line"/>
      <point x="146" y="1079" type="line"/>
      <point x="900" y="1079" type="line"/>
      <point x="900" y="1139" type="line"/>
    </contour>
    <contour>
      <point x="170" y="60" type="line"/>
      <point x="170" y="0" type="line"/>
      <point x="916" y="0" type="line"/>
      <point x="916" y="60" type="line"/>
    </contour>
    <contour>
      <point x="234" y="600" type="line"/>
      <point x="234" y="540" type="line"/>
      <point x="669" y="540" type="line"/>
      <point x="669" y="600" type="line"/>
    </contour>
    <contour>
      <point x="173" y="543" type="line"/>
      <point x="96" y="2" type="line"/>
      <point x="156" y="1" type="line"/>
      <point x="233" y="542" type="line"/>
    </contour>
  </outline>
</glyph>
<glyph name="uni0264" format="2">
  <advance width="1024"/>
  <unicode hex="0264"/>
  <anchor x="498" y="1120" name="top"/>
  <outline>
    <contour>
      <point x="221" y="935" type="line"/>
      <point x="696" y="202" type="line"/>
      <point x="756" y="202" type="line"/>
      <point x="281" y="935" type="line"/>
    </contour>
    <contour>
      <point x="730" y="965" type="line"/>
      <point x="218" y="202" type="line"/>
      <point x="278" y="202" type="line"/>
      <point x="791" y="965" type="line"/>
    </contour>
    <contour>
      <point x="219" y="143" type="line"/>
      <point x="757" y="142" type="line"/>
      <point x="757" y="202" type="line"/>
      <point x="219" y="202" type="line"/>
    </contour>
  </outline>
</glyph>
<glyph name="iota_latin" format="2">
  <advance width="1024"/>
  <unicode hex="0269"/>
  <outline>
    <contour>
      <point x="296" y="1018" type="line"/>
      <point x="296" y="107" type="line"/>
      <point x="356" y="107" type="line"/>
      <point x="356" y="1018" type="line"/>
    </contour>
    <contour>
      <point x="296" y="172" type="line"/>
      <point x="296" y="106" type="line"/>
      <point x="792" y="6" type="line"/>
      <point x="792" y="72" type="line"/>
    </contour>
  </outline>
</glyph>
<glyph name="uni026A" format="2">
  <advance width="1024"/>
  <unicode hex="026A"/>
  <anchor x="470" y="1641" name="top"/>
  <anchor x="736" y="-26" name="base"/>
  <outline>
    <contour>
      <point x="154" y="1032" type="line"/>
      <point x="154" y="971" type="line"/>
      <point x="855" y="971" type="line"/>
      <point x="855" y="1032" type="line"/>
    </contour>
    <contour>
      <point x="478" y="997" type="line"/>
      <point x="478" y="34" type="line"/>
      <point x="537" y="34" type="line"/>
      <point x="537" y="997" type="line"/>
    </contour>
    <contour>
      <point x="134" y="66" type="line"/>
      <point x="134" y="6" type="line"/>
      <point x="890" y="6" type="line"/>
      <point x="890" y="66" type="line"/>
    </contour>
  </outline>
</glyph>
<glyph name="uni026C" format="2">
  <advance width="1024"/>
  <unicode hex="026C"/>
  <anchor x="538" y="-68" name="base"/>
  <anchor x="520" y="1654" name="top"/>
  <outline>
    <contour>
      <point x="202" y="675" type="line"/>
      <point x="202" y="615" type="line"/>
      <point x="890" y="615" type="line"/>
      <point x="890" y="675" type="line"/>
    </contour>
    <contour>
      <point x="202" y="1026" type="line"/>
      <point x="202" y="615" type="line"/>
      <point x="262" y="615" type="line"/>
      <point x="262" y="1026" type="line"/>
    </contour>
    <contour>
      <point x="202" y="1026" type="line"/>
      <point x="202" y="967" type="line"/>
      <point x="510" y="967" type="line"/>
      <point x="510" y="1026" type="line"/>
    </contour>
    <contour>
      <point x="195" y="60" type="line"/>
      <point x="195" y="0" type="line"/>
      <point x="829" y="0" type="line"/>
      <point x="829" y="60" type="line"/>
    </contour>
    <contour>
      <point x="482" y="1553" type="line"/>
      <point x="482" y="57" type="line"/>
      <point x="542" y="57" type="line"/>
      <point x="542" y="1553" type="line"/>
    </contour>
    <contour>
      <point x="256" y="1553" type="line"/>
      <point x="256" y="1494" type="line"/>
      <point x="491" y="1494" type="line"/>
      <point x="491" y="1553" type="line"/>
    </contour>
  </outline>
</glyph>
<glyph name="uni0275" format="2">
  <advance width="1024"/>
  <unicode hex="0275"/>
  <anchor x="546" y="1158" name="top"/>
  <anchor x="536" y="-38" name="base"/>
  <outline>
    <contour>
      <point x="103" y="1023" type="line"/>
      <point x="103" y="0" type="line"/>
      <point x="162" y="0" type="line"/>
      <point x="162" y="1023" type="line"/>
    </contour>
    <contour>
      <point x="860" y="1023" type="line"/>
      <point x="860" y="0" type="line"/>
      <point x="921" y="0" type="line"/>
      <point x="921" y="1023" type="line"/>
    </contour>
    <contour>
      <point x="164" y="1023" type="line"/>
      <point x="164" y="967" type="line"/>
      <point x="865" y="967" type="line"/>
      <point x="865" y="1023" type="line"/>
    </contour>
    <contour>
      <point x="149" y="62" type="line"/>
      <point x="149" y="0" type="line"/>
      <point x="868" y="0" type="line"/>
      <point x="868" y="62" type="line"/>
    </contour>
    <contour>
      <point x="145.752" y="616" type="line"/>
      <point x="145.752" y="556" type="line"/>
      <point x="874.63" y="556" type="line"/>
      <point x="874.63" y="616" type="line"/>
    </contour>
  </outline>
</glyph>
<glyph name="uni027F" format="2">
  <advance width="1024"/>
  <unicode hex="027F"/>
  <anchor x="587" y="1112" name="top"/>
  <anchor x="400" y="-70" name="base"/>
  <outline>
    <contour>
      <point x="146" y="1023" type="line"/>
      <point x="146" y="961" type="line"/>
      <point x="736" y="961" type="line"/>
      <point x="736" y="1023" type="line"/>
    </contour>
    <contour>
      <point x="676" y="989" type="line"/>
      <point x="676" y="-492" type="line"/>
      <point x="736" y="-492" type="line"/>
      <point x="736" y="989" type="line"/>
    </contour>
  </outline>
</glyph>
<glyph name="esh" format="2">
  <advance width="1024"/>
  <unicode hex="0283"/>
  <outline>
    <contour>
      <point x="534" y="1641" type="line"/>
      <point x="311" y="-399" type="line"/>
      <point x="378" y="-399" type="line"/>
      <point x="601" y="1641" type="line"/>
    </contour>
    <contour>
      <point x="131" y="-340" type="line"/>
      <point x="131" y="-398" type="line"/>
      <point x="377" y="-398" type="line"/>
      <point x="377" y="-340" type="line"/>
    </contour>
    <contour>
      <point x="606" y="1641" type="line"/>
      <point x="606" y="1575" type="line"/>
      <point x="925" y="1575" type="line"/>
      <point x="925" y="1641" type="line"/>
    </contour>
  </outline>
</glyph>
<glyph name="uni0285" format="2">
  <advance width="1024"/>
  <unicode hex="0285"/>
  <outline>
    <contour>
      <point x="325" y="1001" type="line"/>
      <point x="493" y="-408" type="line"/>
      <point x="560" y="-408" type="line"/>
      <point x="392" y="1001" type="line"/>
    </contour>
    <contour>
      <point x="542" y="-350" type="line"/>
      <point x="542" y="-408" type="line"/>
      <point x="970" y="-408" type="line"/>
      <point x="970" y="-350" type="line"/>
    </contour>
    <contour>
      <point x="68" y="1001" type="line"/>
      <point x="68" y="935" type="line"/>
      <point x="387" y="935" type="line"/>
      <point x="387" y="1001" type="line"/>
    </contour>
  </outline>
</glyph>
<glyph name="uni0288" format="2">
  <advance width="1024"/>
  <unicode hex="0288"/>
  <anchor x="500" y="1642" name="top"/>
  <anchor x="521" y="-487" name="base"/>
  <outline>
    <contour>
      <point x="464" y="1529" type="line"/>
      <point x="464" y="-423" type="line"/>
      <point x="524" y="-423" type="line"/>
      <point x="524" y="1529" type="line"/>
    </contour>
    <contour>
      <point x="476" y="-363" type="line"/>
      <point x="476" y="-423" type="line"/>
      <point x="868" y="-423" type="line"/>
      <point x="868" y="-363" type="line"/>
    </contour>
    <contour>
      <point x="156" y="1023" type="line"/>
      <point x="156" y="965" type="line"/>
      <point x="830" y="965" type="line"/>
      <point x="830" y="1023" type="line"/>
    </contour>
  </outline>
</glyph>
<glyph name="upsilon_latin" format="2">
  <advance width="1024"/>
  <unicode hex="028A"/>
  <outline>
    <contour>
      <point x="300" y="1023" type="line"/>
      <point x="139" y="0" type="line"/>
      <point x="199" y="0" type="line"/>
      <point x="360" y="1023" type="line"/>
    </contour>
    <contour>
      <point x="739" y="1023" type="line"/>
      <point x="857" y="0" type="line"/>
      <point x="917" y="0" type="line"/>
      <point x="799" y="1023" type="line"/>
    </contour>
    <contour>
      <point x="186" y="56" type="line"/>
      <point x="186" y="0" type="line"/>
      <point x="867" y="0" type="line"/>
      <point x="867" y="63" type="line"/>
    </contour>
    <contour>
      <point x="775" y="1023" type="line"/>
      <point x="779" y="963" type="line"/>
      <point x="1010" y="963" type="line"/>
      <point x="1006" y="1023" type="line"/>
    </contour>
    <contour>
      <point x="89" y="1023" type="line"/>
      <point x="88" y="963" type="line"/>
      <point x="326" y="963" type="line"/>
      <point x="327" y="1023" type="line"/>
    </contour>
  </outline>
</glyph>
<glyph name="vhook" format="2">
  <advance width="1024"/>
  <unicode hex="028B"/>
  <anchor x="504" y="1158" name="top"/>
  <anchor x="536" y="-38" name="base"/>
  <outline>
    <contour>
      <point x="103" y="1023" type="line"/>
      <point x="103" y="0" type="line"/>
      <point x="162" y="0" type="line"/>
      <point x="162" y="1023" type="line"/>
    </contour>
    <contour>
      <point x="860" y="1023" type="line"/>
      <point x="860" y="0" type="line"/>
      <point x="921" y="0" type="line"/>
      <point x="921" y="1023" type="line"/>
    </contour>
    <contour>
      <point x="523" y="1023" type="line"/>
      <point x="523" y="967" type="line"/>
      <point x="865" y="967" type="line"/>
      <point x="865" y="1023" type="line"/>
    </contour>
    <contour>
      <point x="149" y="62" type="line"/>
      <point x="149" y="0" type="line"/>
      <point x="868" y="0" type="line"/>
      <point x="868" y="62" type="line"/>
    </contour>
  </outline>
</glyph>
<glyph name="ezh" format="2">
  <advance width="1024"/>
  <unicode hex="0292"/>
  <outline>
    <contour>
      <point x="860" y="0" type="line"/>
      <point x="860" y="60" type="line"/>
      <point x="164" y="60" type="line"/>
      <point x="164" y="0" type="line"/>
    </contour>
    <contour>
      <point x="858" y="39" type="line"/>
      <point x="862" y="619" type="line"/>
      <point x="801" y="619" type="line"/>
      <point x="797" y="39" type="line"/>
    </contour>
    <contour>
      <point x="813" y="559" type="line"/>
      <point x="813" y="619" type="line"/>
      <point x="174" y="619" type="line"/>
      <point x="174" y="559" type="line"/>
    </contour>
    <contour>
      <point x="121" y="1274" type="line"/>
      <point x="121" y="1214" type="line"/>
      <point x="949" y="1214" type="line"/>
      <point x="949" y="1274" type="line"/>
    </contour>
    <contour>
      <point x="877" y="1214" type="line"/>
      <point x="169" y="619" type="line"/>
      <point x="277" y="619" type="line"/>
      <point x="949" y="1214" type="line"/>
    </contour>
  </outline>
</glyph>
<glyph name="glottalstop" format="2">
  <advance width="1024"/>
  <unicode hex="0294"/>
  <outline>
    <contour>
      <point x="292" y="1543" type="line"/>
      <point x="292" y="1483" type="line"/>
      <point x="820" y="1483" type="line"/>
      <point x="820" y="1543" type="line"/>
    </contour>
    <contour>
      <point x="760" y="1543" type="line"/>
      <point x="760" y="1028" type="line"/>
      <point x="820" y="1028" type="line"/>
      <point x="820" y="1543" type="line"/>
    </contour>
    <contour>
      <point x="360" y="1073" type="line"/>
      <point x="360" y="1013" type="line"/>
      <point x="820" y="1013" type="line"/>
      <point x="820" y="1073" type="line"/>
    </contour>
    <contour>
      <point x="347" y="1073" type="line"/>
      <point x="347" y="167" type="line"/>
      <point x="407" y="167" type="line"/>
      <point x="407" y="1073" type="line"/>
    </contour>
  </outline>
</glyph>
<glyph name="uni029D" format="2">
  <advance width="1024"/>
  <unicode hex="029D"/>
  <anchor x="800" y="1306" name="top"/>
  <anchor x="550" y="-476" name="base"/>
  <outline>
    <contour>
      <point x="768" y="1023" type="line"/>
      <point x="768" y="-411" type="line"/>
      <point x="826" y="-411" type="line"/>
      <point x="826" y="1023" type="line"/>
    </contour>
    <contour>
      <point x="198" y="-348" type="line"/>
      <point x="198" y="-406" type="line"/>
      <point x="788" y="-406" type="line"/>
      <point x="788" y="-348" type="line"/>
    </contour>
    <contour>
      <point x="198" y="-6" type="line"/>
      <point x="198" y="-378" type="line"/>
      <point x="258" y="-378" type="line"/>
      <point x="258" y="-6" type="line"/>
    </contour>
    <contour>
      <point x="766" y="1201" type="line"/>
      <point x="766" y="1142" type="line"/>
      <point x="826" y="1142" type="line"/>
      <point x="826" y="1201" type="line"/>
    </contour>
    <contour>
      <point x="200" y="-33" type="line"/>
      <point x="1026" y="-33" type="line"/>
      <point x="1026" y="47" type="line"/>
      <point x="200" y="47" type="line"/>
    </contour>
  </outline>
</glyph>
<glyph name="glottalstopmod" format="2">
  <advance width="1024"/>
  <unicode hex="02C0"/>
  <outline>
    <contour>
      <point x="292" y="1543" type="line"/>
      <point x="292" y="1483" type="line"/>
      <point x="820" y="1483" type="line"/>
      <point x="820" y="1543" type="line"/>
    </contour>
    <contour>
      <point x="760" y="1543" type="line"/>
      <point x="760" y="1028" type="line"/>
      <point x="820" y="1028" type="line"/>
      <point x="820" y="1543" type="line"/>
    </contour>
    <contour>
      <point x="360" y="1073" type="line"/>
      <point x="360" y="1013" type="line"/>
      <point x="820" y="1013" type="line"/>
      <point x="820" y="1073" type="line"/>
    </contour>
    <contour>
      <point x="347" y="1073" type="line"/>
      <point x="347" y="572" type="line"/>
      <point x="407" y="572" type="line"/>
      <point x="407" y="1073" type="line"/>
    </contour>
  </outline>
</glyph>
<glyph name="circumflex" format="2">
  <advance width="1024"/>
  <unicode hex="02C6"/>
  <outline>
    <contour>
      <point x="511.0" y="1308.0" type="line"/>
      <point x="475.0" y="1308.0" type="line"/>
      <point x="343.0" y="998.0" type="line"/>
      <point x="370.0" y="981.0" type="line"/>
    </contour>
    <contour>
      <point x="478.0" y="1310.0" type="line"/>
      <point x="640.0" y="976.0" type="line"/>
      <point x="681.0" y="994.0" type="line"/>
      <point x="515.0" y="1310.0" type="line"/>
    </contour>
  </outline>
</glyph>
<glyph name="caron" format="2">
  <advance width="1024"/>
  <unicode hex="02C7"/>
  <outline>
    <contour>
      <point x="524" y="1068" type="line"/>
      <point x="383" y="1395" type="line"/>
      <point x="356" y="1378" type="line"/>
      <point x="488" y="1068" type="line"/>
    </contour>
    <contour>
      <point x="491" y="1067" type="line"/>
      <point x="528" y="1067" type="line"/>
      <point x="694" y="1382" type="line"/>
      <point x="653" y="1400" type="line"/>
    </contour>
  </outline>
</glyph>
<glyph name="uni02C8" format="2">
  <advance width="1024"/>
  <unicode hex="02C8"/>
  <outline>
    <contour>
      <point x="472" y="1823" type="line"/>
      <point x="472" y="1025" type="line"/>
      <point x="535" y="1025" type="line"/>
      <point x="535" y="1823" type="line"/>
    </contour>
  </outline>
</glyph>
<glyph name="uni02C9" format="2">
  <advance width="1024"/>
  <unicode hex="02C9"/>
  <outline>
    <contour>
      <point x="232.0" y="1630.0" type="line"/>
      <point x="232.0" y="1550.0" type="line"/>
      <point x="792.0" y="1550.0" type="line"/>
      <point x="792.0" y="1630.0" type="line"/>
    </contour>
  </outline>
</glyph>
<glyph name="uni02CA" format="2">
	<unicode hex="02CA"/>
	<advance width="1024"/>
	<outline>
		<contour>
			<point x="525" y="949" type="line"/>
			<point x="446" y="764" type="line"/>
			<point x="499" y="730" type="line"/>
			<point x="578" y="915" type="line"/>
		</contour>
	</outline>
</glyph>
<glyph name="uni02CB" format="2">
  <advance width="1024"/>
  <unicode hex="02CB"/>
  <outline>
    <contour>
      <point x="420.0" y="877.0" type="line"/>
      <point x="544.0" y="673.0" type="line"/>
      <point x="604.0" y="727.0" type="line"/>
      <point x="480.0" y="932.0" type="line"/>
    </contour>
  </outline>
</glyph>
<glyph name="breve" format="2">
  <advance width="1024"/>
  <unicode hex="02D8"/>
  <outline>
    <contour>
      <point x="656.0" y="1550.0" type="line"/>
      <point x="656.0" y="1480.0" type="line"/>
      <point x="821.0" y="1550.0" type="line"/>
      <point x="821.0" y="1645.0" type="line"/>
    </contour>
    <contour>
      <point x="332.0" y="1550.0" type="line"/>
      <point x="332.0" y="1480.0" type="line"/>
      <point x="656.0" y="1480.0" type="line"/>
      <point x="656.0" y="1550.0" type="line"/>
    </contour>
    <contour>
      <point x="161.0" y="1630.0" type="line"/>
      <point x="161.0" y="1550.0" type="line"/>
      <point x="332.0" y="1480.0" type="line"/>
      <point x="332.0" y="1550.0" type="line"/>
    </contour>
  </outline>
</glyph>
<glyph name="dotaccent" format="2">
  <advance width="1024"/>
  <unicode hex="02D9"/>
  <outline>
    <contour>
      <point x="490" y="1078" type="line"/>
      <point x="490" y="977" type="line"/>
      <point x="602" y="977" type="line"/>
      <point x="602" y="1078" type="line"/>
    </contour>
  </outline>
</glyph>
<glyph name="ring" format="2">
  <advance width="1024"/>
  <unicode hex="02DA"/>
  <outline>
    <contour>
      <point x="418.469" y="1302.45" type="line"/>
      <point x="707.531" y="1302.45" type="line"/>
      <point x="707.531" y="1048.55" type="line"/>
      <point x="418.469" y="1048.55" type="line"/>
    </contour>
    <contour>
      <point x="384" y="1331" type="line"/>
      <point x="384" y="1022" type="line"/>
      <point x="744" y="1022" type="line"/>
      <point x="744" y="1331" type="line"/>
    </contour>
  </outline>
</glyph>
<glyph name="ogonek" format="2">
  <advance width="1024"/>
  <unicode hex="02DB"/>
  <outline>
    <contour>
      <point x="227.0" y="-300.0" type="line"/>
      <point x="227.0" y="-360.0" type="line"/>
      <point x="768.0" y="-360.0" type="line"/>
      <point x="768.0" y="-300.0" type="line"/>
    </contour>
    <contour>
      <point x="227.0" y="51.0" type="line"/>
      <point x="227.0" y="-360.0" type="line"/>
      <point x="287.0" y="-360.0" type="line"/>
      <point x="287.0" y="51.0" type="line"/>
    </contour>
    <contour>
      <point x="227.0" y="51.0" type="line"/>
      <point x="227.0" y="-8.0" type="line"/>
      <point x="769.0" y="-8.0" type="line"/>
      <point x="769.0" y="51.0" type="line"/>
    </contour>
  </outline>
</glyph>
<glyph name="tilde" format="2">
  <advance width="1024"/>
  <unicode hex="02DC"/>
  <outline>
    <contour>
      <point x="418" y="279" type="line"/>
      <point x="418" y="229" type="line"/>
      <point x="768" y="158" type="line"/>
      <point x="768" y="208" type="line"/>
    </contour>
    <contour>
      <point x="178" y="223" type="line"/>
      <point x="192" y="165" type="line"/>
      <point x="418" y="229" type="line"/>
      <point x="418" y="279" type="line"/>
    </contour>
    <contour>
      <point x="768" y="208" type="line"/>
      <point x="768" y="158" type="line"/>
      <point x="950" y="309" type="line"/>
      <point x="936" y="356" type="line"/>
    </contour>
  </outline>
</glyph>
<glyph name="hungarumlaut" format="2">
  <advance width="1024"/>
  <unicode hex="02DD"/>
  <outline>
    <contour>
      <point x="202.0" y="122.0" type="line"/>
      <point x="267.0" y="122.0" type="line"/>
      <point x="267.0" y="370.0" type="line"/>
      <point x="202.0" y="370.0" type="line"/>
    </contour>
    <contour>
      <point x="605.0" y="122.0" type="line"/>
      <point x="665.0" y="122.0" type="line"/>
      <point x="665.0" y="370.0" type="line"/>
      <point x="605.0" y="370.0" type="line"/>
    </contour>
  </outline>
</glyph>
<glyph name="gravecomb" format="2">
  <advance width="1024"/>
  <unicode hex="0300"/>
  <outline>
    <contour>
      <point x="420.0" y="877.0" type="line"/>
      <point x="544.0" y="673.0" type="line"/>
      <point x="604.0" y="727.0" type="line"/>
      <point x="480.0" y="932.0" type="line"/>
    </contour>
  </outline>
</glyph>
<glyph name="acutecomb" format="2">
  <advance width="1024"/>
  <unicode hex="0301"/>
  <outline>
    <contour>
      <point x="530" y="949" type="line"/>
      <point x="451" y="764" type="line"/>
      <point x="504" y="730" type="line"/>
      <point x="583" y="915" type="line"/>
    </contour>
  </outline>
</glyph>
<glyph name="uni0302" format="2">
  <advance width="1024"/>
  <unicode hex="0302"/>
  <outline>
    <contour>
      <point x="511.0" y="2308.0" type="line"/>
      <point x="475.0" y="2308.0" type="line"/>
      <point x="343.0" y="1998.0" type="line"/>
      <point x="370.0" y="1981.0" type="line"/>
    </contour>
    <contour>
      <point x="478.0" y="2310.0" type="line"/>
      <point x="640.0" y="1976.0" type="line"/>
      <point x="681.0" y="1994.0" type="line"/>
      <point x="515.0" y="2310.0" type="line"/>
    </contour>
  </outline>
</glyph>
<glyph name="tildecomb" format="2">
  <advance width="1024"/>
  <unicode hex="0303"/>
  <outline>
    <contour>
      <point x="366.5" y="1966" type="line"/>
      <point x="366.5" y="1916" type="line"/>
      <point x="716.5" y="1845" type="line"/>
      <point x="716.5" y="1895" type="line"/>
    </contour>
    <contour>
      <point x="126.5" y="1910" type="line"/>
      <point x="139.5" y="1852" type="line"/>
      <point x="366.5" y="1916" type="line"/>
      <point x="366.5" y="1966" type="line"/>
    </contour>
    <contour>
      <point x="716.5" y="1895" type="line"/>
      <point x="716.5" y="1845" type="line"/>
      <point x="897.5" y="1996" type="line"/>
      <point x="884.5" y="2043" type="line"/>
    </contour>
  </outline>
</glyph>
<glyph name="uni0304" format="2">
  <advance width="1024"/>
  <unicode hex="0304"/>
  <outline>
    <contour>
      <point x="232.0" y="1602.0" type="line"/>
      <point x="232.0" y="1550.0" type="line"/>
      <point x="792.0" y="1550.0" type="line"/>
      <point x="792.0" y="1602.0" type="line"/>
    </contour>
  </outline>
</glyph>
<glyph name="uni0305" format="2">
  <unicode hex="0305"/>
  <anchor x="18" y="1480" name="_top"/>
  <outline>
    <contour>
      <point x="-377" y="1602" type="line"/>
      <point x="-377" y="1542" type="line"/>
      <point x="377" y="1542" type="line"/>
      <point x="377" y="1602" type="line"/>
    </contour>
  </outline>
</glyph>
<glyph name="uni0306" format="2">
  <unicode hex="0306"/>
  <outline>
    <contour>
      <point x="165.0" y="1550.0" type="line"/>
      <point x="165.0" y="1480.0" type="line"/>
      <point x="330.0" y="1550.0" type="line"/>
      <point x="330.0" y="1645.0" type="line"/>
    </contour>
    <contour>
      <point x="-159.0" y="1550.0" type="line"/>
      <point x="-159.0" y="1480.0" type="line"/>
      <point x="165.0" y="1480.0" type="line"/>
      <point x="165.0" y="1550.0" type="line"/>
    </contour>
    <contour>
      <point x="-330.0" y="1630.0" type="line"/>
      <point x="-330.0" y="1550.0" type="line"/>
      <point x="-159.0" y="1480.0" type="line"/>
      <point x="-159.0" y="1550.0" type="line"/>
    </contour>
  </outline>
</glyph>
<glyph name="uni0307" format="2">
  <advance width="0"/>
  <unicode hex="0307"/>
  <anchor x="2" y="772" name="_top"/>
  <outline>
    <contour>
      <point x="-39" y="917" type="line"/>
      <point x="-39" y="816" type="line"/>
      <point x="73" y="816" type="line"/>
      <point x="73" y="917" type="line"/>
    </contour>
  </outline>
</glyph>
<glyph name="uni0308" format="2">
  <advance width="6"/>
  <unicode hex="0308"/>
  <outline>
    <contour>
      <point x="335.0" y="1738.0" type="line"/>
      <point x="335.0" y="1637.0" type="line"/>
      <point x="447.0" y="1637.0" type="line"/>
      <point x="447.0" y="1738.0" type="line"/>
    </contour>
    <contour>
      <point x="577.0" y="1738.0" type="line"/>
      <point x="577.0" y="1637.0" type="line"/>
      <point x="689.0" y="1637.0" type="line"/>
      <point x="689.0" y="1738.0" type="line"/>
    </contour>
  </outline>
</glyph>
<glyph name="hookabovecomb" format="2">
  <unicode hex="0309"/>
  <outline>
    <contour>
      <point x="-230.0" y="1774.0" type="line"/>
      <point x="-230.0" y="1703.0" type="line"/>
      <point x="225.0" y="1703.0" type="line"/>
      <point x="225.0" y="1774.0" type="line"/>
    </contour>
    <contour>
      <point x="165.0" y="1774.0" type="line"/>
      <point x="165.0" y="1432.0" type="line"/>
      <point x="230.0" y="1432.0" type="line"/>
      <point x="230.0" y="1774.0" type="line"/>
    </contour>
    <contour>
      <point x="-142.0" y="1453.0" type="line"/>
      <point x="-142.0" y="1386.0" type="line"/>
      <point x="229.0" y="1386.0" type="line"/>
      <point x="229.0" y="1453.0" type="line"/>
    </contour>
    <contour>
      <point x="-142.0" y="1453.0" type="line"/>
      <point x="-142.0" y="1190.0" type="line"/>
      <point x="-80.0" y="1190.0" type="line"/>
      <point x="-80.0" y="1453.0" type="line"/>
    </contour>
  </outline>
</glyph>
<glyph name="uni030A" format="2">
  <advance width="1024"/>
  <unicode hex="030A"/>
  <outline>
    <contour>
      <point x="366.469" y="1818.45" type="line"/>
      <point x="655.531" y="1818.45" type="line"/>
      <point x="655.531" y="1564.55" type="line"/>
      <point x="366.469" y="1564.55" type="line"/>
    </contour>
    <contour>
      <point x="332" y="1847" type="line"/>
      <point x="332" y="1538" type="line"/>
      <point x="692" y="1538" type="line"/>
      <point x="692" y="1847" type="line"/>
    </contour>
  </outline>
</glyph>
<glyph name="uni030B" format="2">
  <advance width="0"/>
  <unicode hex="030B"/>
  <anchor x="0" y="744" name="_top"/>
  <outline>
    <contour>
      <point x="-257" y="777" type="line"/>
      <point x="-191" y="777" type="line"/>
      <point x="-95" y="1025" type="line"/>
      <point x="-161" y="1025" type="line"/>
    </contour>
    <contour>
      <point x="147" y="777" type="line"/>
      <point x="207" y="777" type="line"/>
      <point x="303" y="1025" type="line"/>
      <point x="243" y="1025" type="line"/>
    </contour>
  </outline>
</glyph>
